<svg width="812" height="74" viewBox="0 0 812 74" xmlns="http://www.w3.org/2000/svg">
  <style>
    .ascii-path {
      fill: #6dcf43;
    }
  </style>
  <path d="M7.60 16.01L1 16.01L1 1.96L7.60 1.96L7.60 16.01ZM14.20 16.01L7.60 16.01L7.60 1.96L14.20 1.96L14.20 16.01ZM14.20 7.67L18.81 7.67L18.81 16.01L17.93 16.01L17.93 8.55L14.20 8.55L14.20 7.67ZM14.20 9.43L17.05 9.43L17.05 16.01L16.18 16.01L16.18 10.30L14.20 10.30L14.20 9.43ZM66.98 16.01L60.38 16.01L60.38 1.96L66.98 1.96L66.98 16.01ZM73.57 16.01L66.98 16.01L66.98 1.96L73.57 1.96L73.57 16.01ZM80.17 16.01L73.57 16.01L73.57 1.96L80.17 1.96L80.17 16.01ZM86.77 16.01L80.17 16.01L80.17 1.96L86.77 1.96L86.77 16.01ZM93.37 16.01L86.77 16.01L86.77 1.96L93.37 1.96L93.37 16.01ZM99.96 16.01L93.37 16.01L93.37 1.96L99.96 1.96L99.96 16.01ZM99.96 7.67L104.58 7.67L104.58 16.01L103.70 16.01L103.70 8.55L99.96 8.55L99.96 7.67ZM99.96 9.43L102.82 9.43L102.82 16.01L101.95 16.01L101.95 10.30L99.96 10.30L99.96 9.43ZM119.76 16.01L113.16 16.01L113.16 1.96L119.76 1.96L119.76 16.01ZM126.36 16.01L119.76 16.01L119.76 1.96L126.36 1.96L126.36 16.01ZM126.36 7.67L130.97 7.67L130.97 16.01L130.09 16.01L130.09 8.55L126.36 8.55L126.36 7.67ZM126.36 9.43L129.21 9.43L129.21 16.01L128.34 16.01L128.34 10.30L126.36 10.30L126.36 9.43ZM179.14 16.01L172.54 16.01L172.54 1.96L179.14 1.96L179.14 16.01ZM185.73 16.01L179.14 16.01L179.14 1.96L185.73 1.96L185.73 16.01ZM192.33 16.01L185.73 16.01L185.73 1.96L192.33 1.96L192.33 16.01ZM198.93 16.01L192.33 16.01L192.33 1.96L198.93 1.96L198.93 16.01ZM205.53 16.01L198.93 16.01L198.93 1.96L205.53 1.96L205.53 16.01ZM205.53 7.67L210.14 7.67L210.14 16.01L209.27 16.01L209.27 8.55L205.53 8.55L205.53 7.67ZM205.53 9.43L208.39 9.43L208.39 16.01L207.51 16.01L207.51 10.30L205.53 10.30L205.53 9.43ZM225.32 16.01L218.72 16.01L218.72 1.96L225.32 1.96L225.32 16.01ZM231.92 16.01L225.32 16.01L225.32 1.96L231.92 1.96L231.92 16.01ZM238.52 16.01L231.92 16.01L231.92 1.96L238.52 1.96L238.52 16.01ZM238.52 7.67L243.13 7.67L243.13 16.01L242.25 16.01L242.25 8.55L238.52 8.55L238.52 7.67ZM238.52 9.43L241.38 9.43L241.38 16.01L240.50 16.01L240.50 10.30L238.52 10.30L238.52 9.43ZM271.50 16.01L264.91 16.01L264.91 1.96L271.50 1.96L271.50 16.01ZM278.10 16.01L271.50 16.01L271.50 1.96L278.10 1.96L278.10 16.01ZM278.10 7.67L282.72 7.67L282.72 16.01L281.84 16.01L281.84 8.55L278.10 8.55L278.10 7.67ZM278.10 9.43L280.96 9.43L280.96 16.01L280.08 16.01L280.08 10.30L278.10 10.30L278.10 9.43ZM291.30 16.01L284.70 16.01L284.70 1.96L291.30 1.96L291.30 16.01ZM297.89 16.01L291.30 16.01L291.30 1.96L297.89 1.96L297.89 16.01ZM304.49 16.01L297.89 16.01L297.89 1.96L304.49 1.96L304.49 16.01ZM311.09 16.01L304.49 16.01L304.49 1.96L311.09 1.96L311.09 16.01ZM317.69 16.01L311.09 16.01L311.09 1.96L317.69 1.96L317.69 16.01ZM324.29 16.01L317.69 16.01L317.69 1.96L324.29 1.96L324.29 16.01ZM330.88 16.01L324.29 16.01L324.29 1.96L330.88 1.96L330.88 16.01ZM337.48 16.01L330.88 16.01L330.88 1.96L337.48 1.96L337.48 16.01ZM337.48 7.67L342.10 7.67L342.10 16.01L341.22 16.01L341.22 8.55L337.48 8.55L337.48 7.67ZM337.48 9.43L340.34 9.43L340.34 16.01L339.46 16.01L339.46 10.30L337.48 10.30L337.48 9.43ZM377.07 16.01L370.47 16.01L370.47 1.96L377.07 1.96L377.07 16.01ZM383.66 16.01L377.07 16.01L377.07 1.96L383.66 1.96L383.66 16.01ZM390.26 16.01L383.66 16.01L383.66 1.96L390.26 1.96L390.26 16.01ZM396.86 16.01L390.26 16.01L390.26 1.96L396.86 1.96L396.86 16.01ZM403.46 16.01L396.86 16.01L396.86 1.96L403.46 1.96L403.46 16.01ZM410.05 16.01L403.46 16.01L403.46 1.96L410.05 1.96L410.05 16.01ZM410.05 7.67L414.67 7.67L414.67 16.01L413.79 16.01L413.79 8.55L410.05 8.55L410.05 7.67ZM410.05 9.43L412.91 9.43L412.91 16.01L412.04 16.01L412.04 10.30L410.05 10.30L410.05 9.43ZM429.85 16.01L423.25 16.01L423.25 1.96L429.85 1.96L429.85 16.01ZM436.45 16.01L429.85 16.01L429.85 1.96L436.45 1.96L436.45 16.01ZM443.04 16.01L436.45 16.01L436.45 1.96L443.04 1.96L443.04 16.01ZM449.64 16.01L443.04 16.01L443.04 1.96L449.64 1.96L449.64 16.01ZM456.24 16.01L449.64 16.01L449.64 1.96L456.24 1.96L456.24 16.01ZM462.84 16.01L456.24 16.01L456.24 1.96L462.84 1.96L462.84 16.01ZM469.43 16.01L462.84 16.01L462.84 1.96L469.43 1.96L469.43 16.01ZM469.43 7.67L474.05 7.67L474.05 16.01L473.17 16.01L473.17 8.55L469.43 8.55L469.43 7.67ZM469.43 9.43L472.29 9.43L472.29 16.01L471.41 16.01L471.41 10.30L469.43 10.30L469.43 9.43ZM482.63 16.01L476.03 16.01L476.03 1.96L482.63 1.96L482.63 16.01ZM489.23 16.01L482.63 16.01L482.63 1.96L489.23 1.96L489.23 16.01ZM495.82 16.01L489.23 16.01L489.23 1.96L495.82 1.96L495.82 16.01ZM502.42 16.01L495.82 16.01L495.82 1.96L502.42 1.96L502.42 16.01ZM509.02 16.01L502.42 16.01L502.42 1.96L509.02 1.96L509.02 16.01ZM515.62 16.01L509.02 16.01L509.02 1.96L515.62 1.96L515.62 16.01ZM515.62 7.67L520.23 7.67L520.23 16.01L519.36 16.01L519.36 8.55L515.62 8.55L515.62 7.67ZM515.62 9.43L518.48 9.43L518.48 16.01L517.60 16.01L517.60 10.30L515.62 10.30L515.62 9.43ZM535.41 16.01L528.81 16.01L528.81 1.96L535.41 1.96L535.41 16.01ZM542.01 16.01L535.41 16.01L535.41 1.96L542.01 1.96L542.01 16.01ZM542.01 7.67L546.63 7.67L546.63 16.01L545.75 16.01L545.75 8.55L542.01 8.55L542.01 7.67ZM542.01 9.43L544.87 9.43L544.87 16.01L543.99 16.01L543.99 10.30L542.01 10.30L542.01 9.43ZM575.00 16.01L568.40 16.01L568.40 1.96L575.00 1.96L575.00 16.01ZM581.59 16.01L575.00 16.01L575.00 1.96L581.59 1.96L581.59 16.01ZM581.59 7.67L586.21 7.67L586.21 16.01L585.33 16.01L585.33 8.55L581.59 8.55L581.59 7.67ZM581.59 9.43L584.45 9.43L584.45 16.01L583.57 16.01L583.57 10.30L581.59 10.30L581.59 9.43ZM601.39 16.01L594.79 16.01L594.79 1.96L601.39 1.96L601.39 16.01ZM607.98 16.01L601.39 16.01L601.39 1.96L607.98 1.96L607.98 16.01ZM614.58 16.01L607.98 16.01L607.98 1.96L614.58 1.96L614.58 16.01ZM621.18 16.01L614.58 16.01L614.58 1.96L621.18 1.96L621.18 16.01ZM627.78 16.01L621.18 16.01L621.18 1.96L627.78 1.96L627.78 16.01ZM634.38 16.01L627.78 16.01L627.78 1.96L634.38 1.96L634.38 16.01ZM634.38 7.67L638.99 7.67L638.99 16.01L638.11 16.01L638.11 8.55L634.38 8.55L634.38 7.67ZM634.38 9.43L637.23 9.43L637.23 16.01L636.36 16.01L636.36 10.30L634.38 10.30L634.38 9.43ZM660.77 16.01L654.17 16.01L654.17 1.96L660.77 1.96L660.77 16.01ZM667.36 16.01L660.77 16.01L660.77 1.96L667.36 1.96L667.36 16.01ZM673.96 16.01L667.36 16.01L667.36 1.96L673.96 1.96L673.96 16.01ZM680.56 16.01L673.96 16.01L673.96 1.96L680.56 1.96L680.56 16.01ZM687.16 16.01L680.56 16.01L680.56 1.96L687.16 1.96L687.16 16.01ZM693.75 16.01L687.16 16.01L687.16 1.96L693.75 1.96L693.75 16.01ZM693.75 7.67L698.37 7.67L698.37 16.01L697.49 16.01L697.49 8.55L693.75 8.55L693.75 7.67ZM693.75 9.43L696.61 9.43L696.61 16.01L695.73 16.01L695.73 10.30L693.75 10.30L693.75 9.43ZM713.55 16.01L706.95 16.01L706.95 1.96L713.55 1.96L713.55 16.01ZM720.14 16.01L713.55 16.01L713.55 1.96L720.14 1.96L720.14 16.01ZM726.74 16.01L720.14 16.01L720.14 1.96L726.74 1.96L726.74 16.01ZM733.34 16.01L726.74 16.01L726.74 1.96L733.34 1.96L733.34 16.01ZM739.94 16.01L733.34 16.01L733.34 1.96L739.94 1.96L739.94 16.01ZM746.54 16.01L739.94 16.01L739.94 1.96L746.54 1.96L746.54 16.01ZM753.13 16.01L746.54 16.01L746.54 1.96L753.13 1.96L753.13 16.01ZM753.13 7.67L757.75 7.67L757.75 16.01L756.87 16.01L756.87 8.55L753.13 8.55L753.13 7.67ZM753.13 9.43L755.99 9.43L755.99 16.01L755.11 16.01L755.11 10.30L753.13 10.30L753.13 9.43ZM766.33 16.01L759.73 16.01L759.73 1.96L766.33 1.96L766.33 16.01ZM772.93 16.01L766.33 16.01L766.33 1.96L772.93 1.96L772.93 16.01ZM779.52 16.01L772.93 16.01L772.93 1.96L779.52 1.96L779.52 16.01ZM786.12 16.01L779.52 16.01L779.52 1.96L786.12 1.96L786.12 16.01ZM792.72 16.01L786.12 16.01L786.12 1.96L792.72 1.96L792.72 16.01ZM799.32 16.01L792.72 16.01L792.72 1.96L799.32 1.96L799.32 16.01ZM799.32 7.67L803.93 7.67L803.93 16.01L803.05 16.01L803.05 8.55L799.32 8.55L799.32 7.67ZM799.32 9.43L802.18 9.43L802.18 16.01L801.30 16.01L801.30 10.30L799.32 10.30L799.32 9.43Z" class="ascii-path" />
  <path d="M7.60 22.30L2.98 22.30L2.98 13.96L3.86 13.96L3.86 21.43L7.60 21.43L7.60 22.30ZM7.60 20.55L4.74 20.55L4.74 13.96L5.62 13.96L5.62 19.67L7.60 19.67L7.60 20.55ZM14.20 28.01L7.60 28.01L7.60 13.96L14.20 13.96L14.20 28.01ZM20.79 28.01L14.20 28.01L14.20 13.96L20.79 13.96L20.79 28.01ZM20.79 19.67L25.41 19.67L25.41 28.01L24.53 28.01L24.53 20.55L20.79 20.55L20.79 19.67ZM20.79 21.43L23.65 21.43L23.65 28.01L22.77 28.01L22.77 22.30L20.79 22.30L20.79 21.43ZM66.98 28.01L60.38 28.01L60.38 13.96L66.98 13.96L66.98 28.01ZM73.57 28.01L66.98 28.01L66.98 13.96L73.57 13.96L73.57 28.01ZM75.55 19.67L80.17 19.67L80.17 20.55L76.43 20.55L76.43 28.01L75.55 28.01L75.55 19.67ZM77.31 28.01L77.31 21.43L80.17 21.43L80.17 22.30L78.19 22.30L78.19 28.01L77.31 28.01ZM80.17 20.55L80.17 19.67L86.77 19.67L86.77 20.55L80.17 20.55ZM80.17 22.30L80.17 21.43L86.77 21.43L86.77 22.30L80.17 22.30ZM86.77 20.55L86.77 19.67L93.37 19.67L93.37 20.55L86.77 20.55ZM86.77 22.30L86.77 21.43L93.37 21.43L93.37 22.30L86.77 22.30ZM99.96 28.01L93.37 28.01L93.37 13.96L99.96 13.96L99.96 28.01ZM106.56 28.01L99.96 28.01L99.96 13.96L106.56 13.96L106.56 28.01ZM106.56 19.67L111.18 19.67L111.18 28.01L110.30 28.01L110.30 20.55L106.56 20.55L106.56 19.67ZM106.56 21.43L109.42 21.43L109.42 28.01L108.54 28.01L108.54 22.30L106.56 22.30L106.56 21.43ZM119.76 28.01L113.16 28.01L113.16 13.96L119.76 13.96L119.76 28.01ZM126.36 28.01L119.76 28.01L119.76 13.96L126.36 13.96L126.36 28.01ZM128.34 28.01L128.34 13.96L129.21 13.96L129.21 28.01L128.34 28.01ZM130.97 28.01L130.09 28.01L130.09 13.96L130.97 13.96L130.97 28.01ZM172.54 28.01L165.94 28.01L165.94 13.96L172.54 13.96L172.54 28.01ZM179.14 28.01L172.54 28.01L172.54 13.96L179.14 13.96L179.14 28.01ZM181.12 19.67L185.73 19.67L185.73 20.55L182.00 20.55L182.00 28.01L181.12 28.01L181.12 19.67ZM182.88 28.01L182.88 21.43L185.73 21.43L185.73 22.30L183.75 22.30L183.75 28.01L182.88 28.01ZM185.73 20.55L185.73 19.67L192.33 19.67L192.33 20.55L185.73 20.55ZM185.73 22.30L185.73 21.43L192.33 21.43L192.33 22.30L185.73 22.30ZM192.33 20.55L192.33 19.67L198.93 19.67L198.93 20.55L192.33 20.55ZM192.33 22.30L192.33 21.43L198.93 21.43L198.93 22.30L192.33 22.30ZM205.53 28.01L198.93 28.01L198.93 13.96L205.53 13.96L205.53 28.01ZM212.13 28.01L205.53 28.01L205.53 13.96L212.13 13.96L212.13 28.01ZM212.13 19.67L216.74 19.67L216.74 28.01L215.86 28.01L215.86 20.55L212.13 20.55L212.13 19.67ZM212.13 21.43L214.98 21.43L214.98 28.01L214.11 28.01L214.11 22.30L212.13 22.30L212.13 21.43ZM225.32 28.01L218.72 28.01L218.72 13.96L225.32 13.96L225.32 28.01ZM231.92 28.01L225.32 28.01L225.32 13.96L231.92 13.96L231.92 28.01ZM238.52 28.01L231.92 28.01L231.92 13.96L238.52 13.96L238.52 28.01ZM245.11 28.01L238.52 28.01L238.52 13.96L245.11 13.96L245.11 28.01ZM245.11 19.67L249.73 19.67L249.73 28.01L248.85 28.01L248.85 20.55L245.11 20.55L245.11 19.67ZM245.11 21.43L247.97 21.43L247.97 28.01L247.09 28.01L247.09 22.30L245.11 22.30L245.11 21.43ZM271.50 28.01L264.91 28.01L264.91 13.96L271.50 13.96L271.50 28.01ZM278.10 28.01L271.50 28.01L271.50 13.96L278.10 13.96L278.10 28.01ZM280.08 28.01L280.08 13.96L280.96 13.96L280.96 28.01L280.08 28.01ZM282.72 28.01L281.84 28.01L281.84 13.96L282.72 13.96L282.72 28.01ZM291.30 22.30L286.68 22.30L286.68 13.96L287.56 13.96L287.56 21.43L291.30 21.43L291.30 22.30ZM291.30 20.55L288.44 20.55L288.44 13.96L289.32 13.96L289.32 19.67L291.30 19.67L291.30 20.55ZM291.30 20.55L291.30 19.67L297.89 19.67L297.89 20.55L291.30 20.55ZM291.30 22.30L291.30 21.43L297.89 21.43L297.89 22.30L291.30 22.30ZM297.89 20.55L297.89 19.67L304.49 19.67L304.49 20.55L297.89 20.55ZM297.89 22.30L297.89 21.43L304.49 21.43L304.49 22.30L297.89 22.30ZM311.09 28.01L304.49 28.01L304.49 13.96L311.09 13.96L311.09 28.01ZM317.69 28.01L311.09 28.01L311.09 13.96L317.69 13.96L317.69 28.01ZM319.67 19.67L324.29 19.67L324.29 20.55L320.55 20.55L320.55 28.01L319.67 28.01L319.67 19.67ZM321.43 28.01L321.43 21.43L324.29 21.43L324.29 22.30L322.30 22.30L322.30 28.01L321.43 28.01ZM324.29 20.55L324.29 19.67L330.88 19.67L330.88 20.55L324.29 20.55ZM324.29 22.30L324.29 21.43L330.88 21.43L330.88 22.30L324.29 22.30ZM330.88 20.55L330.88 19.67L337.48 19.67L337.48 20.55L330.88 20.55ZM330.88 22.30L330.88 21.43L337.48 21.43L337.48 22.30L330.88 22.30ZM342.10 22.30L337.48 22.30L337.48 21.43L341.22 21.43L341.22 13.96L342.10 13.96L342.10 22.30ZM340.34 13.96L340.34 20.55L337.48 20.55L337.48 19.67L339.46 19.67L339.46 13.96L340.34 13.96ZM377.07 28.01L370.47 28.01L370.47 13.96L377.07 13.96L377.07 28.01ZM383.66 28.01L377.07 28.01L377.07 13.96L383.66 13.96L383.66 28.01ZM385.64 19.67L390.26 19.67L390.26 20.55L386.52 20.55L386.52 28.01L385.64 28.01L385.64 19.67ZM387.40 28.01L387.40 21.43L390.26 21.43L390.26 22.30L388.28 22.30L388.28 28.01L387.40 28.01ZM390.26 20.55L390.26 19.67L396.86 19.67L396.86 20.55L390.26 20.55ZM390.26 22.30L390.26 21.43L396.86 21.43L396.86 22.30L390.26 22.30ZM396.86 20.55L396.86 19.67L403.46 19.67L403.46 20.55L396.86 20.55ZM396.86 22.30L396.86 21.43L403.46 21.43L403.46 22.30L396.86 22.30ZM410.05 28.01L403.46 28.01L403.46 13.96L410.05 13.96L410.05 28.01ZM416.65 28.01L410.05 28.01L410.05 13.96L416.65 13.96L416.65 28.01ZM416.65 19.67L421.27 19.67L421.27 28.01L420.39 28.01L420.39 20.55L416.65 20.55L416.65 19.67ZM416.65 21.43L419.51 21.43L419.51 28.01L418.63 28.01L418.63 22.30L416.65 22.30L416.65 21.43ZM429.85 28.01L423.25 28.01L423.25 13.96L429.85 13.96L429.85 28.01ZM436.45 28.01L429.85 28.01L429.85 13.96L436.45 13.96L436.45 28.01ZM438.43 19.67L443.04 19.67L443.04 20.55L439.30 20.55L439.30 28.01L438.43 28.01L438.43 19.67ZM440.18 28.01L440.18 21.43L443.04 21.43L443.04 22.30L441.06 22.30L441.06 28.01L440.18 28.01ZM443.04 20.55L443.04 19.67L449.64 19.67L449.64 20.55L443.04 20.55ZM443.04 22.30L443.04 21.43L449.64 21.43L449.64 22.30L443.04 22.30ZM449.64 20.55L449.64 19.67L456.24 19.67L456.24 20.55L449.64 20.55ZM449.64 22.30L449.64 21.43L456.24 21.43L456.24 22.30L449.64 22.30ZM456.24 20.55L456.24 19.67L462.84 19.67L462.84 20.55L456.24 20.55ZM456.24 22.30L456.24 21.43L462.84 21.43L462.84 22.30L456.24 22.30ZM462.84 20.55L462.84 19.67L469.43 19.67L469.43 20.55L462.84 20.55ZM462.84 22.30L462.84 21.43L469.43 21.43L469.43 22.30L462.84 22.30ZM474.05 22.30L469.43 22.30L469.43 21.43L473.17 21.43L473.17 13.96L474.05 13.96L474.05 22.30ZM472.29 13.96L472.29 20.55L469.43 20.55L469.43 19.67L471.41 19.67L471.41 13.96L472.29 13.96ZM482.63 28.01L476.03 28.01L476.03 13.96L482.63 13.96L482.63 28.01ZM489.23 28.01L482.63 28.01L482.63 13.96L489.23 13.96L489.23 28.01ZM491.21 19.67L495.82 19.67L495.82 20.55L492.09 20.55L492.09 28.01L491.21 28.01L491.21 19.67ZM492.96 28.01L492.96 21.43L495.82 21.43L495.82 22.30L493.84 22.30L493.84 28.01L492.96 28.01ZM495.82 20.55L495.82 19.67L502.42 19.67L502.42 20.55L495.82 20.55ZM495.82 22.30L495.82 21.43L502.42 21.43L502.42 22.30L495.82 22.30ZM502.42 20.55L502.42 19.67L509.02 19.67L509.02 20.55L502.42 20.55ZM502.42 22.30L502.42 21.43L509.02 21.43L509.02 22.30L502.42 22.30ZM515.62 28.01L509.02 28.01L509.02 13.96L515.62 13.96L515.62 28.01ZM522.21 28.01L515.62 28.01L515.62 13.96L522.21 13.96L522.21 28.01ZM522.21 19.67L526.83 19.67L526.83 28.01L525.95 28.01L525.95 20.55L522.21 20.55L522.21 19.67ZM522.21 21.43L525.07 21.43L525.07 28.01L524.20 28.01L524.20 22.30L522.21 22.30L522.21 21.43ZM535.41 28.01L528.81 28.01L528.81 13.96L535.41 13.96L535.41 28.01ZM542.01 28.01L535.41 28.01L535.41 13.96L542.01 13.96L542.01 28.01ZM543.99 28.01L543.99 13.96L544.87 13.96L544.87 28.01L543.99 28.01ZM546.63 28.01L545.75 28.01L545.75 13.96L546.63 13.96L546.63 28.01ZM575.00 28.01L568.40 28.01L568.40 13.96L575.00 13.96L575.00 28.01ZM581.59 28.01L575.00 28.01L575.00 13.96L581.59 13.96L581.59 28.01ZM583.57 28.01L583.57 13.96L584.45 13.96L584.45 28.01L583.57 28.01ZM586.21 28.01L585.33 28.01L585.33 13.96L586.21 13.96L586.21 28.01ZM594.79 28.01L588.19 28.01L588.19 13.96L594.79 13.96L594.79 28.01ZM601.39 28.01L594.79 28.01L594.79 13.96L601.39 13.96L601.39 28.01ZM603.37 19.67L607.98 19.67L607.98 20.55L604.25 20.55L604.25 28.01L603.37 28.01L603.37 19.67ZM605.13 28.01L605.13 21.43L607.98 21.43L607.98 22.30L606.00 22.30L606.00 28.01L605.13 28.01ZM607.98 20.55L607.98 19.67L614.58 19.67L614.58 20.55L607.98 20.55ZM607.98 22.30L607.98 21.43L614.58 21.43L614.58 22.30L607.98 22.30ZM614.58 20.55L614.58 19.67L621.18 19.67L621.18 20.55L614.58 20.55ZM614.58 22.30L614.58 21.43L621.18 21.43L621.18 22.30L614.58 22.30ZM621.18 20.55L621.18 19.67L627.78 19.67L627.78 20.55L621.18 20.55ZM621.18 22.30L621.18 21.43L627.78 21.43L627.78 22.30L621.18 22.30ZM627.78 20.55L627.78 19.67L634.38 19.67L634.38 20.55L627.78 20.55ZM627.78 22.30L627.78 21.43L634.38 21.43L634.38 22.30L627.78 22.30ZM638.99 22.30L634.38 22.30L634.38 21.43L638.11 21.43L638.11 13.96L638.99 13.96L638.99 22.30ZM637.23 13.96L637.23 20.55L634.38 20.55L634.38 19.67L636.36 19.67L636.36 13.96L637.23 13.96ZM654.17 28.01L647.57 28.01L647.57 13.96L654.17 13.96L654.17 28.01ZM660.77 28.01L654.17 28.01L654.17 13.96L660.77 13.96L660.77 28.01ZM662.75 19.67L667.36 19.67L667.36 20.55L663.63 20.55L663.63 28.01L662.75 28.01L662.75 19.67ZM664.50 28.01L664.50 21.43L667.36 21.43L667.36 22.30L665.38 22.30L665.38 28.01L664.50 28.01ZM667.36 20.55L667.36 19.67L673.96 19.67L673.96 20.55L667.36 20.55ZM667.36 22.30L667.36 21.43L673.96 21.43L673.96 22.30L667.36 22.30ZM673.96 20.55L673.96 19.67L680.56 19.67L680.56 20.55L673.96 20.55ZM673.96 22.30L673.96 21.43L680.56 21.43L680.56 22.30L673.96 22.30ZM680.56 20.55L680.56 19.67L687.16 19.67L687.16 20.55L680.56 20.55ZM680.56 22.30L680.56 21.43L687.16 21.43L687.16 22.30L680.56 22.30ZM687.16 20.55L687.16 19.67L693.75 19.67L693.75 20.55L687.16 20.55ZM687.16 22.30L687.16 21.43L693.75 21.43L693.75 22.30L687.16 22.30ZM698.37 22.30L693.75 22.30L693.75 21.43L697.49 21.43L697.49 13.96L698.37 13.96L698.37 22.30ZM696.61 13.96L696.61 20.55L693.75 20.55L693.75 19.67L695.73 19.67L695.73 13.96L696.61 13.96ZM713.55 28.01L706.95 28.01L706.95 13.96L713.55 13.96L713.55 28.01ZM720.14 28.01L713.55 28.01L713.55 13.96L720.14 13.96L720.14 28.01ZM722.13 19.67L726.74 19.67L726.74 20.55L723.00 20.55L723.00 28.01L722.13 28.01L722.13 19.67ZM723.88 28.01L723.88 21.43L726.74 21.43L726.74 22.30L724.76 22.30L724.76 28.01L723.88 28.01ZM726.74 20.55L726.74 19.67L733.34 19.67L733.34 20.55L726.74 20.55ZM726.74 22.30L726.74 21.43L733.34 21.43L733.34 22.30L726.74 22.30ZM733.34 20.55L733.34 19.67L739.94 19.67L739.94 20.55L733.34 20.55ZM733.34 22.30L733.34 21.43L739.94 21.43L739.94 22.30L733.34 22.30ZM739.94 20.55L739.94 19.67L746.54 19.67L746.54 20.55L739.94 20.55ZM739.94 22.30L739.94 21.43L746.54 21.43L746.54 22.30L739.94 22.30ZM746.54 20.55L746.54 19.67L753.13 19.67L753.13 20.55L746.54 20.55ZM746.54 22.30L746.54 21.43L753.13 21.43L753.13 22.30L746.54 22.30ZM757.75 22.30L753.13 22.30L753.13 21.43L756.87 21.43L756.87 13.96L757.75 13.96L757.75 22.30ZM755.99 13.96L755.99 20.55L753.13 20.55L753.13 19.67L755.11 19.67L755.11 13.96L755.99 13.96ZM766.33 28.01L759.73 28.01L759.73 13.96L766.33 13.96L766.33 28.01ZM772.93 28.01L766.33 28.01L766.33 13.96L772.93 13.96L772.93 28.01ZM774.91 19.67L779.52 19.67L779.52 20.55L775.79 20.55L775.79 28.01L774.91 28.01L774.91 19.67ZM776.66 28.01L776.66 21.43L779.52 21.43L779.52 22.30L777.54 22.30L777.54 28.01L776.66 28.01ZM779.52 20.55L779.52 19.67L786.12 19.67L786.12 20.55L779.52 20.55ZM779.52 22.30L779.52 21.43L786.12 21.43L786.12 22.30L779.52 22.30ZM786.12 20.55L786.12 19.67L792.72 19.67L792.72 20.55L786.12 20.55ZM786.12 22.30L786.12 21.43L792.72 21.43L792.72 22.30L786.12 22.30ZM799.32 28.01L792.72 28.01L792.72 13.96L799.32 13.96L799.32 28.01ZM805.91 28.01L799.32 28.01L799.32 13.96L805.91 13.96L805.91 28.01ZM805.91 19.67L810.53 19.67L810.53 28.01L809.65 28.01L809.65 20.55L805.91 20.55L805.91 19.67ZM805.91 21.43L808.77 21.43L808.77 28.01L807.89 28.01L807.89 22.30L805.91 22.30L805.91 21.43Z" class="ascii-path" />
  <path d="M14.20 34.30L9.58 34.30L9.58 25.96L10.46 25.96L10.46 33.43L14.20 33.43L14.20 34.30ZM14.20 32.55L11.34 32.55L11.34 25.96L12.21 25.96L12.21 31.67L14.20 31.67L14.20 32.55ZM20.79 40.01L14.20 40.01L14.20 25.96L20.79 25.96L20.79 40.01ZM27.39 40.01L20.79 40.01L20.79 25.96L27.39 25.96L27.39 40.01ZM27.39 31.67L32.01 31.67L32.01 40.01L31.13 40.01L31.13 32.55L27.39 32.55L27.39 31.67ZM27.39 33.43L30.25 33.43L30.25 40.01L29.37 40.01L29.37 34.30L27.39 34.30L27.39 33.43ZM66.98 40.01L60.38 40.01L60.38 25.96L66.98 25.96L66.98 40.01ZM73.57 40.01L66.98 40.01L66.98 25.96L73.57 25.96L73.57 40.01ZM80.17 40.01L73.57 40.01L73.57 25.96L80.17 25.96L80.17 40.01ZM86.77 40.01L80.17 40.01L80.17 25.96L86.77 25.96L86.77 40.01ZM93.37 40.01L86.77 40.01L86.77 25.96L93.37 25.96L93.37 40.01ZM99.96 40.01L93.37 40.01L93.37 25.96L99.96 25.96L99.96 40.01ZM101.95 31.67L106.56 31.67L106.56 32.55L102.82 32.55L102.82 40.01L101.95 40.01L101.95 31.67ZM103.70 40.01L103.70 33.43L106.56 33.43L106.56 34.30L104.58 34.30L104.58 40.01L103.70 40.01ZM111.18 34.30L106.56 34.30L106.56 33.43L110.30 33.43L110.30 25.96L111.18 25.96L111.18 34.30ZM109.42 25.96L109.42 32.55L106.56 32.55L106.56 31.67L108.54 31.67L108.54 25.96L109.42 25.96ZM119.76 40.01L113.16 40.01L113.16 25.96L119.76 25.96L119.76 40.01ZM126.36 40.01L119.76 40.01L119.76 25.96L126.36 25.96L126.36 40.01ZM128.34 40.01L128.34 25.96L129.21 25.96L129.21 40.01L128.34 40.01ZM130.97 40.01L130.09 40.01L130.09 25.96L130.97 25.96L130.97 40.01ZM172.54 40.01L165.94 40.01L165.94 25.96L172.54 25.96L172.54 40.01ZM179.14 40.01L172.54 40.01L172.54 25.96L179.14 25.96L179.14 40.01ZM185.73 40.01L179.14 40.01L179.14 25.96L185.73 25.96L185.73 40.01ZM192.33 40.01L185.73 40.01L185.73 25.96L192.33 25.96L192.33 40.01ZM198.93 40.01L192.33 40.01L192.33 25.96L198.93 25.96L198.93 40.01ZM205.53 40.01L198.93 40.01L198.93 25.96L205.53 25.96L205.53 40.01ZM212.13 40.01L205.53 40.01L205.53 25.96L212.13 25.96L212.13 40.01ZM214.11 40.01L214.11 25.96L214.98 25.96L214.98 40.01L214.11 40.01ZM216.74 40.01L215.86 40.01L215.86 25.96L216.74 25.96L216.74 40.01ZM225.32 40.01L218.72 40.01L218.72 25.96L225.32 25.96L225.32 40.01ZM231.92 40.01L225.32 40.01L225.32 25.96L231.92 25.96L231.92 40.01ZM233.90 31.67L238.52 31.67L238.52 32.55L234.78 32.55L234.78 40.01L233.90 40.01L233.90 31.67ZM235.66 40.01L235.66 33.43L238.52 33.43L238.52 34.30L236.54 34.30L236.54 40.01L235.66 40.01ZM245.11 40.01L238.52 40.01L238.52 25.96L245.11 25.96L245.11 40.01ZM251.71 40.01L245.11 40.01L245.11 25.96L251.71 25.96L251.71 40.01ZM251.71 31.67L256.33 31.67L256.33 40.01L255.45 40.01L255.45 32.55L251.71 32.55L251.71 31.67ZM251.71 33.43L254.57 33.43L254.57 40.01L253.69 40.01L253.69 34.30L251.71 34.30L251.71 33.43ZM271.50 40.01L264.91 40.01L264.91 25.96L271.50 25.96L271.50 40.01ZM278.10 40.01L271.50 40.01L271.50 25.96L278.10 25.96L278.10 40.01ZM280.08 40.01L280.08 25.96L280.96 25.96L280.96 40.01L280.08 40.01ZM282.72 40.01L281.84 40.01L281.84 25.96L282.72 25.96L282.72 40.01ZM311.09 40.01L304.49 40.01L304.49 25.96L311.09 25.96L311.09 40.01ZM317.69 40.01L311.09 40.01L311.09 25.96L317.69 25.96L317.69 40.01ZM319.67 40.01L319.67 25.96L320.55 25.96L320.55 40.01L319.67 40.01ZM322.30 40.01L321.43 40.01L321.43 25.96L322.30 25.96L322.30 40.01ZM377.07 40.01L370.47 40.01L370.47 25.96L377.07 25.96L377.07 40.01ZM383.66 40.01L377.07 40.01L377.07 25.96L383.66 25.96L383.66 40.01ZM385.64 40.01L385.64 25.96L386.52 25.96L386.52 40.01L385.64 40.01ZM388.28 40.01L387.40 40.01L387.40 25.96L388.28 25.96L388.28 40.01ZM410.05 40.01L403.46 40.01L403.46 25.96L410.05 25.96L410.05 40.01ZM416.65 40.01L410.05 40.01L410.05 25.96L416.65 25.96L416.65 40.01ZM418.63 40.01L418.63 25.96L419.51 25.96L419.51 40.01L418.63 40.01ZM421.27 40.01L420.39 40.01L420.39 25.96L421.27 25.96L421.27 40.01ZM429.85 40.01L423.25 40.01L423.25 25.96L429.85 25.96L429.85 40.01ZM436.45 40.01L429.85 40.01L429.85 25.96L436.45 25.96L436.45 40.01ZM443.04 40.01L436.45 40.01L436.45 25.96L443.04 25.96L443.04 40.01ZM449.64 40.01L443.04 40.01L443.04 25.96L449.64 25.96L449.64 40.01ZM456.24 40.01L449.64 40.01L449.64 25.96L456.24 25.96L456.24 40.01ZM456.24 31.67L460.86 31.67L460.86 40.01L459.98 40.01L459.98 32.55L456.24 32.55L456.24 31.67ZM456.24 33.43L459.10 33.43L459.10 40.01L458.22 40.01L458.22 34.30L456.24 34.30L456.24 33.43ZM482.63 40.01L476.03 40.01L476.03 25.96L482.63 25.96L482.63 40.01ZM489.23 40.01L482.63 40.01L482.63 25.96L489.23 25.96L489.23 40.01ZM495.82 40.01L489.23 40.01L489.23 25.96L495.82 25.96L495.82 40.01ZM502.42 40.01L495.82 40.01L495.82 25.96L502.42 25.96L502.42 40.01ZM509.02 40.01L502.42 40.01L502.42 25.96L509.02 25.96L509.02 40.01ZM515.62 40.01L509.02 40.01L509.02 25.96L515.62 25.96L515.62 40.01ZM517.60 31.67L522.21 31.67L522.21 32.55L518.48 32.55L518.48 40.01L517.60 40.01L517.60 31.67ZM519.36 40.01L519.36 33.43L522.21 33.43L522.21 34.30L520.23 34.30L520.23 40.01L519.36 40.01ZM526.83 34.30L522.21 34.30L522.21 33.43L525.95 33.43L525.95 25.96L526.83 25.96L526.83 34.30ZM525.07 25.96L525.07 32.55L522.21 32.55L522.21 31.67L524.20 31.67L524.20 25.96L525.07 25.96ZM535.41 40.01L528.81 40.01L528.81 25.96L535.41 25.96L535.41 40.01ZM542.01 40.01L535.41 40.01L535.41 25.96L542.01 25.96L542.01 40.01ZM543.99 40.01L543.99 25.96L544.87 25.96L544.87 40.01L543.99 40.01ZM546.63 40.01L545.75 40.01L545.75 25.96L546.63 25.96L546.63 40.01ZM575.00 40.01L568.40 40.01L568.40 25.96L575.00 25.96L575.00 40.01ZM581.59 40.01L575.00 40.01L575.00 25.96L581.59 25.96L581.59 40.01ZM583.57 40.01L583.57 25.96L584.45 25.96L584.45 40.01L583.57 40.01ZM586.21 40.01L585.33 40.01L585.33 25.96L586.21 25.96L586.21 40.01ZM594.79 40.01L588.19 40.01L588.19 25.96L594.79 25.96L594.79 40.01ZM601.39 40.01L594.79 40.01L594.79 25.96L601.39 25.96L601.39 40.01ZM603.37 40.01L603.37 25.96L604.25 25.96L604.25 40.01L603.37 40.01ZM606.00 40.01L605.13 40.01L605.13 25.96L606.00 25.96L606.00 40.01ZM627.78 40.01L621.18 40.01L621.18 25.96L627.78 25.96L627.78 40.01ZM634.38 40.01L627.78 40.01L627.78 25.96L634.38 25.96L634.38 40.01ZM640.97 40.01L634.38 40.01L634.38 25.96L640.97 25.96L640.97 40.01ZM640.97 31.67L645.59 31.67L645.59 40.01L644.71 40.01L644.71 32.55L640.97 32.55L640.97 31.67ZM640.97 33.43L643.83 33.43L643.83 40.01L642.95 40.01L642.95 34.30L640.97 34.30L640.97 33.43ZM654.17 40.01L647.57 40.01L647.57 25.96L654.17 25.96L654.17 40.01ZM660.77 40.01L654.17 40.01L654.17 25.96L660.77 25.96L660.77 40.01ZM662.75 40.01L662.75 25.96L663.63 25.96L663.63 40.01L662.75 40.01ZM665.38 40.01L664.50 40.01L664.50 25.96L665.38 25.96L665.38 40.01ZM687.16 40.01L680.56 40.01L680.56 25.96L687.16 25.96L687.16 40.01ZM693.75 40.01L687.16 40.01L687.16 25.96L693.75 25.96L693.75 40.01ZM700.35 40.01L693.75 40.01L693.75 25.96L700.35 25.96L700.35 40.01ZM700.35 31.67L704.97 31.67L704.97 40.01L704.09 40.01L704.09 32.55L700.35 32.55L700.35 31.67ZM700.35 33.43L703.21 33.43L703.21 40.01L702.33 40.01L702.33 34.30L700.35 34.30L700.35 33.43ZM713.55 40.01L706.95 40.01L706.95 25.96L713.55 25.96L713.55 40.01ZM720.14 40.01L713.55 40.01L713.55 25.96L720.14 25.96L720.14 40.01ZM726.74 40.01L720.14 40.01L720.14 25.96L726.74 25.96L726.74 40.01ZM733.34 40.01L726.74 40.01L726.74 25.96L733.34 25.96L733.34 40.01ZM739.94 40.01L733.34 40.01L733.34 25.96L739.94 25.96L739.94 40.01ZM739.94 31.67L744.55 31.67L744.55 40.01L743.68 40.01L743.68 32.55L739.94 32.55L739.94 31.67ZM739.94 33.43L742.80 33.43L742.80 40.01L741.92 40.01L741.92 34.30L739.94 34.30L739.94 33.43ZM766.33 40.01L759.73 40.01L759.73 25.96L766.33 25.96L766.33 40.01ZM772.93 40.01L766.33 40.01L766.33 25.96L772.93 25.96L772.93 40.01ZM779.52 40.01L772.93 40.01L772.93 25.96L779.52 25.96L779.52 40.01ZM786.12 40.01L779.52 40.01L779.52 25.96L786.12 25.96L786.12 40.01ZM792.72 40.01L786.12 40.01L786.12 25.96L792.72 25.96L792.72 40.01ZM799.32 40.01L792.72 40.01L792.72 25.96L799.32 25.96L799.32 40.01ZM801.30 31.67L805.91 31.67L805.91 32.55L802.18 32.55L802.18 40.01L801.30 40.01L801.30 31.67ZM803.05 40.01L803.05 33.43L805.91 33.43L805.91 34.30L803.93 34.30L803.93 40.01L803.05 40.01ZM810.53 34.30L805.91 34.30L805.91 33.43L809.65 33.43L809.65 25.96L810.53 25.96L810.53 34.30ZM808.77 25.96L808.77 32.55L805.91 32.55L805.91 31.67L807.89 31.67L807.89 25.96L808.77 25.96Z" class="ascii-path" />
  <path d="M14.20 52.01L7.60 52.01L7.60 37.96L14.20 37.96L14.20 52.01ZM20.79 52.01L14.20 52.01L14.20 37.96L20.79 37.96L20.79 52.01ZM22.77 43.67L27.39 43.67L27.39 44.55L23.65 44.55L23.65 52.01L22.77 52.01L22.77 43.67ZM24.53 52.01L24.53 45.43L27.39 45.43L27.39 46.30L25.41 46.30L25.41 52.01L24.53 52.01ZM32.01 46.30L27.39 46.30L27.39 45.43L31.13 45.43L31.13 37.96L32.01 37.96L32.01 46.30ZM30.25 37.96L30.25 44.55L27.39 44.55L27.39 43.67L29.37 43.67L29.37 37.96L30.25 37.96ZM66.98 52.01L60.38 52.01L60.38 37.96L66.98 37.96L66.98 52.01ZM73.57 52.01L66.98 52.01L66.98 37.96L73.57 37.96L73.57 52.01ZM75.55 43.67L80.17 43.67L80.17 44.55L76.43 44.55L76.43 52.01L75.55 52.01L75.55 43.67ZM77.31 52.01L77.31 45.43L80.17 45.43L80.17 46.30L78.19 46.30L78.19 52.01L77.31 52.01ZM80.17 44.55L80.17 43.67L86.77 43.67L86.77 44.55L80.17 44.55ZM80.17 46.30L80.17 45.43L86.77 45.43L86.77 46.30L80.17 46.30ZM86.77 44.55L86.77 43.67L93.37 43.67L93.37 44.55L86.77 44.55ZM86.77 46.30L86.77 45.43L93.37 45.43L93.37 46.30L86.77 46.30ZM93.37 44.55L93.37 43.67L99.96 43.67L99.96 44.55L93.37 44.55ZM93.37 46.30L93.37 45.43L99.96 45.43L99.96 46.30L93.37 46.30ZM104.58 46.30L99.96 46.30L99.96 45.43L103.70 45.43L103.70 37.96L104.58 37.96L104.58 46.30ZM102.82 37.96L102.82 44.55L99.96 44.55L99.96 43.67L101.95 43.67L101.95 37.96L102.82 37.96ZM119.76 52.01L113.16 52.01L113.16 37.96L119.76 37.96L119.76 52.01ZM126.36 52.01L119.76 52.01L119.76 37.96L126.36 37.96L126.36 52.01ZM128.34 52.01L128.34 37.96L129.21 37.96L129.21 52.01L128.34 52.01ZM130.97 52.01L130.09 52.01L130.09 37.96L130.97 37.96L130.97 52.01ZM172.54 52.01L165.94 52.01L165.94 37.96L172.54 37.96L172.54 52.01ZM179.14 52.01L172.54 52.01L172.54 37.96L179.14 37.96L179.14 52.01ZM181.12 43.67L185.73 43.67L185.73 44.55L182.00 44.55L182.00 52.01L181.12 52.01L181.12 43.67ZM182.88 52.01L182.88 45.43L185.73 45.43L185.73 46.30L183.75 46.30L183.75 52.01L182.88 52.01ZM185.73 44.55L185.73 43.67L192.33 43.67L192.33 44.55L185.73 44.55ZM185.73 46.30L185.73 45.43L192.33 45.43L192.33 46.30L185.73 46.30ZM192.33 44.55L192.33 43.67L198.93 43.67L198.93 44.55L192.33 44.55ZM192.33 46.30L192.33 45.43L198.93 45.43L198.93 46.30L192.33 46.30ZM205.53 52.01L198.93 52.01L198.93 37.96L205.53 37.96L205.53 52.01ZM212.13 52.01L205.53 52.01L205.53 37.96L212.13 37.96L212.13 52.01ZM214.11 52.01L214.11 37.96L214.98 37.96L214.98 52.01L214.11 52.01ZM216.74 52.01L215.86 52.01L215.86 37.96L216.74 37.96L216.74 52.01ZM225.32 52.01L218.72 52.01L218.72 37.96L225.32 37.96L225.32 52.01ZM231.92 52.01L225.32 52.01L225.32 37.96L231.92 37.96L231.92 52.01ZM233.90 52.01L233.90 37.96L234.78 37.96L234.78 52.01L233.90 52.01ZM236.54 52.01L235.66 52.01L235.66 37.96L236.54 37.96L236.54 52.01ZM245.11 46.30L240.50 46.30L240.50 37.96L241.38 37.96L241.38 45.43L245.11 45.43L245.11 46.30ZM245.11 44.55L242.25 44.55L242.25 37.96L243.13 37.96L243.13 43.67L245.11 43.67L245.11 44.55ZM251.71 52.01L245.11 52.01L245.11 37.96L251.71 37.96L251.71 52.01ZM258.31 52.01L251.71 52.01L251.71 37.96L258.31 37.96L258.31 52.01ZM258.31 43.67L262.93 43.67L262.93 52.01L262.05 52.01L262.05 44.55L258.31 44.55L258.31 43.67ZM258.31 45.43L261.17 45.43L261.17 52.01L260.29 52.01L260.29 46.30L258.31 46.30L258.31 45.43ZM271.50 52.01L264.91 52.01L264.91 37.96L271.50 37.96L271.50 52.01ZM278.10 52.01L271.50 52.01L271.50 37.96L278.10 37.96L278.10 52.01ZM280.08 52.01L280.08 37.96L280.96 37.96L280.96 52.01L280.08 52.01ZM282.72 52.01L281.84 52.01L281.84 37.96L282.72 37.96L282.72 52.01ZM311.09 52.01L304.49 52.01L304.49 37.96L311.09 37.96L311.09 52.01ZM317.69 52.01L311.09 52.01L311.09 37.96L317.69 37.96L317.69 52.01ZM319.67 52.01L319.67 37.96L320.55 37.96L320.55 52.01L319.67 52.01ZM322.30 52.01L321.43 52.01L321.43 37.96L322.30 37.96L322.30 52.01ZM377.07 52.01L370.47 52.01L370.47 37.96L377.07 37.96L377.07 52.01ZM383.66 52.01L377.07 52.01L377.07 37.96L383.66 37.96L383.66 52.01ZM385.64 52.01L385.64 37.96L386.52 37.96L386.52 52.01L385.64 52.01ZM388.28 52.01L387.40 52.01L387.40 37.96L388.28 37.96L388.28 52.01ZM410.05 52.01L403.46 52.01L403.46 37.96L410.05 37.96L410.05 52.01ZM416.65 52.01L410.05 52.01L410.05 37.96L416.65 37.96L416.65 52.01ZM418.63 52.01L418.63 37.96L419.51 37.96L419.51 52.01L418.63 52.01ZM421.27 52.01L420.39 52.01L420.39 37.96L421.27 37.96L421.27 52.01ZM429.85 52.01L423.25 52.01L423.25 37.96L429.85 37.96L429.85 52.01ZM436.45 52.01L429.85 52.01L429.85 37.96L436.45 37.96L436.45 52.01ZM438.43 43.67L443.04 43.67L443.04 44.55L439.30 44.55L439.30 52.01L438.43 52.01L438.43 43.67ZM440.18 52.01L440.18 45.43L443.04 45.43L443.04 46.30L441.06 46.30L441.06 52.01L440.18 52.01ZM443.04 44.55L443.04 43.67L449.64 43.67L449.64 44.55L443.04 44.55ZM443.04 46.30L443.04 45.43L449.64 45.43L449.64 46.30L443.04 46.30ZM449.64 44.55L449.64 43.67L456.24 43.67L456.24 44.55L449.64 44.55ZM449.64 46.30L449.64 45.43L456.24 45.43L456.24 46.30L449.64 46.30ZM460.86 46.30L456.24 46.30L456.24 45.43L459.98 45.43L459.98 37.96L460.86 37.96L460.86 46.30ZM459.10 37.96L459.10 44.55L456.24 44.55L456.24 43.67L458.22 43.67L458.22 37.96L459.10 37.96ZM482.63 52.01L476.03 52.01L476.03 37.96L482.63 37.96L482.63 52.01ZM489.23 52.01L482.63 52.01L482.63 37.96L489.23 37.96L489.23 52.01ZM491.21 43.67L495.82 43.67L495.82 44.55L492.09 44.55L492.09 52.01L491.21 52.01L491.21 43.67ZM492.96 52.01L492.96 45.43L495.82 45.43L495.82 46.30L493.84 46.30L493.84 52.01L492.96 52.01ZM495.82 44.55L495.82 43.67L502.42 43.67L502.42 44.55L495.82 44.55ZM495.82 46.30L495.82 45.43L502.42 45.43L502.42 46.30L495.82 46.30ZM502.42 44.55L502.42 43.67L509.02 43.67L509.02 44.55L502.42 44.55ZM502.42 46.30L502.42 45.43L509.02 45.43L509.02 46.30L502.42 46.30ZM515.62 52.01L509.02 52.01L509.02 37.96L515.62 37.96L515.62 52.01ZM522.21 52.01L515.62 52.01L515.62 37.96L522.21 37.96L522.21 52.01ZM522.21 43.67L526.83 43.67L526.83 52.01L525.95 52.01L525.95 44.55L522.21 44.55L522.21 43.67ZM522.21 45.43L525.07 45.43L525.07 52.01L524.20 52.01L524.20 46.30L522.21 46.30L522.21 45.43ZM535.41 52.01L528.81 52.01L528.81 37.96L535.41 37.96L535.41 52.01ZM542.01 52.01L535.41 52.01L535.41 37.96L542.01 37.96L542.01 52.01ZM543.99 52.01L543.99 37.96L544.87 37.96L544.87 52.01L543.99 52.01ZM546.63 52.01L545.75 52.01L545.75 37.96L546.63 37.96L546.63 52.01ZM575.00 52.01L568.40 52.01L568.40 37.96L575.00 37.96L575.00 52.01ZM581.59 52.01L575.00 52.01L575.00 37.96L581.59 37.96L581.59 52.01ZM583.57 52.01L583.57 37.96L584.45 37.96L584.45 52.01L583.57 52.01ZM586.21 52.01L585.33 52.01L585.33 37.96L586.21 37.96L586.21 52.01ZM594.79 52.01L588.19 52.01L588.19 37.96L594.79 37.96L594.79 52.01ZM601.39 52.01L594.79 52.01L594.79 37.96L601.39 37.96L601.39 52.01ZM603.37 52.01L603.37 37.96L604.25 37.96L604.25 52.01L603.37 52.01ZM606.00 52.01L605.13 52.01L605.13 37.96L606.00 37.96L606.00 52.01ZM634.38 52.01L627.78 52.01L627.78 37.96L634.38 37.96L634.38 52.01ZM640.97 52.01L634.38 52.01L634.38 37.96L640.97 37.96L640.97 52.01ZM642.95 52.01L642.95 37.96L643.83 37.96L643.83 52.01L642.95 52.01ZM645.59 52.01L644.71 52.01L644.71 37.96L645.59 37.96L645.59 52.01ZM654.17 52.01L647.57 52.01L647.57 37.96L654.17 37.96L654.17 52.01ZM660.77 52.01L654.17 52.01L654.17 37.96L660.77 37.96L660.77 52.01ZM662.75 52.01L662.75 37.96L663.63 37.96L663.63 52.01L662.75 52.01ZM665.38 52.01L664.50 52.01L664.50 37.96L665.38 37.96L665.38 52.01ZM693.75 52.01L687.16 52.01L687.16 37.96L693.75 37.96L693.75 52.01ZM700.35 52.01L693.75 52.01L693.75 37.96L700.35 37.96L700.35 52.01ZM702.33 52.01L702.33 37.96L703.21 37.96L703.21 52.01L702.33 52.01ZM704.97 52.01L704.09 52.01L704.09 37.96L704.97 37.96L704.97 52.01ZM713.55 52.01L706.95 52.01L706.95 37.96L713.55 37.96L713.55 52.01ZM720.14 52.01L713.55 52.01L713.55 37.96L720.14 37.96L720.14 52.01ZM722.13 43.67L726.74 43.67L726.74 44.55L723.00 44.55L723.00 52.01L722.13 52.01L722.13 43.67ZM723.88 52.01L723.88 45.43L726.74 45.43L726.74 46.30L724.76 46.30L724.76 52.01L723.88 52.01ZM726.74 44.55L726.74 43.67L733.34 43.67L733.34 44.55L726.74 44.55ZM726.74 46.30L726.74 45.43L733.34 45.43L733.34 46.30L726.74 46.30ZM733.34 44.55L733.34 43.67L739.94 43.67L739.94 44.55L733.34 44.55ZM733.34 46.30L733.34 45.43L739.94 45.43L739.94 46.30L733.34 46.30ZM744.55 46.30L739.94 46.30L739.94 45.43L743.68 45.43L743.68 37.96L744.55 37.96L744.55 46.30ZM742.80 37.96L742.80 44.55L739.94 44.55L739.94 43.67L741.92 43.67L741.92 37.96L742.80 37.96ZM766.33 52.01L759.73 52.01L759.73 37.96L766.33 37.96L766.33 52.01ZM772.93 52.01L766.33 52.01L766.33 37.96L772.93 37.96L772.93 52.01ZM774.91 43.67L779.52 43.67L779.52 44.55L775.79 44.55L775.79 52.01L774.91 52.01L774.91 43.67ZM776.66 52.01L776.66 45.43L779.52 45.43L779.52 46.30L777.54 46.30L777.54 52.01L776.66 52.01ZM779.52 44.55L779.52 43.67L786.12 43.67L786.12 44.55L779.52 44.55ZM779.52 46.30L779.52 45.43L786.12 45.43L786.12 46.30L779.52 46.30ZM786.12 44.55L786.12 43.67L792.72 43.67L792.72 44.55L786.12 44.55ZM786.12 46.30L786.12 45.43L792.72 45.43L792.72 46.30L786.12 46.30ZM799.32 52.01L792.72 52.01L792.72 37.96L799.32 37.96L799.32 52.01ZM805.91 52.01L799.32 52.01L799.32 37.96L805.91 37.96L805.91 52.01ZM805.91 43.67L810.53 43.67L810.53 52.01L809.65 52.01L809.65 44.55L805.91 44.55L805.91 43.67ZM805.91 45.43L808.77 45.43L808.77 52.01L807.89 52.01L807.89 46.30L805.91 46.30L805.91 45.43Z" class="ascii-path" />
  <path d="M7.60 64.01L1 64.01L1 49.96L7.60 49.96L7.60 64.01ZM14.20 64.01L7.60 64.01L7.60 49.96L14.20 49.96L14.20 64.01ZM16.18 55.67L20.79 55.67L20.79 56.55L17.05 56.55L17.05 64.01L16.18 64.01L16.18 55.67ZM17.93 64.01L17.93 57.43L20.79 57.43L20.79 58.30L18.81 58.30L18.81 64.01L17.93 64.01ZM25.41 58.30L20.79 58.30L20.79 57.43L24.53 57.43L24.53 49.96L25.41 49.96L25.41 58.30ZM23.65 49.96L23.65 56.55L20.79 56.55L20.79 55.67L22.77 55.67L22.77 49.96L23.65 49.96ZM66.98 64.01L60.38 64.01L60.38 49.96L66.98 49.96L66.98 64.01ZM73.57 64.01L66.98 64.01L66.98 49.96L73.57 49.96L73.57 64.01ZM75.55 64.01L75.55 49.96L76.43 49.96L76.43 64.01L75.55 64.01ZM78.19 64.01L77.31 64.01L77.31 49.96L78.19 49.96L78.19 64.01ZM119.76 64.01L113.16 64.01L113.16 49.96L119.76 49.96L119.76 64.01ZM126.36 64.01L119.76 64.01L119.76 49.96L126.36 49.96L126.36 64.01ZM132.95 64.01L126.36 64.01L126.36 49.96L132.95 49.96L132.95 64.01ZM139.55 64.01L132.95 64.01L132.95 49.96L139.55 49.96L139.55 64.01ZM146.15 64.01L139.55 64.01L139.55 49.96L146.15 49.96L146.15 64.01ZM152.75 64.01L146.15 64.01L146.15 49.96L152.75 49.96L152.75 64.01ZM159.34 64.01L152.75 64.01L152.75 49.96L159.34 49.96L159.34 64.01ZM159.34 55.67L163.96 55.67L163.96 64.01L163.08 64.01L163.08 56.55L159.34 56.55L159.34 55.67ZM159.34 57.43L162.20 57.43L162.20 64.01L161.32 64.01L161.32 58.30L159.34 58.30L159.34 57.43ZM172.54 64.01L165.94 64.01L165.94 49.96L172.54 49.96L172.54 64.01ZM179.14 64.01L172.54 64.01L172.54 49.96L179.14 49.96L179.14 64.01ZM181.12 64.01L181.12 49.96L182.00 49.96L182.00 64.01L181.12 64.01ZM183.75 64.01L182.88 64.01L182.88 49.96L183.75 49.96L183.75 64.01ZM205.53 64.01L198.93 64.01L198.93 49.96L205.53 49.96L205.53 64.01ZM212.13 64.01L205.53 64.01L205.53 49.96L212.13 49.96L212.13 64.01ZM214.11 64.01L214.11 49.96L214.98 49.96L214.98 64.01L214.11 64.01ZM216.74 64.01L215.86 64.01L215.86 49.96L216.74 49.96L216.74 64.01ZM225.32 64.01L218.72 64.01L218.72 49.96L225.32 49.96L225.32 64.01ZM231.92 64.01L225.32 64.01L225.32 49.96L231.92 49.96L231.92 64.01ZM233.90 64.01L233.90 49.96L234.78 49.96L234.78 64.01L233.90 64.01ZM236.54 64.01L235.66 64.01L235.66 49.96L236.54 49.96L236.54 64.01ZM251.71 58.30L247.09 58.30L247.09 49.96L247.97 49.96L247.97 57.43L251.71 57.43L251.71 58.30ZM251.71 56.55L248.85 56.55L248.85 49.96L249.73 49.96L249.73 55.67L251.71 55.67L251.71 56.55ZM258.31 64.01L251.71 64.01L251.71 49.96L258.31 49.96L258.31 64.01ZM264.91 64.01L258.31 64.01L258.31 49.96L264.91 49.96L264.91 64.01ZM271.50 64.01L264.91 64.01L264.91 49.96L271.50 49.96L271.50 64.01ZM278.10 64.01L271.50 64.01L271.50 49.96L278.10 49.96L278.10 64.01ZM280.08 64.01L280.08 49.96L280.96 49.96L280.96 64.01L280.08 64.01ZM282.72 64.01L281.84 64.01L281.84 49.96L282.72 49.96L282.72 64.01ZM311.09 64.01L304.49 64.01L304.49 49.96L311.09 49.96L311.09 64.01ZM317.69 64.01L311.09 64.01L311.09 49.96L317.69 49.96L317.69 64.01ZM319.67 64.01L319.67 49.96L320.55 49.96L320.55 64.01L319.67 64.01ZM322.30 64.01L321.43 64.01L321.43 49.96L322.30 49.96L322.30 64.01ZM377.07 64.01L370.47 64.01L370.47 49.96L377.07 49.96L377.07 64.01ZM383.66 64.01L377.07 64.01L377.07 49.96L383.66 49.96L383.66 64.01ZM390.26 64.01L383.66 64.01L383.66 49.96L390.26 49.96L390.26 64.01ZM396.86 64.01L390.26 64.01L390.26 49.96L396.86 49.96L396.86 64.01ZM403.46 64.01L396.86 64.01L396.86 49.96L403.46 49.96L403.46 64.01ZM410.05 64.01L403.46 64.01L403.46 49.96L410.05 49.96L410.05 64.01ZM412.04 55.67L416.65 55.67L416.65 56.55L412.91 56.55L412.91 64.01L412.04 64.01L412.04 55.67ZM413.79 64.01L413.79 57.43L416.65 57.43L416.65 58.30L414.67 58.30L414.67 64.01L413.79 64.01ZM421.27 58.30L416.65 58.30L416.65 57.43L420.39 57.43L420.39 49.96L421.27 49.96L421.27 58.30ZM419.51 49.96L419.51 56.55L416.65 56.55L416.65 55.67L418.63 55.67L418.63 49.96L419.51 49.96ZM429.85 64.01L423.25 64.01L423.25 49.96L429.85 49.96L429.85 64.01ZM436.45 64.01L429.85 64.01L429.85 49.96L436.45 49.96L436.45 64.01ZM443.04 64.01L436.45 64.01L436.45 49.96L443.04 49.96L443.04 64.01ZM449.64 64.01L443.04 64.01L443.04 49.96L449.64 49.96L449.64 64.01ZM456.24 64.01L449.64 64.01L449.64 49.96L456.24 49.96L456.24 64.01ZM462.84 64.01L456.24 64.01L456.24 49.96L462.84 49.96L462.84 64.01ZM469.43 64.01L462.84 64.01L462.84 49.96L469.43 49.96L469.43 64.01ZM469.43 55.67L474.05 55.67L474.05 64.01L473.17 64.01L473.17 56.55L469.43 56.55L469.43 55.67ZM469.43 57.43L472.29 57.43L472.29 64.01L471.41 64.01L471.41 58.30L469.43 58.30L469.43 57.43ZM482.63 64.01L476.03 64.01L476.03 49.96L482.63 49.96L482.63 64.01ZM489.23 64.01L482.63 64.01L482.63 49.96L489.23 49.96L489.23 64.01ZM495.82 64.01L489.23 64.01L489.23 49.96L495.82 49.96L495.82 64.01ZM502.42 64.01L495.82 64.01L495.82 49.96L502.42 49.96L502.42 64.01ZM509.02 64.01L502.42 64.01L502.42 49.96L509.02 49.96L509.02 64.01ZM515.62 64.01L509.02 64.01L509.02 49.96L515.62 49.96L515.62 64.01ZM517.60 55.67L522.21 55.67L522.21 56.55L518.48 56.55L518.48 64.01L517.60 64.01L517.60 55.67ZM519.36 64.01L519.36 57.43L522.21 57.43L522.21 58.30L520.23 58.30L520.23 64.01L519.36 64.01ZM526.83 58.30L522.21 58.30L522.21 57.43L525.95 57.43L525.95 49.96L526.83 49.96L526.83 58.30ZM525.07 49.96L525.07 56.55L522.21 56.55L522.21 55.67L524.20 55.67L524.20 49.96L525.07 49.96ZM535.41 58.30L530.79 58.30L530.79 49.96L531.67 49.96L531.67 57.43L535.41 57.43L535.41 58.30ZM535.41 56.55L532.55 56.55L532.55 49.96L533.43 49.96L533.43 55.67L535.41 55.67L535.41 56.55ZM542.01 64.01L535.41 64.01L535.41 49.96L542.01 49.96L542.01 64.01ZM548.61 64.01L542.01 64.01L542.01 49.96L548.61 49.96L548.61 64.01ZM555.20 64.01L548.61 64.01L548.61 49.96L555.20 49.96L555.20 64.01ZM561.80 64.01L555.20 64.01L555.20 49.96L561.80 49.96L561.80 64.01ZM568.40 64.01L561.80 64.01L561.80 49.96L568.40 49.96L568.40 64.01ZM575.00 64.01L568.40 64.01L568.40 49.96L575.00 49.96L575.00 64.01ZM576.98 55.67L581.59 55.67L581.59 56.55L577.86 56.55L577.86 64.01L576.98 64.01L576.98 55.67ZM578.73 64.01L578.73 57.43L581.59 57.43L581.59 58.30L579.61 58.30L579.61 64.01L578.73 64.01ZM586.21 58.30L581.59 58.30L581.59 57.43L585.33 57.43L585.33 49.96L586.21 49.96L586.21 58.30ZM584.45 49.96L584.45 56.55L581.59 56.55L581.59 55.67L583.57 55.67L583.57 49.96L584.45 49.96ZM594.79 58.30L590.17 58.30L590.17 49.96L591.05 49.96L591.05 57.43L594.79 57.43L594.79 58.30ZM594.79 56.55L591.93 56.55L591.93 49.96L592.81 49.96L592.81 55.67L594.79 55.67L594.79 56.55ZM601.39 64.01L594.79 64.01L594.79 49.96L601.39 49.96L601.39 64.01ZM607.98 64.01L601.39 64.01L601.39 49.96L607.98 49.96L607.98 64.01ZM614.58 64.01L607.98 64.01L607.98 49.96L614.58 49.96L614.58 64.01ZM621.18 64.01L614.58 64.01L614.58 49.96L621.18 49.96L621.18 64.01ZM627.78 64.01L621.18 64.01L621.18 49.96L627.78 49.96L627.78 64.01ZM634.38 64.01L627.78 64.01L627.78 49.96L634.38 49.96L634.38 64.01ZM636.36 55.67L640.97 55.67L640.97 56.55L637.23 56.55L637.23 64.01L636.36 64.01L636.36 55.67ZM638.11 64.01L638.11 57.43L640.97 57.43L640.97 58.30L638.99 58.30L638.99 64.01L638.11 64.01ZM645.59 58.30L640.97 58.30L640.97 57.43L644.71 57.43L644.71 49.96L645.59 49.96L645.59 58.30ZM643.83 49.96L643.83 56.55L640.97 56.55L640.97 55.67L642.95 55.67L642.95 49.96L643.83 49.96ZM654.17 58.30L649.55 58.30L649.55 49.96L650.43 49.96L650.43 57.43L654.17 57.43L654.17 58.30ZM654.17 56.55L651.31 56.55L651.31 49.96L652.19 49.96L652.19 55.67L654.17 55.67L654.17 56.55ZM660.77 64.01L654.17 64.01L654.17 49.96L660.77 49.96L660.77 64.01ZM667.36 64.01L660.77 64.01L660.77 49.96L667.36 49.96L667.36 64.01ZM673.96 64.01L667.36 64.01L667.36 49.96L673.96 49.96L673.96 64.01ZM680.56 64.01L673.96 64.01L673.96 49.96L680.56 49.96L680.56 64.01ZM687.16 64.01L680.56 64.01L680.56 49.96L687.16 49.96L687.16 64.01ZM693.75 64.01L687.16 64.01L687.16 49.96L693.75 49.96L693.75 64.01ZM695.73 55.67L700.35 55.67L700.35 56.55L696.61 56.55L696.61 64.01L695.73 64.01L695.73 55.67ZM697.49 64.01L697.49 57.43L700.35 57.43L700.35 58.30L698.37 58.30L698.37 64.01L697.49 64.01ZM704.97 58.30L700.35 58.30L700.35 57.43L704.09 57.43L704.09 49.96L704.97 49.96L704.97 58.30ZM703.21 49.96L703.21 56.55L700.35 56.55L700.35 55.67L702.33 55.67L702.33 49.96L703.21 49.96ZM713.55 64.01L706.95 64.01L706.95 49.96L713.55 49.96L713.55 64.01ZM720.14 64.01L713.55 64.01L713.55 49.96L720.14 49.96L720.14 64.01ZM726.74 64.01L720.14 64.01L720.14 49.96L726.74 49.96L726.74 64.01ZM733.34 64.01L726.74 64.01L726.74 49.96L733.34 49.96L733.34 64.01ZM739.94 64.01L733.34 64.01L733.34 49.96L739.94 49.96L739.94 64.01ZM746.54 64.01L739.94 64.01L739.94 49.96L746.54 49.96L746.54 64.01ZM753.13 64.01L746.54 64.01L746.54 49.96L753.13 49.96L753.13 64.01ZM753.13 55.67L757.75 55.67L757.75 64.01L756.87 64.01L756.87 56.55L753.13 56.55L753.13 55.67ZM753.13 57.43L755.99 57.43L755.99 64.01L755.11 64.01L755.11 58.30L753.13 58.30L753.13 57.43ZM766.33 64.01L759.73 64.01L759.73 49.96L766.33 49.96L766.33 64.01ZM772.93 64.01L766.33 64.01L766.33 49.96L772.93 49.96L772.93 64.01ZM774.91 64.01L774.91 49.96L775.79 49.96L775.79 64.01L774.91 64.01ZM777.54 64.01L776.66 64.01L776.66 49.96L777.54 49.96L777.54 64.01ZM799.32 64.01L792.72 64.01L792.72 49.96L799.32 49.96L799.32 64.01ZM805.91 64.01L799.32 64.01L799.32 49.96L805.91 49.96L805.91 64.01ZM807.89 64.01L807.89 49.96L808.77 49.96L808.77 64.01L807.89 64.01ZM810.53 64.01L809.65 64.01L809.65 49.96L810.53 49.96L810.53 64.01Z" class="ascii-path" />
  <path d="M7.60 70.30L2.98 70.30L2.98 61.96L3.86 61.96L3.86 69.43L7.60 69.43L7.60 70.30ZM7.60 68.55L4.74 68.55L4.74 61.96L5.62 61.96L5.62 67.67L7.60 67.67L7.60 68.55ZM7.60 68.55L7.60 67.67L14.20 67.67L14.20 68.55L7.60 68.55ZM7.60 70.30L7.60 69.43L14.20 69.43L14.20 70.30L7.60 70.30ZM18.81 70.30L14.20 70.30L14.20 69.43L17.93 69.43L17.93 61.96L18.81 61.96L18.81 70.30ZM17.05 61.96L17.05 68.55L14.20 68.55L14.20 67.67L16.18 67.67L16.18 61.96L17.05 61.96ZM66.98 70.30L62.36 70.30L62.36 61.96L63.24 61.96L63.24 69.43L66.98 69.43L66.98 70.30ZM66.98 68.55L64.12 68.55L64.12 61.96L65.00 61.96L65.00 67.67L66.98 67.67L66.98 68.55ZM66.98 68.55L66.98 67.67L73.57 67.67L73.57 68.55L66.98 68.55ZM66.98 70.30L66.98 69.43L73.57 69.43L73.57 70.30L66.98 70.30ZM78.19 70.30L73.57 70.30L73.57 69.43L77.31 69.43L77.31 61.96L78.19 61.96L78.19 70.30ZM76.43 61.96L76.43 68.55L73.57 68.55L73.57 67.67L75.55 67.67L75.55 61.96L76.43 61.96ZM119.76 70.30L115.14 70.30L115.14 61.96L116.02 61.96L116.02 69.43L119.76 69.43L119.76 70.30ZM119.76 68.55L116.90 68.55L116.90 61.96L117.78 61.96L117.78 67.67L119.76 67.67L119.76 68.55ZM119.76 68.55L119.76 67.67L126.36 67.67L126.36 68.55L119.76 68.55ZM119.76 70.30L119.76 69.43L126.36 69.43L126.36 70.30L119.76 70.30ZM126.36 68.55L126.36 67.67L132.95 67.67L132.95 68.55L126.36 68.55ZM126.36 70.30L126.36 69.43L132.95 69.43L132.95 70.30L126.36 70.30ZM132.95 68.55L132.95 67.67L139.55 67.67L139.55 68.55L132.95 68.55ZM132.95 70.30L132.95 69.43L139.55 69.43L139.55 70.30L132.95 70.30ZM139.55 68.55L139.55 67.67L146.15 67.67L146.15 68.55L139.55 68.55ZM139.55 70.30L139.55 69.43L146.15 69.43L146.15 70.30L139.55 70.30ZM146.15 68.55L146.15 67.67L152.75 67.67L152.75 68.55L146.15 68.55ZM146.15 70.30L146.15 69.43L152.75 69.43L152.75 70.30L146.15 70.30ZM152.75 68.55L152.75 67.67L159.34 67.67L159.34 68.55L152.75 68.55ZM152.75 70.30L152.75 69.43L159.34 69.43L159.34 70.30L152.75 70.30ZM163.96 70.30L159.34 70.30L159.34 69.43L163.08 69.43L163.08 61.96L163.96 61.96L163.96 70.30ZM162.20 61.96L162.20 68.55L159.34 68.55L159.34 67.67L161.32 67.67L161.32 61.96L162.20 61.96ZM172.54 70.30L167.92 70.30L167.92 61.96L168.80 61.96L168.80 69.43L172.54 69.43L172.54 70.30ZM172.54 68.55L169.68 68.55L169.68 61.96L170.56 61.96L170.56 67.67L172.54 67.67L172.54 68.55ZM172.54 68.55L172.54 67.67L179.14 67.67L179.14 68.55L172.54 68.55ZM172.54 70.30L172.54 69.43L179.14 69.43L179.14 70.30L172.54 70.30ZM183.75 70.30L179.14 70.30L179.14 69.43L182.88 69.43L182.88 61.96L183.75 61.96L183.75 70.30ZM182.00 61.96L182.00 68.55L179.14 68.55L179.14 67.67L181.12 67.67L181.12 61.96L182.00 61.96ZM205.53 70.30L200.91 70.30L200.91 61.96L201.79 61.96L201.79 69.43L205.53 69.43L205.53 70.30ZM205.53 68.55L202.67 68.55L202.67 61.96L203.55 61.96L203.55 67.67L205.53 67.67L205.53 68.55ZM205.53 68.55L205.53 67.67L212.13 67.67L212.13 68.55L205.53 68.55ZM205.53 70.30L205.53 69.43L212.13 69.43L212.13 70.30L205.53 70.30ZM216.74 70.30L212.13 70.30L212.13 69.43L215.86 69.43L215.86 61.96L216.74 61.96L216.74 70.30ZM214.98 61.96L214.98 68.55L212.13 68.55L212.13 67.67L214.11 67.67L214.11 61.96L214.98 61.96ZM225.32 70.30L220.70 70.30L220.70 61.96L221.58 61.96L221.58 69.43L225.32 69.43L225.32 70.30ZM225.32 68.55L222.46 68.55L222.46 61.96L223.34 61.96L223.34 67.67L225.32 67.67L225.32 68.55ZM225.32 68.55L225.32 67.67L231.92 67.67L231.92 68.55L225.32 68.55ZM225.32 70.30L225.32 69.43L231.92 69.43L231.92 70.30L225.32 70.30ZM236.54 70.30L231.92 70.30L231.92 69.43L235.66 69.43L235.66 61.96L236.54 61.96L236.54 70.30ZM234.78 61.96L234.78 68.55L231.92 68.55L231.92 67.67L233.90 67.67L233.90 61.96L234.78 61.96ZM258.31 70.30L253.69 70.30L253.69 61.96L254.57 61.96L254.57 69.43L258.31 69.43L258.31 70.30ZM258.31 68.55L255.45 68.55L255.45 61.96L256.33 61.96L256.33 67.67L258.31 67.67L258.31 68.55ZM258.31 68.55L258.31 67.67L264.91 67.67L264.91 68.55L258.31 68.55ZM258.31 70.30L258.31 69.43L264.91 69.43L264.91 70.30L258.31 70.30ZM264.91 68.55L264.91 67.67L271.50 67.67L271.50 68.55L264.91 68.55ZM264.91 70.30L264.91 69.43L271.50 69.43L271.50 70.30L264.91 70.30ZM271.50 68.55L271.50 67.67L278.10 67.67L278.10 68.55L271.50 68.55ZM271.50 70.30L271.50 69.43L278.10 69.43L278.10 70.30L271.50 70.30ZM282.72 70.30L278.10 70.30L278.10 69.43L281.84 69.43L281.84 61.96L282.72 61.96L282.72 70.30ZM280.96 61.96L280.96 68.55L278.10 68.55L278.10 67.67L280.08 67.67L280.08 61.96L280.96 61.96ZM311.09 70.30L306.47 70.30L306.47 61.96L307.35 61.96L307.35 69.43L311.09 69.43L311.09 70.30ZM311.09 68.55L308.23 68.55L308.23 61.96L309.11 61.96L309.11 67.67L311.09 67.67L311.09 68.55ZM311.09 68.55L311.09 67.67L317.69 67.67L317.69 68.55L311.09 68.55ZM311.09 70.30L311.09 69.43L317.69 69.43L317.69 70.30L311.09 70.30ZM322.30 70.30L317.69 70.30L317.69 69.43L321.43 69.43L321.43 61.96L322.30 61.96L322.30 70.30ZM320.55 61.96L320.55 68.55L317.69 68.55L317.69 67.67L319.67 67.67L319.67 61.96L320.55 61.96ZM377.07 70.30L372.45 70.30L372.45 61.96L373.33 61.96L373.33 69.43L377.07 69.43L377.07 70.30ZM377.07 68.55L374.21 68.55L374.21 61.96L375.09 61.96L375.09 67.67L377.07 67.67L377.07 68.55ZM377.07 68.55L377.07 67.67L383.66 67.67L383.66 68.55L377.07 68.55ZM377.07 70.30L377.07 69.43L383.66 69.43L383.66 70.30L377.07 70.30ZM383.66 68.55L383.66 67.67L390.26 67.67L390.26 68.55L383.66 68.55ZM383.66 70.30L383.66 69.43L390.26 69.43L390.26 70.30L383.66 70.30ZM390.26 68.55L390.26 67.67L396.86 67.67L396.86 68.55L390.26 68.55ZM390.26 70.30L390.26 69.43L396.86 69.43L396.86 70.30L390.26 70.30ZM396.86 68.55L396.86 67.67L403.46 67.67L403.46 68.55L396.86 68.55ZM396.86 70.30L396.86 69.43L403.46 69.43L403.46 70.30L396.86 70.30ZM403.46 68.55L403.46 67.67L410.05 67.67L410.05 68.55L403.46 68.55ZM403.46 70.30L403.46 69.43L410.05 69.43L410.05 70.30L403.46 70.30ZM414.67 70.30L410.05 70.30L410.05 69.43L413.79 69.43L413.79 61.96L414.67 61.96L414.67 70.30ZM412.91 61.96L412.91 68.55L410.05 68.55L410.05 67.67L412.04 67.67L412.04 61.96L412.91 61.96ZM429.85 70.30L425.23 70.30L425.23 61.96L426.11 61.96L426.11 69.43L429.85 69.43L429.85 70.30ZM429.85 68.55L426.99 68.55L426.99 61.96L427.87 61.96L427.87 67.67L429.85 67.67L429.85 68.55ZM429.85 68.55L429.85 67.67L436.45 67.67L436.45 68.55L429.85 68.55ZM429.85 70.30L429.85 69.43L436.45 69.43L436.45 70.30L429.85 70.30ZM436.45 68.55L436.45 67.67L443.04 67.67L443.04 68.55L436.45 68.55ZM436.45 70.30L436.45 69.43L443.04 69.43L443.04 70.30L436.45 70.30ZM443.04 68.55L443.04 67.67L449.64 67.67L449.64 68.55L443.04 68.55ZM443.04 70.30L443.04 69.43L449.64 69.43L449.64 70.30L443.04 70.30ZM449.64 68.55L449.64 67.67L456.24 67.67L456.24 68.55L449.64 68.55ZM449.64 70.30L449.64 69.43L456.24 69.43L456.24 70.30L449.64 70.30ZM456.24 68.55L456.24 67.67L462.84 67.67L462.84 68.55L456.24 68.55ZM456.24 70.30L456.24 69.43L462.84 69.43L462.84 70.30L456.24 70.30ZM462.84 68.55L462.84 67.67L469.43 67.67L469.43 68.55L462.84 68.55ZM462.84 70.30L462.84 69.43L469.43 69.43L469.43 70.30L462.84 70.30ZM474.05 70.30L469.43 70.30L469.43 69.43L473.17 69.43L473.17 61.96L474.05 61.96L474.05 70.30ZM472.29 61.96L472.29 68.55L469.43 68.55L469.43 67.67L471.41 67.67L471.41 61.96L472.29 61.96ZM482.63 70.30L478.01 70.30L478.01 61.96L478.89 61.96L478.89 69.43L482.63 69.43L482.63 70.30ZM482.63 68.55L479.77 68.55L479.77 61.96L480.65 61.96L480.65 67.67L482.63 67.67L482.63 68.55ZM482.63 68.55L482.63 67.67L489.23 67.67L489.23 68.55L482.63 68.55ZM482.63 70.30L482.63 69.43L489.23 69.43L489.23 70.30L482.63 70.30ZM489.23 68.55L489.23 67.67L495.82 67.67L495.82 68.55L489.23 68.55ZM489.23 70.30L489.23 69.43L495.82 69.43L495.82 70.30L489.23 70.30ZM495.82 68.55L495.82 67.67L502.42 67.67L502.42 68.55L495.82 68.55ZM495.82 70.30L495.82 69.43L502.42 69.43L502.42 70.30L495.82 70.30ZM502.42 68.55L502.42 67.67L509.02 67.67L509.02 68.55L502.42 68.55ZM502.42 70.30L502.42 69.43L509.02 69.43L509.02 70.30L502.42 70.30ZM509.02 68.55L509.02 67.67L515.62 67.67L515.62 68.55L509.02 68.55ZM509.02 70.30L509.02 69.43L515.62 69.43L515.62 70.30L509.02 70.30ZM520.23 70.30L515.62 70.30L515.62 69.43L519.36 69.43L519.36 61.96L520.23 61.96L520.23 70.30ZM518.48 61.96L518.48 68.55L515.62 68.55L515.62 67.67L517.60 67.67L517.60 61.96L518.48 61.96ZM542.01 70.30L537.39 70.30L537.39 61.96L538.27 61.96L538.27 69.43L542.01 69.43L542.01 70.30ZM542.01 68.55L539.15 68.55L539.15 61.96L540.03 61.96L540.03 67.67L542.01 67.67L542.01 68.55ZM542.01 68.55L542.01 67.67L548.61 67.67L548.61 68.55L542.01 68.55ZM542.01 70.30L542.01 69.43L548.61 69.43L548.61 70.30L542.01 70.30ZM548.61 68.55L548.61 67.67L555.20 67.67L555.20 68.55L548.61 68.55ZM548.61 70.30L548.61 69.43L555.20 69.43L555.20 70.30L548.61 70.30ZM555.20 68.55L555.20 67.67L561.80 67.67L561.80 68.55L555.20 68.55ZM555.20 70.30L555.20 69.43L561.80 69.43L561.80 70.30L555.20 70.30ZM561.80 68.55L561.80 67.67L568.40 67.67L568.40 68.55L561.80 68.55ZM561.80 70.30L561.80 69.43L568.40 69.43L568.40 70.30L561.80 70.30ZM568.40 68.55L568.40 67.67L575.00 67.67L575.00 68.55L568.40 68.55ZM568.40 70.30L568.40 69.43L575.00 69.43L575.00 70.30L568.40 70.30ZM579.61 70.30L575.00 70.30L575.00 69.43L578.73 69.43L578.73 61.96L579.61 61.96L579.61 70.30ZM577.86 61.96L577.86 68.55L575.00 68.55L575.00 67.67L576.98 67.67L576.98 61.96L577.86 61.96ZM601.39 70.30L596.77 70.30L596.77 61.96L597.65 61.96L597.65 69.43L601.39 69.43L601.39 70.30ZM601.39 68.55L598.53 68.55L598.53 61.96L599.41 61.96L599.41 67.67L601.39 67.67L601.39 68.55ZM601.39 68.55L601.39 67.67L607.98 67.67L607.98 68.55L601.39 68.55ZM601.39 70.30L601.39 69.43L607.98 69.43L607.98 70.30L601.39 70.30ZM607.98 68.55L607.98 67.67L614.58 67.67L614.58 68.55L607.98 68.55ZM607.98 70.30L607.98 69.43L614.58 69.43L614.58 70.30L607.98 70.30ZM614.58 68.55L614.58 67.67L621.18 67.67L621.18 68.55L614.58 68.55ZM614.58 70.30L614.58 69.43L621.18 69.43L621.18 70.30L614.58 70.30ZM621.18 68.55L621.18 67.67L627.78 67.67L627.78 68.55L621.18 68.55ZM621.18 70.30L621.18 69.43L627.78 69.43L627.78 70.30L621.18 70.30ZM627.78 68.55L627.78 67.67L634.38 67.67L634.38 68.55L627.78 68.55ZM627.78 70.30L627.78 69.43L634.38 69.43L634.38 70.30L627.78 70.30ZM638.99 70.30L634.38 70.30L634.38 69.43L638.11 69.43L638.11 61.96L638.99 61.96L638.99 70.30ZM637.23 61.96L637.23 68.55L634.38 68.55L634.38 67.67L636.36 67.67L636.36 61.96L637.23 61.96ZM660.77 70.30L656.15 70.30L656.15 61.96L657.03 61.96L657.03 69.43L660.77 69.43L660.77 70.30ZM660.77 68.55L657.91 68.55L657.91 61.96L658.79 61.96L658.79 67.67L660.77 67.67L660.77 68.55ZM660.77 68.55L660.77 67.67L667.36 67.67L667.36 68.55L660.77 68.55ZM660.77 70.30L660.77 69.43L667.36 69.43L667.36 70.30L660.77 70.30ZM667.36 68.55L667.36 67.67L673.96 67.67L673.96 68.55L667.36 68.55ZM667.36 70.30L667.36 69.43L673.96 69.43L673.96 70.30L667.36 70.30ZM673.96 68.55L673.96 67.67L680.56 67.67L680.56 68.55L673.96 68.55ZM673.96 70.30L673.96 69.43L680.56 69.43L680.56 70.30L673.96 70.30ZM680.56 68.55L680.56 67.67L687.16 67.67L687.16 68.55L680.56 68.55ZM680.56 70.30L680.56 69.43L687.16 69.43L687.16 70.30L680.56 70.30ZM687.16 68.55L687.16 67.67L693.75 67.67L693.75 68.55L687.16 68.55ZM687.16 70.30L687.16 69.43L693.75 69.43L693.75 70.30L687.16 70.30ZM698.37 70.30L693.75 70.30L693.75 69.43L697.49 69.43L697.49 61.96L698.37 61.96L698.37 70.30ZM696.61 61.96L696.61 68.55L693.75 68.55L693.75 67.67L695.73 67.67L695.73 61.96L696.61 61.96ZM713.55 70.30L708.93 70.30L708.93 61.96L709.81 61.96L709.81 69.43L713.55 69.43L713.55 70.30ZM713.55 68.55L710.69 68.55L710.69 61.96L711.57 61.96L711.57 67.67L713.55 67.67L713.55 68.55ZM713.55 68.55L713.55 67.67L720.14 67.67L720.14 68.55L713.55 68.55ZM713.55 70.30L713.55 69.43L720.14 69.43L720.14 70.30L713.55 70.30ZM720.14 68.55L720.14 67.67L726.74 67.67L726.74 68.55L720.14 68.55ZM720.14 70.30L720.14 69.43L726.74 69.43L726.74 70.30L720.14 70.30ZM726.74 68.55L726.74 67.67L733.34 67.67L733.34 68.55L726.74 68.55ZM726.74 70.30L726.74 69.43L733.34 69.43L733.34 70.30L726.74 70.30ZM733.34 68.55L733.34 67.67L739.94 67.67L739.94 68.55L733.34 68.55ZM733.34 70.30L733.34 69.43L739.94 69.43L739.94 70.30L733.34 70.30ZM739.94 68.55L739.94 67.67L746.54 67.67L746.54 68.55L739.94 68.55ZM739.94 70.30L739.94 69.43L746.54 69.43L746.54 70.30L739.94 70.30ZM746.54 68.55L746.54 67.67L753.13 67.67L753.13 68.55L746.54 68.55ZM746.54 70.30L746.54 69.43L753.13 69.43L753.13 70.30L746.54 70.30ZM757.75 70.30L753.13 70.30L753.13 69.43L756.87 69.43L756.87 61.96L757.75 61.96L757.75 70.30ZM755.99 61.96L755.99 68.55L753.13 68.55L753.13 67.67L755.11 67.67L755.11 61.96L755.99 61.96ZM766.33 70.30L761.71 70.30L761.71 61.96L762.59 61.96L762.59 69.43L766.33 69.43L766.33 70.30ZM766.33 68.55L763.47 68.55L763.47 61.96L764.35 61.96L764.35 67.67L766.33 67.67L766.33 68.55ZM766.33 68.55L766.33 67.67L772.93 67.67L772.93 68.55L766.33 68.55ZM766.33 70.30L766.33 69.43L772.93 69.43L772.93 70.30L766.33 70.30ZM777.54 70.30L772.93 70.30L772.93 69.43L776.66 69.43L776.66 61.96L777.54 61.96L777.54 70.30ZM775.79 61.96L775.79 68.55L772.93 68.55L772.93 67.67L774.91 67.67L774.91 61.96L775.79 61.96ZM799.32 70.30L794.70 70.30L794.70 61.96L795.58 61.96L795.58 69.43L799.32 69.43L799.32 70.30ZM799.32 68.55L796.46 68.55L796.46 61.96L797.34 61.96L797.34 67.67L799.32 67.67L799.32 68.55ZM799.32 68.55L799.32 67.67L805.91 67.67L805.91 68.55L799.32 68.55ZM799.32 70.30L799.32 69.43L805.91 69.43L805.91 70.30L799.32 70.30ZM810.53 70.30L805.91 70.30L805.91 69.43L809.65 69.43L809.65 61.96L810.53 61.96L810.53 70.30ZM808.77 61.96L808.77 68.55L805.91 68.55L805.91 67.67L807.89 67.67L807.89 61.96L808.77 61.96Z" class="ascii-path" />
</svg>