<svg width="677" height="62" viewBox="0 0 677 62" xmlns="http://www.w3.org/2000/svg">
  <style>
    .ascii-path {
      fill: #6dcf43;
    }
  </style>
  <path d="M6.50 13.51L1 13.51L1 1.80L6.50 1.80L6.50 13.51ZM12.00 13.51L6.50 13.51L6.50 1.80L12.00 1.80L12.00 13.51ZM12.00 6.56L15.84 6.56L15.84 13.51L15.11 13.51L15.11 7.29L12.00 7.29L12.00 6.56ZM12.00 8.02L14.38 8.02L14.38 13.51L13.65 13.51L13.65 8.75L12.00 8.75L12.00 8.02ZM55.98 13.51L50.48 13.51L50.48 1.80L55.98 1.80L55.98 13.51ZM61.48 13.51L55.98 13.51L55.98 1.80L61.48 1.80L61.48 13.51ZM66.98 13.51L61.48 13.51L61.48 1.80L66.98 1.80L66.98 13.51ZM72.47 13.51L66.98 13.51L66.98 1.80L72.47 1.80L72.47 13.51ZM77.97 13.51L72.47 13.51L72.47 1.80L77.97 1.80L77.97 13.51ZM83.47 13.51L77.97 13.51L77.97 1.80L83.47 1.80L83.47 13.51ZM83.47 6.56L87.32 6.56L87.32 13.51L86.59 13.51L86.59 7.29L83.47 7.29L83.47 6.56ZM83.47 8.02L85.85 8.02L85.85 13.51L85.12 13.51L85.12 8.75L83.47 8.75L83.47 8.02ZM99.96 13.51L94.47 13.51L94.47 1.80L99.96 1.80L99.96 13.51ZM105.46 13.51L99.96 13.51L99.96 1.80L105.46 1.80L105.46 13.51ZM105.46 6.56L109.31 6.56L109.31 13.51L108.58 13.51L108.58 7.29L105.46 7.29L105.46 6.56ZM105.46 8.02L107.85 8.02L107.85 13.51L107.11 13.51L107.11 8.75L105.46 8.75L105.46 8.02ZM149.45 13.51L143.95 13.51L143.95 1.80L149.45 1.80L149.45 13.51ZM154.95 13.51L149.45 13.51L149.45 1.80L154.95 1.80L154.95 13.51ZM160.44 13.51L154.95 13.51L154.95 1.80L160.44 1.80L160.44 13.51ZM165.94 13.51L160.44 13.51L160.44 1.80L165.94 1.80L165.94 13.51ZM171.44 13.51L165.94 13.51L165.94 1.80L171.44 1.80L171.44 13.51ZM171.44 6.56L175.29 6.56L175.29 13.51L174.55 13.51L174.55 7.29L171.44 7.29L171.44 6.56ZM171.44 8.02L173.82 8.02L173.82 13.51L173.09 13.51L173.09 8.75L171.44 8.75L171.44 8.02ZM187.93 13.51L182.44 13.51L182.44 1.80L187.93 1.80L187.93 13.51ZM193.43 13.51L187.93 13.51L187.93 1.80L193.43 1.80L193.43 13.51ZM198.93 13.51L193.43 13.51L193.43 1.80L198.93 1.80L198.93 13.51ZM198.93 6.56L202.78 6.56L202.78 13.51L202.04 13.51L202.04 7.29L198.93 7.29L198.93 6.56ZM198.93 8.02L201.31 8.02L201.31 13.51L200.58 13.51L200.58 8.75L198.93 8.75L198.93 8.02ZM226.42 13.51L220.92 13.51L220.92 1.80L226.42 1.80L226.42 13.51ZM231.92 13.51L226.42 13.51L226.42 1.80L231.92 1.80L231.92 13.51ZM231.92 6.56L235.77 6.56L235.77 13.51L235.03 13.51L235.03 7.29L231.92 7.29L231.92 6.56ZM231.92 8.02L234.30 8.02L234.30 13.51L233.57 13.51L233.57 8.75L231.92 8.75L231.92 8.02ZM242.91 13.51L237.42 13.51L237.42 1.80L242.91 1.80L242.91 13.51ZM248.41 13.51L242.91 13.51L242.91 1.80L248.41 1.80L248.41 13.51ZM253.91 13.51L248.41 13.51L248.41 1.80L253.91 1.80L253.91 13.51ZM259.41 13.51L253.91 13.51L253.91 1.80L259.41 1.80L259.41 13.51ZM264.91 13.51L259.41 13.51L259.41 1.80L264.91 1.80L264.91 13.51ZM270.40 13.51L264.91 13.51L264.91 1.80L270.40 1.80L270.40 13.51ZM275.90 13.51L270.40 13.51L270.40 1.80L275.90 1.80L275.90 13.51ZM281.40 13.51L275.90 13.51L275.90 1.80L281.40 1.80L281.40 13.51ZM281.40 6.56L285.25 6.56L285.25 13.51L284.52 13.51L284.52 7.29L281.40 7.29L281.40 6.56ZM281.40 8.02L283.78 8.02L283.78 13.51L283.05 13.51L283.05 8.75L281.40 8.75L281.40 8.02ZM314.39 13.51L308.89 13.51L308.89 1.80L314.39 1.80L314.39 13.51ZM319.89 13.51L314.39 13.51L314.39 1.80L319.89 1.80L319.89 13.51ZM325.38 13.51L319.89 13.51L319.89 1.80L325.38 1.80L325.38 13.51ZM330.88 13.51L325.38 13.51L325.38 1.80L330.88 1.80L330.88 13.51ZM336.38 13.51L330.88 13.51L330.88 1.80L336.38 1.80L336.38 13.51ZM341.88 13.51L336.38 13.51L336.38 1.80L341.88 1.80L341.88 13.51ZM341.88 6.56L345.73 6.56L345.73 13.51L344.99 13.51L344.99 7.29L341.88 7.29L341.88 6.56ZM341.88 8.02L344.26 8.02L344.26 13.51L343.53 13.51L343.53 8.75L341.88 8.75L341.88 8.02ZM358.37 13.51L352.88 13.51L352.88 1.80L358.37 1.80L358.37 13.51ZM363.87 13.51L358.37 13.51L358.37 1.80L363.87 1.80L363.87 13.51ZM369.37 13.51L363.87 13.51L363.87 1.80L369.37 1.80L369.37 13.51ZM374.87 13.51L369.37 13.51L369.37 1.80L374.87 1.80L374.87 13.51ZM380.37 13.51L374.87 13.51L374.87 1.80L380.37 1.80L380.37 13.51ZM385.86 13.51L380.37 13.51L380.37 1.80L385.86 1.80L385.86 13.51ZM391.36 13.51L385.86 13.51L385.86 1.80L391.36 1.80L391.36 13.51ZM391.36 6.56L395.21 6.56L395.21 13.51L394.48 13.51L394.48 7.29L391.36 7.29L391.36 6.56ZM391.36 8.02L393.74 8.02L393.74 13.51L393.01 13.51L393.01 8.75L391.36 8.75L391.36 8.02ZM402.36 13.51L396.86 13.51L396.86 1.80L402.36 1.80L402.36 13.51ZM407.86 13.51L402.36 13.51L402.36 1.80L407.86 1.80L407.86 13.51ZM413.35 13.51L407.86 13.51L407.86 1.80L413.35 1.80L413.35 13.51ZM418.85 13.51L413.35 13.51L413.35 1.80L418.85 1.80L418.85 13.51ZM424.35 13.51L418.85 13.51L418.85 1.80L424.35 1.80L424.35 13.51ZM429.85 13.51L424.35 13.51L424.35 1.80L429.85 1.80L429.85 13.51ZM429.85 6.56L433.70 6.56L433.70 13.51L432.96 13.51L432.96 7.29L429.85 7.29L429.85 6.56ZM429.85 8.02L432.23 8.02L432.23 13.51L431.50 13.51L431.50 8.75L429.85 8.75L429.85 8.02ZM446.34 13.51L440.84 13.51L440.84 1.80L446.34 1.80L446.34 13.51ZM451.84 13.51L446.34 13.51L446.34 1.80L451.84 1.80L451.84 13.51ZM451.84 6.56L455.69 6.56L455.69 13.51L454.96 13.51L454.96 7.29L451.84 7.29L451.84 6.56ZM451.84 8.02L454.22 8.02L454.22 13.51L453.49 13.51L453.49 8.75L451.84 8.75L451.84 8.02ZM479.33 13.51L473.83 13.51L473.83 1.80L479.33 1.80L479.33 13.51ZM484.83 13.51L479.33 13.51L479.33 1.80L484.83 1.80L484.83 13.51ZM484.83 6.56L488.68 6.56L488.68 13.51L487.94 13.51L487.94 7.29L484.83 7.29L484.83 6.56ZM484.83 8.02L487.21 8.02L487.21 13.51L486.48 13.51L486.48 8.75L484.83 8.75L484.83 8.02ZM501.32 13.51L495.82 13.51L495.82 1.80L501.32 1.80L501.32 13.51ZM506.82 13.51L501.32 13.51L501.32 1.80L506.82 1.80L506.82 13.51ZM512.32 13.51L506.82 13.51L506.82 1.80L512.32 1.80L512.32 13.51ZM517.82 13.51L512.32 13.51L512.32 1.80L517.82 1.80L517.82 13.51ZM523.31 13.51L517.82 13.51L517.82 1.80L523.31 1.80L523.31 13.51ZM528.81 13.51L523.31 13.51L523.31 1.80L528.81 1.80L528.81 13.51ZM528.81 6.56L532.66 6.56L532.66 13.51L531.93 13.51L531.93 7.29L528.81 7.29L528.81 6.56ZM528.81 8.02L531.20 8.02L531.20 13.51L530.46 13.51L530.46 8.75L528.81 8.75L528.81 8.02ZM550.80 13.51L545.31 13.51L545.31 1.80L550.80 1.80L550.80 13.51ZM556.30 13.51L550.80 13.51L550.80 1.80L556.30 1.80L556.30 13.51ZM561.80 13.51L556.30 13.51L556.30 1.80L561.80 1.80L561.80 13.51ZM567.30 13.51L561.80 13.51L561.80 1.80L567.30 1.80L567.30 13.51ZM572.80 13.51L567.30 13.51L567.30 1.80L572.80 1.80L572.80 13.51ZM578.29 13.51L572.80 13.51L572.80 1.80L578.29 1.80L578.29 13.51ZM578.29 6.56L582.14 6.56L582.14 13.51L581.41 13.51L581.41 7.29L578.29 7.29L578.29 6.56ZM578.29 8.02L580.68 8.02L580.68 13.51L579.95 13.51L579.95 8.75L578.29 8.75L578.29 8.02ZM594.79 13.51L589.29 13.51L589.29 1.80L594.79 1.80L594.79 13.51ZM600.29 13.51L594.79 13.51L594.79 1.80L600.29 1.80L600.29 13.51ZM605.79 13.51L600.29 13.51L600.29 1.80L605.79 1.80L605.79 13.51ZM611.28 13.51L605.79 13.51L605.79 1.80L611.28 1.80L611.28 13.51ZM616.78 13.51L611.28 13.51L611.28 1.80L616.78 1.80L616.78 13.51ZM622.28 13.51L616.78 13.51L616.78 1.80L622.28 1.80L622.28 13.51ZM627.78 13.51L622.28 13.51L622.28 1.80L627.78 1.80L627.78 13.51ZM627.78 6.56L631.63 6.56L631.63 13.51L630.89 13.51L630.89 7.29L627.78 7.29L627.78 6.56ZM627.78 8.02L630.16 8.02L630.16 13.51L629.43 13.51L629.43 8.75L627.78 8.75L627.78 8.02ZM638.77 13.51L633.28 13.51L633.28 1.80L638.77 1.80L638.77 13.51ZM644.27 13.51L638.77 13.51L638.77 1.80L644.27 1.80L644.27 13.51ZM649.77 13.51L644.27 13.51L644.27 1.80L649.77 1.80L649.77 13.51ZM655.27 13.51L649.77 13.51L649.77 1.80L655.27 1.80L655.27 13.51ZM660.77 13.51L655.27 13.51L655.27 1.80L660.77 1.80L660.77 13.51ZM666.26 13.51L660.77 13.51L660.77 1.80L666.26 1.80L666.26 13.51ZM666.26 6.56L670.11 6.56L670.11 13.51L669.38 13.51L669.38 7.29L666.26 7.29L666.26 6.56ZM666.26 8.02L668.65 8.02L668.65 13.51L667.91 13.51L667.91 8.75L666.26 8.75L666.26 8.02Z" class="ascii-path" />
  <path d="M6.50 18.75L2.65 18.75L2.65 11.80L3.38 11.80L3.38 18.02L6.50 18.02L6.50 18.75ZM6.50 17.29L4.12 17.29L4.12 11.80L4.85 11.80L4.85 16.56L6.50 16.56L6.50 17.29ZM12.00 23.51L6.50 23.51L6.50 11.80L12.00 11.80L12.00 23.51ZM17.49 23.51L12.00 23.51L12.00 11.80L17.49 11.80L17.49 23.51ZM17.49 16.56L21.34 16.56L21.34 23.51L20.61 23.51L20.61 17.29L17.49 17.29L17.49 16.56ZM17.49 18.02L19.88 18.02L19.88 23.51L19.14 23.51L19.14 18.75L17.49 18.75L17.49 18.02ZM55.98 23.51L50.48 23.51L50.48 11.80L55.98 11.80L55.98 23.51ZM61.48 23.51L55.98 23.51L55.98 11.80L61.48 11.80L61.48 23.51ZM63.13 16.56L66.98 16.56L66.98 17.29L63.86 17.29L63.86 23.51L63.13 23.51L63.13 16.56ZM64.59 23.51L64.59 18.02L66.98 18.02L66.98 18.75L65.33 18.75L65.33 23.51L64.59 23.51ZM66.98 17.29L66.98 16.56L72.47 16.56L72.47 17.29L66.98 17.29ZM66.98 18.75L66.98 18.02L72.47 18.02L72.47 18.75L66.98 18.75ZM72.47 17.29L72.47 16.56L77.97 16.56L77.97 17.29L72.47 17.29ZM72.47 18.75L72.47 18.02L77.97 18.02L77.97 18.75L72.47 18.75ZM83.47 23.51L77.97 23.51L77.97 11.80L83.47 11.80L83.47 23.51ZM88.97 23.51L83.47 23.51L83.47 11.80L88.97 11.80L88.97 23.51ZM88.97 16.56L92.82 16.56L92.82 23.51L92.08 23.51L92.08 17.29L88.97 17.29L88.97 16.56ZM88.97 18.02L91.35 18.02L91.35 23.51L90.62 23.51L90.62 18.75L88.97 18.75L88.97 18.02ZM99.96 23.51L94.47 23.51L94.47 11.80L99.96 11.80L99.96 23.51ZM105.46 23.51L99.96 23.51L99.96 11.80L105.46 11.80L105.46 23.51ZM107.11 23.51L107.11 11.80L107.85 11.80L107.85 23.51L107.11 23.51ZM109.31 23.51L108.58 23.51L108.58 11.80L109.31 11.80L109.31 23.51ZM143.95 23.51L138.45 23.51L138.45 11.80L143.95 11.80L143.95 23.51ZM149.45 23.51L143.95 23.51L143.95 11.80L149.45 11.80L149.45 23.51ZM151.10 16.56L154.95 16.56L154.95 17.29L151.83 17.29L151.83 23.51L151.10 23.51L151.10 16.56ZM152.56 23.51L152.56 18.02L154.95 18.02L154.95 18.75L153.29 18.75L153.29 23.51L152.56 23.51ZM154.95 17.29L154.95 16.56L160.44 16.56L160.44 17.29L154.95 17.29ZM154.95 18.75L154.95 18.02L160.44 18.02L160.44 18.75L154.95 18.75ZM160.44 17.29L160.44 16.56L165.94 16.56L165.94 17.29L160.44 17.29ZM160.44 18.75L160.44 18.02L165.94 18.02L165.94 18.75L160.44 18.75ZM171.44 23.51L165.94 23.51L165.94 11.80L171.44 11.80L171.44 23.51ZM176.94 23.51L171.44 23.51L171.44 11.80L176.94 11.80L176.94 23.51ZM176.94 16.56L180.79 16.56L180.79 23.51L180.05 23.51L180.05 17.29L176.94 17.29L176.94 16.56ZM176.94 18.02L179.32 18.02L179.32 23.51L178.59 23.51L178.59 18.75L176.94 18.75L176.94 18.02ZM187.93 23.51L182.44 23.51L182.44 11.80L187.93 11.80L187.93 23.51ZM193.43 23.51L187.93 23.51L187.93 11.80L193.43 11.80L193.43 23.51ZM198.93 23.51L193.43 23.51L193.43 11.80L198.93 11.80L198.93 23.51ZM204.43 23.51L198.93 23.51L198.93 11.80L204.43 11.80L204.43 23.51ZM204.43 16.56L208.28 16.56L208.28 23.51L207.54 23.51L207.54 17.29L204.43 17.29L204.43 16.56ZM204.43 18.02L206.81 18.02L206.81 23.51L206.08 23.51L206.08 18.75L204.43 18.75L204.43 18.02ZM226.42 23.51L220.92 23.51L220.92 11.80L226.42 11.80L226.42 23.51ZM231.92 23.51L226.42 23.51L226.42 11.80L231.92 11.80L231.92 23.51ZM233.57 23.51L233.57 11.80L234.30 11.80L234.30 23.51L233.57 23.51ZM235.77 23.51L235.03 23.51L235.03 11.80L235.77 11.80L235.77 23.51ZM242.91 18.75L239.07 18.75L239.07 11.80L239.80 11.80L239.80 18.02L242.91 18.02L242.91 18.75ZM242.91 17.29L240.53 17.29L240.53 11.80L241.26 11.80L241.26 16.56L242.91 16.56L242.91 17.29ZM242.91 17.29L242.91 16.56L248.41 16.56L248.41 17.29L242.91 17.29ZM242.91 18.75L242.91 18.02L248.41 18.02L248.41 18.75L242.91 18.75ZM248.41 17.29L248.41 16.56L253.91 16.56L253.91 17.29L248.41 17.29ZM248.41 18.75L248.41 18.02L253.91 18.02L253.91 18.75L248.41 18.75ZM259.41 23.51L253.91 23.51L253.91 11.80L259.41 11.80L259.41 23.51ZM264.91 23.51L259.41 23.51L259.41 11.80L264.91 11.80L264.91 23.51ZM266.56 16.56L270.40 16.56L270.40 17.29L267.29 17.29L267.29 23.51L266.56 23.51L266.56 16.56ZM268.02 23.51L268.02 18.02L270.40 18.02L270.40 18.75L268.75 18.75L268.75 23.51L268.02 23.51ZM270.40 17.29L270.40 16.56L275.90 16.56L275.90 17.29L270.40 17.29ZM270.40 18.75L270.40 18.02L275.90 18.02L275.90 18.75L270.40 18.75ZM275.90 17.29L275.90 16.56L281.40 16.56L281.40 17.29L275.90 17.29ZM275.90 18.75L275.90 18.02L281.40 18.02L281.40 18.75L275.90 18.75ZM285.25 18.75L281.40 18.75L281.40 18.02L284.52 18.02L284.52 11.80L285.25 11.80L285.25 18.75ZM283.78 11.80L283.78 17.29L281.40 17.29L281.40 16.56L283.05 16.56L283.05 11.80L283.78 11.80ZM314.39 23.51L308.89 23.51L308.89 11.80L314.39 11.80L314.39 23.51ZM319.89 23.51L314.39 23.51L314.39 11.80L319.89 11.80L319.89 23.51ZM321.54 16.56L325.38 16.56L325.38 17.29L322.27 17.29L322.27 23.51L321.54 23.51L321.54 16.56ZM323.00 23.51L323.00 18.02L325.38 18.02L325.38 18.75L323.73 18.75L323.73 23.51L323.00 23.51ZM325.38 17.29L325.38 16.56L330.88 16.56L330.88 17.29L325.38 17.29ZM325.38 18.75L325.38 18.02L330.88 18.02L330.88 18.75L325.38 18.75ZM330.88 17.29L330.88 16.56L336.38 16.56L336.38 17.29L330.88 17.29ZM330.88 18.75L330.88 18.02L336.38 18.02L336.38 18.75L330.88 18.75ZM341.88 23.51L336.38 23.51L336.38 11.80L341.88 11.80L341.88 23.51ZM347.38 23.51L341.88 23.51L341.88 11.80L347.38 11.80L347.38 23.51ZM347.38 16.56L351.22 16.56L351.22 23.51L350.49 23.51L350.49 17.29L347.38 17.29L347.38 16.56ZM347.38 18.02L349.76 18.02L349.76 23.51L349.03 23.51L349.03 18.75L347.38 18.75L347.38 18.02ZM358.37 23.51L352.88 23.51L352.88 11.80L358.37 11.80L358.37 23.51ZM363.87 23.51L358.37 23.51L358.37 11.80L363.87 11.80L363.87 23.51ZM365.52 16.56L369.37 16.56L369.37 17.29L366.25 17.29L366.25 23.51L365.52 23.51L365.52 16.56ZM366.99 23.51L366.99 18.02L369.37 18.02L369.37 18.75L367.72 18.75L367.72 23.51L366.99 23.51ZM369.37 17.29L369.37 16.56L374.87 16.56L374.87 17.29L369.37 17.29ZM369.37 18.75L369.37 18.02L374.87 18.02L374.87 18.75L369.37 18.75ZM374.87 17.29L374.87 16.56L380.37 16.56L380.37 17.29L374.87 17.29ZM374.87 18.75L374.87 18.02L380.37 18.02L380.37 18.75L374.87 18.75ZM380.37 17.29L380.37 16.56L385.86 16.56L385.86 17.29L380.37 17.29ZM380.37 18.75L380.37 18.02L385.86 18.02L385.86 18.75L380.37 18.75ZM385.86 17.29L385.86 16.56L391.36 16.56L391.36 17.29L385.86 17.29ZM385.86 18.75L385.86 18.02L391.36 18.02L391.36 18.75L385.86 18.75ZM395.21 18.75L391.36 18.75L391.36 18.02L394.48 18.02L394.48 11.80L395.21 11.80L395.21 18.75ZM393.74 11.80L393.74 17.29L391.36 17.29L391.36 16.56L393.01 16.56L393.01 11.80L393.74 11.80ZM402.36 23.51L396.86 23.51L396.86 11.80L402.36 11.80L402.36 23.51ZM407.86 23.51L402.36 23.51L402.36 11.80L407.86 11.80L407.86 23.51ZM409.51 16.56L413.35 16.56L413.35 17.29L410.24 17.29L410.24 23.51L409.51 23.51L409.51 16.56ZM410.97 23.51L410.97 18.02L413.35 18.02L413.35 18.75L411.70 18.75L411.70 23.51L410.97 23.51ZM413.35 17.29L413.35 16.56L418.85 16.56L418.85 17.29L413.35 17.29ZM413.35 18.75L413.35 18.02L418.85 18.02L418.85 18.75L413.35 18.75ZM418.85 17.29L418.85 16.56L424.35 16.56L424.35 17.29L418.85 17.29ZM418.85 18.75L418.85 18.02L424.35 18.02L424.35 18.75L418.85 18.75ZM429.85 23.51L424.35 23.51L424.35 11.80L429.85 11.80L429.85 23.51ZM435.35 23.51L429.85 23.51L429.85 11.80L435.35 11.80L435.35 23.51ZM435.35 16.56L439.19 16.56L439.19 23.51L438.46 23.51L438.46 17.29L435.35 17.29L435.35 16.56ZM435.35 18.02L437.73 18.02L437.73 23.51L437.00 23.51L437.00 18.75L435.35 18.75L435.35 18.02ZM446.34 23.51L440.84 23.51L440.84 11.80L446.34 11.80L446.34 23.51ZM451.84 23.51L446.34 23.51L446.34 11.80L451.84 11.80L451.84 23.51ZM453.49 23.51L453.49 11.80L454.22 11.80L454.22 23.51L453.49 23.51ZM455.69 23.51L454.96 23.51L454.96 11.80L455.69 11.80L455.69 23.51ZM479.33 23.51L473.83 23.51L473.83 11.80L479.33 11.80L479.33 23.51ZM484.83 23.51L479.33 23.51L479.33 11.80L484.83 11.80L484.83 23.51ZM486.48 23.51L486.48 11.80L487.21 11.80L487.21 23.51L486.48 23.51ZM488.68 23.51L487.94 23.51L487.94 11.80L488.68 11.80L488.68 23.51ZM495.82 23.51L490.33 23.51L490.33 11.80L495.82 11.80L495.82 23.51ZM501.32 23.51L495.82 23.51L495.82 11.80L501.32 11.80L501.32 23.51ZM502.97 16.56L506.82 16.56L506.82 17.29L503.71 17.29L503.71 23.51L502.97 23.51L502.97 16.56ZM504.44 23.51L504.44 18.02L506.82 18.02L506.82 18.75L505.17 18.75L505.17 23.51L504.44 23.51ZM506.82 17.29L506.82 16.56L512.32 16.56L512.32 17.29L506.82 17.29ZM506.82 18.75L506.82 18.02L512.32 18.02L512.32 18.75L506.82 18.75ZM512.32 17.29L512.32 16.56L517.82 16.56L517.82 17.29L512.32 17.29ZM512.32 18.75L512.32 18.02L517.82 18.02L517.82 18.75L512.32 18.75ZM517.82 17.29L517.82 16.56L523.31 16.56L523.31 17.29L517.82 17.29ZM517.82 18.75L517.82 18.02L523.31 18.02L523.31 18.75L517.82 18.75ZM523.31 17.29L523.31 16.56L528.81 16.56L528.81 17.29L523.31 17.29ZM523.31 18.75L523.31 18.02L528.81 18.02L528.81 18.75L523.31 18.75ZM532.66 18.75L528.81 18.75L528.81 18.02L531.93 18.02L531.93 11.80L532.66 11.80L532.66 18.75ZM531.20 11.80L531.20 17.29L528.81 17.29L528.81 16.56L530.46 16.56L530.46 11.80L531.20 11.80ZM545.31 23.51L539.81 23.51L539.81 11.80L545.31 11.80L545.31 23.51ZM550.80 23.51L545.31 23.51L545.31 11.80L550.80 11.80L550.80 23.51ZM552.46 16.56L556.30 16.56L556.30 17.29L553.19 17.29L553.19 23.51L552.46 23.51L552.46 16.56ZM553.92 23.51L553.92 18.02L556.30 18.02L556.30 18.75L554.65 18.75L554.65 23.51L553.92 23.51ZM556.30 17.29L556.30 16.56L561.80 16.56L561.80 17.29L556.30 17.29ZM556.30 18.75L556.30 18.02L561.80 18.02L561.80 18.75L556.30 18.75ZM561.80 17.29L561.80 16.56L567.30 16.56L567.30 17.29L561.80 17.29ZM561.80 18.75L561.80 18.02L567.30 18.02L567.30 18.75L561.80 18.75ZM567.30 17.29L567.30 16.56L572.80 16.56L572.80 17.29L567.30 17.29ZM567.30 18.75L567.30 18.02L572.80 18.02L572.80 18.75L567.30 18.75ZM572.80 17.29L572.80 16.56L578.29 16.56L578.29 17.29L572.80 17.29ZM572.80 18.75L572.80 18.02L578.29 18.02L578.29 18.75L572.80 18.75ZM582.14 18.75L578.29 18.75L578.29 18.02L581.41 18.02L581.41 11.80L582.14 11.80L582.14 18.75ZM580.68 11.80L580.68 17.29L578.29 17.29L578.29 16.56L579.95 16.56L579.95 11.80L580.68 11.80ZM594.79 23.51L589.29 23.51L589.29 11.80L594.79 11.80L594.79 23.51ZM600.29 23.51L594.79 23.51L594.79 11.80L600.29 11.80L600.29 23.51ZM601.94 16.56L605.79 16.56L605.79 17.29L602.67 17.29L602.67 23.51L601.94 23.51L601.94 16.56ZM603.40 23.51L603.40 18.02L605.79 18.02L605.79 18.75L604.13 18.75L604.13 23.51L603.40 23.51ZM605.79 17.29L605.79 16.56L611.28 16.56L611.28 17.29L605.79 17.29ZM605.79 18.75L605.79 18.02L611.28 18.02L611.28 18.75L605.79 18.75ZM611.28 17.29L611.28 16.56L616.78 16.56L616.78 17.29L611.28 17.29ZM611.28 18.75L611.28 18.02L616.78 18.02L616.78 18.75L611.28 18.75ZM616.78 17.29L616.78 16.56L622.28 16.56L622.28 17.29L616.78 17.29ZM616.78 18.75L616.78 18.02L622.28 18.02L622.28 18.75L616.78 18.75ZM622.28 17.29L622.28 16.56L627.78 16.56L627.78 17.29L622.28 17.29ZM622.28 18.75L622.28 18.02L627.78 18.02L627.78 18.75L622.28 18.75ZM631.63 18.75L627.78 18.75L627.78 18.02L630.89 18.02L630.89 11.80L631.63 11.80L631.63 18.75ZM630.16 11.80L630.16 17.29L627.78 17.29L627.78 16.56L629.43 16.56L629.43 11.80L630.16 11.80ZM638.77 23.51L633.28 23.51L633.28 11.80L638.77 11.80L638.77 23.51ZM644.27 23.51L638.77 23.51L638.77 11.80L644.27 11.80L644.27 23.51ZM645.92 16.56L649.77 16.56L649.77 17.29L646.65 17.29L646.65 23.51L645.92 23.51L645.92 16.56ZM647.39 23.51L647.39 18.02L649.77 18.02L649.77 18.75L648.12 18.75L648.12 23.51L647.39 23.51ZM649.77 17.29L649.77 16.56L655.27 16.56L655.27 17.29L649.77 17.29ZM649.77 18.75L649.77 18.02L655.27 18.02L655.27 18.75L649.77 18.75ZM655.27 17.29L655.27 16.56L660.77 16.56L660.77 17.29L655.27 17.29ZM655.27 18.75L655.27 18.02L660.77 18.02L660.77 18.75L655.27 18.75ZM666.26 23.51L660.77 23.51L660.77 11.80L666.26 11.80L666.26 23.51ZM671.76 23.51L666.26 23.51L666.26 11.80L671.76 11.80L671.76 23.51ZM671.76 16.56L675.61 16.56L675.61 23.51L674.88 23.51L674.88 17.29L671.76 17.29L671.76 16.56ZM671.76 18.02L674.14 18.02L674.14 23.51L673.41 23.51L673.41 18.75L671.76 18.75L671.76 18.02Z" class="ascii-path" />
  <path d="M12.00 28.75L8.15 28.75L8.15 21.80L8.88 21.80L8.88 28.02L12.00 28.02L12.00 28.75ZM12.00 27.29L9.61 27.29L9.61 21.80L10.35 21.80L10.35 26.56L12.00 26.56L12.00 27.29ZM17.49 33.51L12.00 33.51L12.00 21.80L17.49 21.80L17.49 33.51ZM22.99 33.51L17.49 33.51L17.49 21.80L22.99 21.80L22.99 33.51ZM22.99 26.56L26.84 26.56L26.84 33.51L26.11 33.51L26.11 27.29L22.99 27.29L22.99 26.56ZM22.99 28.02L25.38 28.02L25.38 33.51L24.64 33.51L24.64 28.75L22.99 28.75L22.99 28.02ZM55.98 33.51L50.48 33.51L50.48 21.80L55.98 21.80L55.98 33.51ZM61.48 33.51L55.98 33.51L55.98 21.80L61.48 21.80L61.48 33.51ZM66.98 33.51L61.48 33.51L61.48 21.80L66.98 21.80L66.98 33.51ZM72.47 33.51L66.98 33.51L66.98 21.80L72.47 21.80L72.47 33.51ZM77.97 33.51L72.47 33.51L72.47 21.80L77.97 21.80L77.97 33.51ZM83.47 33.51L77.97 33.51L77.97 21.80L83.47 21.80L83.47 33.51ZM85.12 26.56L88.97 26.56L88.97 27.29L85.85 27.29L85.85 33.51L85.12 33.51L85.12 26.56ZM86.59 33.51L86.59 28.02L88.97 28.02L88.97 28.75L87.32 28.75L87.32 33.51L86.59 33.51ZM92.82 28.75L88.97 28.75L88.97 28.02L92.08 28.02L92.08 21.80L92.82 21.80L92.82 28.75ZM91.35 21.80L91.35 27.29L88.97 27.29L88.97 26.56L90.62 26.56L90.62 21.80L91.35 21.80ZM99.96 33.51L94.47 33.51L94.47 21.80L99.96 21.80L99.96 33.51ZM105.46 33.51L99.96 33.51L99.96 21.80L105.46 21.80L105.46 33.51ZM107.11 33.51L107.11 21.80L107.85 21.80L107.85 33.51L107.11 33.51ZM109.31 33.51L108.58 33.51L108.58 21.80L109.31 21.80L109.31 33.51ZM143.95 33.51L138.45 33.51L138.45 21.80L143.95 21.80L143.95 33.51ZM149.45 33.51L143.95 33.51L143.95 21.80L149.45 21.80L149.45 33.51ZM154.95 33.51L149.45 33.51L149.45 21.80L154.95 21.80L154.95 33.51ZM160.44 33.51L154.95 33.51L154.95 21.80L160.44 21.80L160.44 33.51ZM165.94 33.51L160.44 33.51L160.44 21.80L165.94 21.80L165.94 33.51ZM171.44 33.51L165.94 33.51L165.94 21.80L171.44 21.80L171.44 33.51ZM176.94 33.51L171.44 33.51L171.44 21.80L176.94 21.80L176.94 33.51ZM178.59 33.51L178.59 21.80L179.32 21.80L179.32 33.51L178.59 33.51ZM180.79 33.51L180.05 33.51L180.05 21.80L180.79 21.80L180.79 33.51ZM187.93 33.51L182.44 33.51L182.44 21.80L187.93 21.80L187.93 33.51ZM193.43 33.51L187.93 33.51L187.93 21.80L193.43 21.80L193.43 33.51ZM195.08 26.56L198.93 26.56L198.93 27.29L195.81 27.29L195.81 33.51L195.08 33.51L195.08 26.56ZM196.55 33.51L196.55 28.02L198.93 28.02L198.93 28.75L197.28 28.75L197.28 33.51L196.55 33.51ZM204.43 33.51L198.93 33.51L198.93 21.80L204.43 21.80L204.43 33.51ZM209.93 33.51L204.43 33.51L204.43 21.80L209.93 21.80L209.93 33.51ZM209.93 26.56L213.77 26.56L213.77 33.51L213.04 33.51L213.04 27.29L209.93 27.29L209.93 26.56ZM209.93 28.02L212.31 28.02L212.31 33.51L211.58 33.51L211.58 28.75L209.93 28.75L209.93 28.02ZM226.42 33.51L220.92 33.51L220.92 21.80L226.42 21.80L226.42 33.51ZM231.92 33.51L226.42 33.51L226.42 21.80L231.92 21.80L231.92 33.51ZM233.57 33.51L233.57 21.80L234.30 21.80L234.30 33.51L233.57 33.51ZM235.77 33.51L235.03 33.51L235.03 21.80L235.77 21.80L235.77 33.51ZM259.41 33.51L253.91 33.51L253.91 21.80L259.41 21.80L259.41 33.51ZM264.91 33.51L259.41 33.51L259.41 21.80L264.91 21.80L264.91 33.51ZM266.56 33.51L266.56 21.80L267.29 21.80L267.29 33.51L266.56 33.51ZM268.75 33.51L268.02 33.51L268.02 21.80L268.75 21.80L268.75 33.51ZM314.39 33.51L308.89 33.51L308.89 21.80L314.39 21.80L314.39 33.51ZM319.89 33.51L314.39 33.51L314.39 21.80L319.89 21.80L319.89 33.51ZM321.54 33.51L321.54 21.80L322.27 21.80L322.27 33.51L321.54 33.51ZM323.73 33.51L323.00 33.51L323.00 21.80L323.73 21.80L323.73 33.51ZM341.88 33.51L336.38 33.51L336.38 21.80L341.88 21.80L341.88 33.51ZM347.38 33.51L341.88 33.51L341.88 21.80L347.38 21.80L347.38 33.51ZM349.03 33.51L349.03 21.80L349.76 21.80L349.76 33.51L349.03 33.51ZM351.22 33.51L350.49 33.51L350.49 21.80L351.22 21.80L351.22 33.51ZM358.37 33.51L352.88 33.51L352.88 21.80L358.37 21.80L358.37 33.51ZM363.87 33.51L358.37 33.51L358.37 21.80L363.87 21.80L363.87 33.51ZM369.37 33.51L363.87 33.51L363.87 21.80L369.37 21.80L369.37 33.51ZM374.87 33.51L369.37 33.51L369.37 21.80L374.87 21.80L374.87 33.51ZM380.37 33.51L374.87 33.51L374.87 21.80L380.37 21.80L380.37 33.51ZM380.37 26.56L384.21 26.56L384.21 33.51L383.48 33.51L383.48 27.29L380.37 27.29L380.37 26.56ZM380.37 28.02L382.75 28.02L382.75 33.51L382.02 33.51L382.02 28.75L380.37 28.75L380.37 28.02ZM402.36 33.51L396.86 33.51L396.86 21.80L402.36 21.80L402.36 33.51ZM407.86 33.51L402.36 33.51L402.36 21.80L407.86 21.80L407.86 33.51ZM413.35 33.51L407.86 33.51L407.86 21.80L413.35 21.80L413.35 33.51ZM418.85 33.51L413.35 33.51L413.35 21.80L418.85 21.80L418.85 33.51ZM424.35 33.51L418.85 33.51L418.85 21.80L424.35 21.80L424.35 33.51ZM429.85 33.51L424.35 33.51L424.35 21.80L429.85 21.80L429.85 33.51ZM431.50 26.56L435.35 26.56L435.35 27.29L432.23 27.29L432.23 33.51L431.50 33.51L431.50 26.56ZM432.96 33.51L432.96 28.02L435.35 28.02L435.35 28.75L433.70 28.75L433.70 33.51L432.96 33.51ZM439.19 28.75L435.35 28.75L435.35 28.02L438.46 28.02L438.46 21.80L439.19 21.80L439.19 28.75ZM437.73 21.80L437.73 27.29L435.35 27.29L435.35 26.56L437.00 26.56L437.00 21.80L437.73 21.80ZM446.34 33.51L440.84 33.51L440.84 21.80L446.34 21.80L446.34 33.51ZM451.84 33.51L446.34 33.51L446.34 21.80L451.84 21.80L451.84 33.51ZM453.49 33.51L453.49 21.80L454.22 21.80L454.22 33.51L453.49 33.51ZM455.69 33.51L454.96 33.51L454.96 21.80L455.69 21.80L455.69 33.51ZM479.33 33.51L473.83 33.51L473.83 21.80L479.33 21.80L479.33 33.51ZM484.83 33.51L479.33 33.51L479.33 21.80L484.83 21.80L484.83 33.51ZM486.48 33.51L486.48 21.80L487.21 21.80L487.21 33.51L486.48 33.51ZM488.68 33.51L487.94 33.51L487.94 21.80L488.68 21.80L488.68 33.51ZM495.82 33.51L490.33 33.51L490.33 21.80L495.82 21.80L495.82 33.51ZM501.32 33.51L495.82 33.51L495.82 21.80L501.32 21.80L501.32 33.51ZM502.97 33.51L502.97 21.80L503.71 21.80L503.71 33.51L502.97 33.51ZM505.17 33.51L504.44 33.51L504.44 21.80L505.17 21.80L505.17 33.51ZM523.31 33.51L517.82 33.51L517.82 21.80L523.31 21.80L523.31 33.51ZM528.81 33.51L523.31 33.51L523.31 21.80L528.81 21.80L528.81 33.51ZM534.31 33.51L528.81 33.51L528.81 21.80L534.31 21.80L534.31 33.51ZM534.31 26.56L538.16 26.56L538.16 33.51L537.43 33.51L537.43 27.29L534.31 27.29L534.31 26.56ZM534.31 28.02L536.69 28.02L536.69 33.51L535.96 33.51L535.96 28.75L534.31 28.75L534.31 28.02ZM545.31 33.51L539.81 33.51L539.81 21.80L545.31 21.80L545.31 33.51ZM550.80 33.51L545.31 33.51L545.31 21.80L550.80 21.80L550.80 33.51ZM552.46 33.51L552.46 21.80L553.19 21.80L553.19 33.51L552.46 33.51ZM554.65 33.51L553.92 33.51L553.92 21.80L554.65 21.80L554.65 33.51ZM572.80 33.51L567.30 33.51L567.30 21.80L572.80 21.80L572.80 33.51ZM578.29 33.51L572.80 33.51L572.80 21.80L578.29 21.80L578.29 33.51ZM583.79 33.51L578.29 33.51L578.29 21.80L583.79 21.80L583.79 33.51ZM583.79 26.56L587.64 26.56L587.64 33.51L586.91 33.51L586.91 27.29L583.79 27.29L583.79 26.56ZM583.79 28.02L586.18 28.02L586.18 33.51L585.44 33.51L585.44 28.75L583.79 28.75L583.79 28.02ZM594.79 33.51L589.29 33.51L589.29 21.80L594.79 21.80L594.79 33.51ZM600.29 33.51L594.79 33.51L594.79 21.80L600.29 21.80L600.29 33.51ZM605.79 33.51L600.29 33.51L600.29 21.80L605.79 21.80L605.79 33.51ZM611.28 33.51L605.79 33.51L605.79 21.80L611.28 21.80L611.28 33.51ZM616.78 33.51L611.28 33.51L611.28 21.80L616.78 21.80L616.78 33.51ZM616.78 26.56L620.63 26.56L620.63 33.51L619.90 33.51L619.90 27.29L616.78 27.29L616.78 26.56ZM616.78 28.02L619.16 28.02L619.16 33.51L618.43 33.51L618.43 28.75L616.78 28.75L616.78 28.02ZM638.77 33.51L633.28 33.51L633.28 21.80L638.77 21.80L638.77 33.51ZM644.27 33.51L638.77 33.51L638.77 21.80L644.27 21.80L644.27 33.51ZM649.77 33.51L644.27 33.51L644.27 21.80L649.77 21.80L649.77 33.51ZM655.27 33.51L649.77 33.51L649.77 21.80L655.27 21.80L655.27 33.51ZM660.77 33.51L655.27 33.51L655.27 21.80L660.77 21.80L660.77 33.51ZM666.26 33.51L660.77 33.51L660.77 21.80L666.26 21.80L666.26 33.51ZM667.91 26.56L671.76 26.56L671.76 27.29L668.65 27.29L668.65 33.51L667.91 33.51L667.91 26.56ZM669.38 33.51L669.38 28.02L671.76 28.02L671.76 28.75L670.11 28.75L670.11 33.51L669.38 33.51ZM675.61 28.75L671.76 28.75L671.76 28.02L674.88 28.02L674.88 21.80L675.61 21.80L675.61 28.75ZM674.14 21.80L674.14 27.29L671.76 27.29L671.76 26.56L673.41 26.56L673.41 21.80L674.14 21.80Z" class="ascii-path" />
  <path d="M12.00 43.51L6.50 43.51L6.50 31.80L12.00 31.80L12.00 43.51ZM17.49 43.51L12.00 43.51L12.00 31.80L17.49 31.80L17.49 43.51ZM19.14 36.56L22.99 36.56L22.99 37.29L19.88 37.29L19.88 43.51L19.14 43.51L19.14 36.56ZM20.61 43.51L20.61 38.02L22.99 38.02L22.99 38.75L21.34 38.75L21.34 43.51L20.61 43.51ZM26.84 38.75L22.99 38.75L22.99 38.02L26.11 38.02L26.11 31.80L26.84 31.80L26.84 38.75ZM25.38 31.80L25.38 37.29L22.99 37.29L22.99 36.56L24.64 36.56L24.64 31.80L25.38 31.80ZM55.98 43.51L50.48 43.51L50.48 31.80L55.98 31.80L55.98 43.51ZM61.48 43.51L55.98 43.51L55.98 31.80L61.48 31.80L61.48 43.51ZM63.13 36.56L66.98 36.56L66.98 37.29L63.86 37.29L63.86 43.51L63.13 43.51L63.13 36.56ZM64.59 43.51L64.59 38.02L66.98 38.02L66.98 38.75L65.33 38.75L65.33 43.51L64.59 43.51ZM66.98 37.29L66.98 36.56L72.47 36.56L72.47 37.29L66.98 37.29ZM66.98 38.75L66.98 38.02L72.47 38.02L72.47 38.75L66.98 38.75ZM72.47 37.29L72.47 36.56L77.97 36.56L77.97 37.29L72.47 37.29ZM72.47 38.75L72.47 38.02L77.97 38.02L77.97 38.75L72.47 38.75ZM77.97 37.29L77.97 36.56L83.47 36.56L83.47 37.29L77.97 37.29ZM77.97 38.75L77.97 38.02L83.47 38.02L83.47 38.75L77.97 38.75ZM87.32 38.75L83.47 38.75L83.47 38.02L86.59 38.02L86.59 31.80L87.32 31.80L87.32 38.75ZM85.85 31.80L85.85 37.29L83.47 37.29L83.47 36.56L85.12 36.56L85.12 31.80L85.85 31.80ZM99.96 43.51L94.47 43.51L94.47 31.80L99.96 31.80L99.96 43.51ZM105.46 43.51L99.96 43.51L99.96 31.80L105.46 31.80L105.46 43.51ZM107.11 43.51L107.11 31.80L107.85 31.80L107.85 43.51L107.11 43.51ZM109.31 43.51L108.58 43.51L108.58 31.80L109.31 31.80L109.31 43.51ZM143.95 43.51L138.45 43.51L138.45 31.80L143.95 31.80L143.95 43.51ZM149.45 43.51L143.95 43.51L143.95 31.80L149.45 31.80L149.45 43.51ZM151.10 36.56L154.95 36.56L154.95 37.29L151.83 37.29L151.83 43.51L151.10 43.51L151.10 36.56ZM152.56 43.51L152.56 38.02L154.95 38.02L154.95 38.75L153.29 38.75L153.29 43.51L152.56 43.51ZM154.95 37.29L154.95 36.56L160.44 36.56L160.44 37.29L154.95 37.29ZM154.95 38.75L154.95 38.02L160.44 38.02L160.44 38.75L154.95 38.75ZM160.44 37.29L160.44 36.56L165.94 36.56L165.94 37.29L160.44 37.29ZM160.44 38.75L160.44 38.02L165.94 38.02L165.94 38.75L160.44 38.75ZM171.44 43.51L165.94 43.51L165.94 31.80L171.44 31.80L171.44 43.51ZM176.94 43.51L171.44 43.51L171.44 31.80L176.94 31.80L176.94 43.51ZM178.59 43.51L178.59 31.80L179.32 31.80L179.32 43.51L178.59 43.51ZM180.79 43.51L180.05 43.51L180.05 31.80L180.79 31.80L180.79 43.51ZM187.93 43.51L182.44 43.51L182.44 31.80L187.93 31.80L187.93 43.51ZM193.43 43.51L187.93 43.51L187.93 31.80L193.43 31.80L193.43 43.51ZM195.08 43.51L195.08 31.80L195.81 31.80L195.81 43.51L195.08 43.51ZM197.28 43.51L196.55 43.51L196.55 31.80L197.28 31.80L197.28 43.51ZM204.43 38.75L200.58 38.75L200.58 31.80L201.31 31.80L201.31 38.02L204.43 38.02L204.43 38.75ZM204.43 37.29L202.04 37.29L202.04 31.80L202.78 31.80L202.78 36.56L204.43 36.56L204.43 37.29ZM209.93 43.51L204.43 43.51L204.43 31.80L209.93 31.80L209.93 43.51ZM215.42 43.51L209.93 43.51L209.93 31.80L215.42 31.80L215.42 43.51ZM215.42 36.56L219.27 36.56L219.27 43.51L218.54 43.51L218.54 37.29L215.42 37.29L215.42 36.56ZM215.42 38.02L217.81 38.02L217.81 43.51L217.07 43.51L217.07 38.75L215.42 38.75L215.42 38.02ZM226.42 43.51L220.92 43.51L220.92 31.80L226.42 31.80L226.42 43.51ZM231.92 43.51L226.42 43.51L226.42 31.80L231.92 31.80L231.92 43.51ZM233.57 43.51L233.57 31.80L234.30 31.80L234.30 43.51L233.57 43.51ZM235.77 43.51L235.03 43.51L235.03 31.80L235.77 31.80L235.77 43.51ZM259.41 43.51L253.91 43.51L253.91 31.80L259.41 31.80L259.41 43.51ZM264.91 43.51L259.41 43.51L259.41 31.80L264.91 31.80L264.91 43.51ZM266.56 43.51L266.56 31.80L267.29 31.80L267.29 43.51L266.56 43.51ZM268.75 43.51L268.02 43.51L268.02 31.80L268.75 31.80L268.75 43.51ZM314.39 43.51L308.89 43.51L308.89 31.80L314.39 31.80L314.39 43.51ZM319.89 43.51L314.39 43.51L314.39 31.80L319.89 31.80L319.89 43.51ZM321.54 43.51L321.54 31.80L322.27 31.80L322.27 43.51L321.54 43.51ZM323.73 43.51L323.00 43.51L323.00 31.80L323.73 31.80L323.73 43.51ZM341.88 43.51L336.38 43.51L336.38 31.80L341.88 31.80L341.88 43.51ZM347.38 43.51L341.88 43.51L341.88 31.80L347.38 31.80L347.38 43.51ZM349.03 43.51L349.03 31.80L349.76 31.80L349.76 43.51L349.03 43.51ZM351.22 43.51L350.49 43.51L350.49 31.80L351.22 31.80L351.22 43.51ZM358.37 43.51L352.88 43.51L352.88 31.80L358.37 31.80L358.37 43.51ZM363.87 43.51L358.37 43.51L358.37 31.80L363.87 31.80L363.87 43.51ZM365.52 36.56L369.37 36.56L369.37 37.29L366.25 37.29L366.25 43.51L365.52 43.51L365.52 36.56ZM366.99 43.51L366.99 38.02L369.37 38.02L369.37 38.75L367.72 38.75L367.72 43.51L366.99 43.51ZM369.37 37.29L369.37 36.56L374.87 36.56L374.87 37.29L369.37 37.29ZM369.37 38.75L369.37 38.02L374.87 38.02L374.87 38.75L369.37 38.75ZM374.87 37.29L374.87 36.56L380.37 36.56L380.37 37.29L374.87 37.29ZM374.87 38.75L374.87 38.02L380.37 38.02L380.37 38.75L374.87 38.75ZM384.21 38.75L380.37 38.75L380.37 38.02L383.48 38.02L383.48 31.80L384.21 31.80L384.21 38.75ZM382.75 31.80L382.75 37.29L380.37 37.29L380.37 36.56L382.02 36.56L382.02 31.80L382.75 31.80ZM402.36 43.51L396.86 43.51L396.86 31.80L402.36 31.80L402.36 43.51ZM407.86 43.51L402.36 43.51L402.36 31.80L407.86 31.80L407.86 43.51ZM409.51 36.56L413.35 36.56L413.35 37.29L410.24 37.29L410.24 43.51L409.51 43.51L409.51 36.56ZM410.97 43.51L410.97 38.02L413.35 38.02L413.35 38.75L411.70 38.75L411.70 43.51L410.97 43.51ZM413.35 37.29L413.35 36.56L418.85 36.56L418.85 37.29L413.35 37.29ZM413.35 38.75L413.35 38.02L418.85 38.02L418.85 38.75L413.35 38.75ZM418.85 37.29L418.85 36.56L424.35 36.56L424.35 37.29L418.85 37.29ZM418.85 38.75L418.85 38.02L424.35 38.02L424.35 38.75L418.85 38.75ZM429.85 43.51L424.35 43.51L424.35 31.80L429.85 31.80L429.85 43.51ZM435.35 43.51L429.85 43.51L429.85 31.80L435.35 31.80L435.35 43.51ZM435.35 36.56L439.19 36.56L439.19 43.51L438.46 43.51L438.46 37.29L435.35 37.29L435.35 36.56ZM435.35 38.02L437.73 38.02L437.73 43.51L437.00 43.51L437.00 38.75L435.35 38.75L435.35 38.02ZM446.34 43.51L440.84 43.51L440.84 31.80L446.34 31.80L446.34 43.51ZM451.84 43.51L446.34 43.51L446.34 31.80L451.84 31.80L451.84 43.51ZM453.49 43.51L453.49 31.80L454.22 31.80L454.22 43.51L453.49 43.51ZM455.69 43.51L454.96 43.51L454.96 31.80L455.69 31.80L455.69 43.51ZM479.33 43.51L473.83 43.51L473.83 31.80L479.33 31.80L479.33 43.51ZM484.83 43.51L479.33 43.51L479.33 31.80L484.83 31.80L484.83 43.51ZM486.48 43.51L486.48 31.80L487.21 31.80L487.21 43.51L486.48 43.51ZM488.68 43.51L487.94 43.51L487.94 31.80L488.68 31.80L488.68 43.51ZM495.82 43.51L490.33 43.51L490.33 31.80L495.82 31.80L495.82 43.51ZM501.32 43.51L495.82 43.51L495.82 31.80L501.32 31.80L501.32 43.51ZM502.97 43.51L502.97 31.80L503.71 31.80L503.71 43.51L502.97 43.51ZM505.17 43.51L504.44 43.51L504.44 31.80L505.17 31.80L505.17 43.51ZM528.81 43.51L523.31 43.51L523.31 31.80L528.81 31.80L528.81 43.51ZM534.31 43.51L528.81 43.51L528.81 31.80L534.31 31.80L534.31 43.51ZM535.96 43.51L535.96 31.80L536.69 31.80L536.69 43.51L535.96 43.51ZM538.16 43.51L537.43 43.51L537.43 31.80L538.16 31.80L538.16 43.51ZM545.31 43.51L539.81 43.51L539.81 31.80L545.31 31.80L545.31 43.51ZM550.80 43.51L545.31 43.51L545.31 31.80L550.80 31.80L550.80 43.51ZM552.46 43.51L552.46 31.80L553.19 31.80L553.19 43.51L552.46 43.51ZM554.65 43.51L553.92 43.51L553.92 31.80L554.65 31.80L554.65 43.51ZM578.29 43.51L572.80 43.51L572.80 31.80L578.29 31.80L578.29 43.51ZM583.79 43.51L578.29 43.51L578.29 31.80L583.79 31.80L583.79 43.51ZM585.44 43.51L585.44 31.80L586.18 31.80L586.18 43.51L585.44 43.51ZM587.64 43.51L586.91 43.51L586.91 31.80L587.64 31.80L587.64 43.51ZM594.79 43.51L589.29 43.51L589.29 31.80L594.79 31.80L594.79 43.51ZM600.29 43.51L594.79 43.51L594.79 31.80L600.29 31.80L600.29 43.51ZM601.94 36.56L605.79 36.56L605.79 37.29L602.67 37.29L602.67 43.51L601.94 43.51L601.94 36.56ZM603.40 43.51L603.40 38.02L605.79 38.02L605.79 38.75L604.13 38.75L604.13 43.51L603.40 43.51ZM605.79 37.29L605.79 36.56L611.28 36.56L611.28 37.29L605.79 37.29ZM605.79 38.75L605.79 38.02L611.28 38.02L611.28 38.75L605.79 38.75ZM611.28 37.29L611.28 36.56L616.78 36.56L616.78 37.29L611.28 37.29ZM611.28 38.75L611.28 38.02L616.78 38.02L616.78 38.75L611.28 38.75ZM620.63 38.75L616.78 38.75L616.78 38.02L619.90 38.02L619.90 31.80L620.63 31.80L620.63 38.75ZM619.16 31.80L619.16 37.29L616.78 37.29L616.78 36.56L618.43 36.56L618.43 31.80L619.16 31.80ZM638.77 43.51L633.28 43.51L633.28 31.80L638.77 31.80L638.77 43.51ZM644.27 43.51L638.77 43.51L638.77 31.80L644.27 31.80L644.27 43.51ZM645.92 36.56L649.77 36.56L649.77 37.29L646.65 37.29L646.65 43.51L645.92 43.51L645.92 36.56ZM647.39 43.51L647.39 38.02L649.77 38.02L649.77 38.75L648.12 38.75L648.12 43.51L647.39 43.51ZM649.77 37.29L649.77 36.56L655.27 36.56L655.27 37.29L649.77 37.29ZM649.77 38.75L649.77 38.02L655.27 38.02L655.27 38.75L649.77 38.75ZM655.27 37.29L655.27 36.56L660.77 36.56L660.77 37.29L655.27 37.29ZM655.27 38.75L655.27 38.02L660.77 38.02L660.77 38.75L655.27 38.75ZM666.26 43.51L660.77 43.51L660.77 31.80L666.26 31.80L666.26 43.51ZM671.76 43.51L666.26 43.51L666.26 31.80L671.76 31.80L671.76 43.51ZM671.76 36.56L675.61 36.56L675.61 43.51L674.88 43.51L674.88 37.29L671.76 37.29L671.76 36.56ZM671.76 38.02L674.14 38.02L674.14 43.51L673.41 43.51L673.41 38.75L671.76 38.75L671.76 38.02Z" class="ascii-path" />
  <path d="M6.50 53.51L1 53.51L1 41.80L6.50 41.80L6.50 53.51ZM12.00 53.51L6.50 53.51L6.50 41.80L12.00 41.80L12.00 53.51ZM13.65 46.56L17.49 46.56L17.49 47.29L14.38 47.29L14.38 53.51L13.65 53.51L13.65 46.56ZM15.11 53.51L15.11 48.02L17.49 48.02L17.49 48.75L15.84 48.75L15.84 53.51L15.11 53.51ZM21.34 48.75L17.49 48.75L17.49 48.02L20.61 48.02L20.61 41.80L21.34 41.80L21.34 48.75ZM19.88 41.80L19.88 47.29L17.49 47.29L17.49 46.56L19.14 46.56L19.14 41.80L19.88 41.80ZM55.98 53.51L50.48 53.51L50.48 41.80L55.98 41.80L55.98 53.51ZM61.48 53.51L55.98 53.51L55.98 41.80L61.48 41.80L61.48 53.51ZM63.13 53.51L63.13 41.80L63.86 41.80L63.86 53.51L63.13 53.51ZM65.33 53.51L64.59 53.51L64.59 41.80L65.33 41.80L65.33 53.51ZM99.96 53.51L94.47 53.51L94.47 41.80L99.96 41.80L99.96 53.51ZM105.46 53.51L99.96 53.51L99.96 41.80L105.46 41.80L105.46 53.51ZM110.96 53.51L105.46 53.51L105.46 41.80L110.96 41.80L110.96 53.51ZM116.46 53.51L110.96 53.51L110.96 41.80L116.46 41.80L116.46 53.51ZM121.96 53.51L116.46 53.51L116.46 41.80L121.96 41.80L121.96 53.51ZM127.46 53.51L121.96 53.51L121.96 41.80L127.46 41.80L127.46 53.51ZM132.95 53.51L127.46 53.51L127.46 41.80L132.95 41.80L132.95 53.51ZM132.95 46.56L136.80 46.56L136.80 53.51L136.07 53.51L136.07 47.29L132.95 47.29L132.95 46.56ZM132.95 48.02L135.34 48.02L135.34 53.51L134.60 53.51L134.60 48.75L132.95 48.75L132.95 48.02ZM143.95 53.51L138.45 53.51L138.45 41.80L143.95 41.80L143.95 53.51ZM149.45 53.51L143.95 53.51L143.95 41.80L149.45 41.80L149.45 53.51ZM151.10 53.51L151.10 41.80L151.83 41.80L151.83 53.51L151.10 53.51ZM153.29 53.51L152.56 53.51L152.56 41.80L153.29 41.80L153.29 53.51ZM171.44 53.51L165.94 53.51L165.94 41.80L171.44 41.80L171.44 53.51ZM176.94 53.51L171.44 53.51L171.44 41.80L176.94 41.80L176.94 53.51ZM178.59 53.51L178.59 41.80L179.32 41.80L179.32 53.51L178.59 53.51ZM180.79 53.51L180.05 53.51L180.05 41.80L180.79 41.80L180.79 53.51ZM187.93 53.51L182.44 53.51L182.44 41.80L187.93 41.80L187.93 53.51ZM193.43 53.51L187.93 53.51L187.93 41.80L193.43 41.80L193.43 53.51ZM195.08 53.51L195.08 41.80L195.81 41.80L195.81 53.51L195.08 53.51ZM197.28 53.51L196.55 53.51L196.55 41.80L197.28 41.80L197.28 53.51ZM209.93 48.75L206.08 48.75L206.08 41.80L206.81 41.80L206.81 48.02L209.93 48.02L209.93 48.75ZM209.93 47.29L207.54 47.29L207.54 41.80L208.28 41.80L208.28 46.56L209.93 46.56L209.93 47.29ZM215.42 53.51L209.93 53.51L209.93 41.80L215.42 41.80L215.42 53.51ZM220.92 53.51L215.42 53.51L215.42 41.80L220.92 41.80L220.92 53.51ZM226.42 53.51L220.92 53.51L220.92 41.80L226.42 41.80L226.42 53.51ZM231.92 53.51L226.42 53.51L226.42 41.80L231.92 41.80L231.92 53.51ZM233.57 53.51L233.57 41.80L234.30 41.80L234.30 53.51L233.57 53.51ZM235.77 53.51L235.03 53.51L235.03 41.80L235.77 41.80L235.77 53.51ZM259.41 53.51L253.91 53.51L253.91 41.80L259.41 41.80L259.41 53.51ZM264.91 53.51L259.41 53.51L259.41 41.80L264.91 41.80L264.91 53.51ZM266.56 53.51L266.56 41.80L267.29 41.80L267.29 53.51L266.56 53.51ZM268.75 53.51L268.02 53.51L268.02 41.80L268.75 41.80L268.75 53.51ZM314.39 53.51L308.89 53.51L308.89 41.80L314.39 41.80L314.39 53.51ZM319.89 53.51L314.39 53.51L314.39 41.80L319.89 41.80L319.89 53.51ZM325.38 53.51L319.89 53.51L319.89 41.80L325.38 41.80L325.38 53.51ZM330.88 53.51L325.38 53.51L325.38 41.80L330.88 41.80L330.88 53.51ZM336.38 53.51L330.88 53.51L330.88 41.80L336.38 41.80L336.38 53.51ZM341.88 53.51L336.38 53.51L336.38 41.80L341.88 41.80L341.88 53.51ZM343.53 46.56L347.38 46.56L347.38 47.29L344.26 47.29L344.26 53.51L343.53 53.51L343.53 46.56ZM344.99 53.51L344.99 48.02L347.38 48.02L347.38 48.75L345.73 48.75L345.73 53.51L344.99 53.51ZM351.22 48.75L347.38 48.75L347.38 48.02L350.49 48.02L350.49 41.80L351.22 41.80L351.22 48.75ZM349.76 41.80L349.76 47.29L347.38 47.29L347.38 46.56L349.03 46.56L349.03 41.80L349.76 41.80ZM358.37 53.51L352.88 53.51L352.88 41.80L358.37 41.80L358.37 53.51ZM363.87 53.51L358.37 53.51L358.37 41.80L363.87 41.80L363.87 53.51ZM369.37 53.51L363.87 53.51L363.87 41.80L369.37 41.80L369.37 53.51ZM374.87 53.51L369.37 53.51L369.37 41.80L374.87 41.80L374.87 53.51ZM380.37 53.51L374.87 53.51L374.87 41.80L380.37 41.80L380.37 53.51ZM385.86 53.51L380.37 53.51L380.37 41.80L385.86 41.80L385.86 53.51ZM391.36 53.51L385.86 53.51L385.86 41.80L391.36 41.80L391.36 53.51ZM391.36 46.56L395.21 46.56L395.21 53.51L394.48 53.51L394.48 47.29L391.36 47.29L391.36 46.56ZM391.36 48.02L393.74 48.02L393.74 53.51L393.01 53.51L393.01 48.75L391.36 48.75L391.36 48.02ZM402.36 53.51L396.86 53.51L396.86 41.80L402.36 41.80L402.36 53.51ZM407.86 53.51L402.36 53.51L402.36 41.80L407.86 41.80L407.86 53.51ZM413.35 53.51L407.86 53.51L407.86 41.80L413.35 41.80L413.35 53.51ZM418.85 53.51L413.35 53.51L413.35 41.80L418.85 41.80L418.85 53.51ZM424.35 53.51L418.85 53.51L418.85 41.80L424.35 41.80L424.35 53.51ZM429.85 53.51L424.35 53.51L424.35 41.80L429.85 41.80L429.85 53.51ZM431.50 46.56L435.35 46.56L435.35 47.29L432.23 47.29L432.23 53.51L431.50 53.51L431.50 46.56ZM432.96 53.51L432.96 48.02L435.35 48.02L435.35 48.75L433.70 48.75L433.70 53.51L432.96 53.51ZM439.19 48.75L435.35 48.75L435.35 48.02L438.46 48.02L438.46 41.80L439.19 41.80L439.19 48.75ZM437.73 41.80L437.73 47.29L435.35 47.29L435.35 46.56L437.00 46.56L437.00 41.80L437.73 41.80ZM446.34 48.75L442.49 48.75L442.49 41.80L443.23 41.80L443.23 48.02L446.34 48.02L446.34 48.75ZM446.34 47.29L443.96 47.29L443.96 41.80L444.69 41.80L444.69 46.56L446.34 46.56L446.34 47.29ZM451.84 53.51L446.34 53.51L446.34 41.80L451.84 41.80L451.84 53.51ZM457.34 53.51L451.84 53.51L451.84 41.80L457.34 41.80L457.34 53.51ZM462.84 53.51L457.34 53.51L457.34 41.80L462.84 41.80L462.84 53.51ZM468.33 53.51L462.84 53.51L462.84 41.80L468.33 41.80L468.33 53.51ZM473.83 53.51L468.33 53.51L468.33 41.80L473.83 41.80L473.83 53.51ZM479.33 53.51L473.83 53.51L473.83 41.80L479.33 41.80L479.33 53.51ZM480.98 46.56L484.83 46.56L484.83 47.29L481.71 47.29L481.71 53.51L480.98 53.51L480.98 46.56ZM482.45 53.51L482.45 48.02L484.83 48.02L484.83 48.75L483.18 48.75L483.18 53.51L482.45 53.51ZM488.68 48.75L484.83 48.75L484.83 48.02L487.94 48.02L487.94 41.80L488.68 41.80L488.68 48.75ZM487.21 41.80L487.21 47.29L484.83 47.29L484.83 46.56L486.48 46.56L486.48 41.80L487.21 41.80ZM495.82 48.75L491.98 48.75L491.98 41.80L492.71 41.80L492.71 48.02L495.82 48.02L495.82 48.75ZM495.82 47.29L493.44 47.29L493.44 41.80L494.17 41.80L494.17 46.56L495.82 46.56L495.82 47.29ZM501.32 53.51L495.82 53.51L495.82 41.80L501.32 41.80L501.32 53.51ZM506.82 53.51L501.32 53.51L501.32 41.80L506.82 41.80L506.82 53.51ZM512.32 53.51L506.82 53.51L506.82 41.80L512.32 41.80L512.32 53.51ZM517.82 53.51L512.32 53.51L512.32 41.80L517.82 41.80L517.82 53.51ZM523.31 53.51L517.82 53.51L517.82 41.80L523.31 41.80L523.31 53.51ZM528.81 53.51L523.31 53.51L523.31 41.80L528.81 41.80L528.81 53.51ZM530.46 46.56L534.31 46.56L534.31 47.29L531.20 47.29L531.20 53.51L530.46 53.51L530.46 46.56ZM531.93 53.51L531.93 48.02L534.31 48.02L534.31 48.75L532.66 48.75L532.66 53.51L531.93 53.51ZM538.16 48.75L534.31 48.75L534.31 48.02L537.43 48.02L537.43 41.80L538.16 41.80L538.16 48.75ZM536.69 41.80L536.69 47.29L534.31 47.29L534.31 46.56L535.96 46.56L535.96 41.80L536.69 41.80ZM545.31 48.75L541.46 48.75L541.46 41.80L542.19 41.80L542.19 48.02L545.31 48.02L545.31 48.75ZM545.31 47.29L542.92 47.29L542.92 41.80L543.66 41.80L543.66 46.56L545.31 46.56L545.31 47.29ZM550.80 53.51L545.31 53.51L545.31 41.80L550.80 41.80L550.80 53.51ZM556.30 53.51L550.80 53.51L550.80 41.80L556.30 41.80L556.30 53.51ZM561.80 53.51L556.30 53.51L556.30 41.80L561.80 41.80L561.80 53.51ZM567.30 53.51L561.80 53.51L561.80 41.80L567.30 41.80L567.30 53.51ZM572.80 53.51L567.30 53.51L567.30 41.80L572.80 41.80L572.80 53.51ZM578.29 53.51L572.80 53.51L572.80 41.80L578.29 41.80L578.29 53.51ZM579.95 46.56L583.79 46.56L583.79 47.29L580.68 47.29L580.68 53.51L579.95 53.51L579.95 46.56ZM581.41 53.51L581.41 48.02L583.79 48.02L583.79 48.75L582.14 48.75L582.14 53.51L581.41 53.51ZM587.64 48.75L583.79 48.75L583.79 48.02L586.91 48.02L586.91 41.80L587.64 41.80L587.64 48.75ZM586.18 41.80L586.18 47.29L583.79 47.29L583.79 46.56L585.44 46.56L585.44 41.80L586.18 41.80ZM594.79 53.51L589.29 53.51L589.29 41.80L594.79 41.80L594.79 53.51ZM600.29 53.51L594.79 53.51L594.79 41.80L600.29 41.80L600.29 53.51ZM605.79 53.51L600.29 53.51L600.29 41.80L605.79 41.80L605.79 53.51ZM611.28 53.51L605.79 53.51L605.79 41.80L611.28 41.80L611.28 53.51ZM616.78 53.51L611.28 53.51L611.28 41.80L616.78 41.80L616.78 53.51ZM622.28 53.51L616.78 53.51L616.78 41.80L622.28 41.80L622.28 53.51ZM627.78 53.51L622.28 53.51L622.28 41.80L627.78 41.80L627.78 53.51ZM627.78 46.56L631.63 46.56L631.63 53.51L630.89 53.51L630.89 47.29L627.78 47.29L627.78 46.56ZM627.78 48.02L630.16 48.02L630.16 53.51L629.43 53.51L629.43 48.75L627.78 48.75L627.78 48.02ZM638.77 53.51L633.28 53.51L633.28 41.80L638.77 41.80L638.77 53.51ZM644.27 53.51L638.77 53.51L638.77 41.80L644.27 41.80L644.27 53.51ZM645.92 53.51L645.92 41.80L646.65 41.80L646.65 53.51L645.92 53.51ZM648.12 53.51L647.39 53.51L647.39 41.80L648.12 41.80L648.12 53.51ZM666.26 53.51L660.77 53.51L660.77 41.80L666.26 41.80L666.26 53.51ZM671.76 53.51L666.26 53.51L666.26 41.80L671.76 41.80L671.76 53.51ZM673.41 53.51L673.41 41.80L674.14 41.80L674.14 53.51L673.41 53.51ZM675.61 53.51L674.88 53.51L674.88 41.80L675.61 41.80L675.61 53.51Z" class="ascii-path" />
  <path d="M6.50 58.75L2.65 58.75L2.65 51.80L3.38 51.80L3.38 58.02L6.50 58.02L6.50 58.75ZM6.50 57.29L4.12 57.29L4.12 51.80L4.85 51.80L4.85 56.56L6.50 56.56L6.50 57.29ZM6.50 57.29L6.50 56.56L12.00 56.56L12.00 57.29L6.50 57.29ZM6.50 58.75L6.50 58.02L12.00 58.02L12.00 58.75L6.50 58.75ZM15.84 58.75L12.00 58.75L12.00 58.02L15.11 58.02L15.11 51.80L15.84 51.80L15.84 58.75ZM14.38 51.80L14.38 57.29L12.00 57.29L12.00 56.56L13.65 56.56L13.65 51.80L14.38 51.80ZM55.98 58.75L52.13 58.75L52.13 51.80L52.87 51.80L52.87 58.02L55.98 58.02L55.98 58.75ZM55.98 57.29L53.60 57.29L53.60 51.80L54.33 51.80L54.33 56.56L55.98 56.56L55.98 57.29ZM55.98 57.29L55.98 56.56L61.48 56.56L61.48 57.29L55.98 57.29ZM55.98 58.75L55.98 58.02L61.48 58.02L61.48 58.75L55.98 58.75ZM65.33 58.75L61.48 58.75L61.48 58.02L64.59 58.02L64.59 51.80L65.33 51.80L65.33 58.75ZM63.86 51.80L63.86 57.29L61.48 57.29L61.48 56.56L63.13 56.56L63.13 51.80L63.86 51.80ZM99.96 58.75L96.12 58.75L96.12 51.80L96.85 51.80L96.85 58.02L99.96 58.02L99.96 58.75ZM99.96 57.29L97.58 57.29L97.58 51.80L98.31 51.80L98.31 56.56L99.96 56.56L99.96 57.29ZM99.96 57.29L99.96 56.56L105.46 56.56L105.46 57.29L99.96 57.29ZM99.96 58.75L99.96 58.02L105.46 58.02L105.46 58.75L99.96 58.75ZM105.46 57.29L105.46 56.56L110.96 56.56L110.96 57.29L105.46 57.29ZM105.46 58.75L105.46 58.02L110.96 58.02L110.96 58.75L105.46 58.75ZM110.96 57.29L110.96 56.56L116.46 56.56L116.46 57.29L110.96 57.29ZM110.96 58.75L110.96 58.02L116.46 58.02L116.46 58.75L110.96 58.75ZM116.46 57.29L116.46 56.56L121.96 56.56L121.96 57.29L116.46 57.29ZM116.46 58.75L116.46 58.02L121.96 58.02L121.96 58.75L116.46 58.75ZM121.96 57.29L121.96 56.56L127.46 56.56L127.46 57.29L121.96 57.29ZM121.96 58.75L121.96 58.02L127.46 58.02L127.46 58.75L121.96 58.75ZM127.46 57.29L127.46 56.56L132.95 56.56L132.95 57.29L127.46 57.29ZM127.46 58.75L127.46 58.02L132.95 58.02L132.95 58.75L127.46 58.75ZM136.80 58.75L132.95 58.75L132.95 58.02L136.07 58.02L136.07 51.80L136.80 51.80L136.80 58.75ZM135.34 51.80L135.34 57.29L132.95 57.29L132.95 56.56L134.60 56.56L134.60 51.80L135.34 51.80ZM143.95 58.75L140.10 58.75L140.10 51.80L140.83 51.80L140.83 58.02L143.95 58.02L143.95 58.75ZM143.95 57.29L141.57 57.29L141.57 51.80L142.30 51.80L142.30 56.56L143.95 56.56L143.95 57.29ZM143.95 57.29L143.95 56.56L149.45 56.56L149.45 57.29L143.95 57.29ZM143.95 58.75L143.95 58.02L149.45 58.02L149.45 58.75L143.95 58.75ZM153.29 58.75L149.45 58.75L149.45 58.02L152.56 58.02L152.56 51.80L153.29 51.80L153.29 58.75ZM151.83 51.80L151.83 57.29L149.45 57.29L149.45 56.56L151.10 56.56L151.10 51.80L151.83 51.80ZM171.44 58.75L167.59 58.75L167.59 51.80L168.32 51.80L168.32 58.02L171.44 58.02L171.44 58.75ZM171.44 57.29L169.06 57.29L169.06 51.80L169.79 51.80L169.79 56.56L171.44 56.56L171.44 57.29ZM171.44 57.29L171.44 56.56L176.94 56.56L176.94 57.29L171.44 57.29ZM171.44 58.75L171.44 58.02L176.94 58.02L176.94 58.75L171.44 58.75ZM180.79 58.75L176.94 58.75L176.94 58.02L180.05 58.02L180.05 51.80L180.79 51.80L180.79 58.75ZM179.32 51.80L179.32 57.29L176.94 57.29L176.94 56.56L178.59 56.56L178.59 51.80L179.32 51.80ZM187.93 58.75L184.09 58.75L184.09 51.80L184.82 51.80L184.82 58.02L187.93 58.02L187.93 58.75ZM187.93 57.29L185.55 57.29L185.55 51.80L186.28 51.80L186.28 56.56L187.93 56.56L187.93 57.29ZM187.93 57.29L187.93 56.56L193.43 56.56L193.43 57.29L187.93 57.29ZM187.93 58.75L187.93 58.02L193.43 58.02L193.43 58.75L187.93 58.75ZM197.28 58.75L193.43 58.75L193.43 58.02L196.55 58.02L196.55 51.80L197.28 51.80L197.28 58.75ZM195.81 51.80L195.81 57.29L193.43 57.29L193.43 56.56L195.08 56.56L195.08 51.80L195.81 51.80ZM215.42 58.75L211.58 58.75L211.58 51.80L212.31 51.80L212.31 58.02L215.42 58.02L215.42 58.75ZM215.42 57.29L213.04 57.29L213.04 51.80L213.77 51.80L213.77 56.56L215.42 56.56L215.42 57.29ZM215.42 57.29L215.42 56.56L220.92 56.56L220.92 57.29L215.42 57.29ZM215.42 58.75L215.42 58.02L220.92 58.02L220.92 58.75L215.42 58.75ZM220.92 57.29L220.92 56.56L226.42 56.56L226.42 57.29L220.92 57.29ZM220.92 58.75L220.92 58.02L226.42 58.02L226.42 58.75L220.92 58.75ZM226.42 57.29L226.42 56.56L231.92 56.56L231.92 57.29L226.42 57.29ZM226.42 58.75L226.42 58.02L231.92 58.02L231.92 58.75L226.42 58.75ZM235.77 58.75L231.92 58.75L231.92 58.02L235.03 58.02L235.03 51.80L235.77 51.80L235.77 58.75ZM234.30 51.80L234.30 57.29L231.92 57.29L231.92 56.56L233.57 56.56L233.57 51.80L234.30 51.80ZM259.41 58.75L255.56 58.75L255.56 51.80L256.29 51.80L256.29 58.02L259.41 58.02L259.41 58.75ZM259.41 57.29L257.03 57.29L257.03 51.80L257.76 51.80L257.76 56.56L259.41 56.56L259.41 57.29ZM259.41 57.29L259.41 56.56L264.91 56.56L264.91 57.29L259.41 57.29ZM259.41 58.75L259.41 58.02L264.91 58.02L264.91 58.75L259.41 58.75ZM268.75 58.75L264.91 58.75L264.91 58.02L268.02 58.02L268.02 51.80L268.75 51.80L268.75 58.75ZM267.29 51.80L267.29 57.29L264.91 57.29L264.91 56.56L266.56 56.56L266.56 51.80L267.29 51.80ZM314.39 58.75L310.54 58.75L310.54 51.80L311.27 51.80L311.27 58.02L314.39 58.02L314.39 58.75ZM314.39 57.29L312.01 57.29L312.01 51.80L312.74 51.80L312.74 56.56L314.39 56.56L314.39 57.29ZM314.39 57.29L314.39 56.56L319.89 56.56L319.89 57.29L314.39 57.29ZM314.39 58.75L314.39 58.02L319.89 58.02L319.89 58.75L314.39 58.75ZM319.89 57.29L319.89 56.56L325.38 56.56L325.38 57.29L319.89 57.29ZM319.89 58.75L319.89 58.02L325.38 58.02L325.38 58.75L319.89 58.75ZM325.38 57.29L325.38 56.56L330.88 56.56L330.88 57.29L325.38 57.29ZM325.38 58.75L325.38 58.02L330.88 58.02L330.88 58.75L325.38 58.75ZM330.88 57.29L330.88 56.56L336.38 56.56L336.38 57.29L330.88 57.29ZM330.88 58.75L330.88 58.02L336.38 58.02L336.38 58.75L330.88 58.75ZM336.38 57.29L336.38 56.56L341.88 56.56L341.88 57.29L336.38 57.29ZM336.38 58.75L336.38 58.02L341.88 58.02L341.88 58.75L336.38 58.75ZM345.73 58.75L341.88 58.75L341.88 58.02L344.99 58.02L344.99 51.80L345.73 51.80L345.73 58.75ZM344.26 51.80L344.26 57.29L341.88 57.29L341.88 56.56L343.53 56.56L343.53 51.80L344.26 51.80ZM358.37 58.75L354.53 58.75L354.53 51.80L355.26 51.80L355.26 58.02L358.37 58.02L358.37 58.75ZM358.37 57.29L355.99 57.29L355.99 51.80L356.72 51.80L356.72 56.56L358.37 56.56L358.37 57.29ZM358.37 57.29L358.37 56.56L363.87 56.56L363.87 57.29L358.37 57.29ZM358.37 58.75L358.37 58.02L363.87 58.02L363.87 58.75L358.37 58.75ZM363.87 57.29L363.87 56.56L369.37 56.56L369.37 57.29L363.87 57.29ZM363.87 58.75L363.87 58.02L369.37 58.02L369.37 58.75L363.87 58.75ZM369.37 57.29L369.37 56.56L374.87 56.56L374.87 57.29L369.37 57.29ZM369.37 58.75L369.37 58.02L374.87 58.02L374.87 58.75L369.37 58.75ZM374.87 57.29L374.87 56.56L380.37 56.56L380.37 57.29L374.87 57.29ZM374.87 58.75L374.87 58.02L380.37 58.02L380.37 58.75L374.87 58.75ZM380.37 57.29L380.37 56.56L385.86 56.56L385.86 57.29L380.37 57.29ZM380.37 58.75L380.37 58.02L385.86 58.02L385.86 58.75L380.37 58.75ZM385.86 57.29L385.86 56.56L391.36 56.56L391.36 57.29L385.86 57.29ZM385.86 58.75L385.86 58.02L391.36 58.02L391.36 58.75L385.86 58.75ZM395.21 58.75L391.36 58.75L391.36 58.02L394.48 58.02L394.48 51.80L395.21 51.80L395.21 58.75ZM393.74 51.80L393.74 57.29L391.36 57.29L391.36 56.56L393.01 56.56L393.01 51.80L393.74 51.80ZM402.36 58.75L398.51 58.75L398.51 51.80L399.24 51.80L399.24 58.02L402.36 58.02L402.36 58.75ZM402.36 57.29L399.97 57.29L399.97 51.80L400.71 51.80L400.71 56.56L402.36 56.56L402.36 57.29ZM402.36 57.29L402.36 56.56L407.86 56.56L407.86 57.29L402.36 57.29ZM402.36 58.75L402.36 58.02L407.86 58.02L407.86 58.75L402.36 58.75ZM407.86 57.29L407.86 56.56L413.35 56.56L413.35 57.29L407.86 57.29ZM407.86 58.75L407.86 58.02L413.35 58.02L413.35 58.75L407.86 58.75ZM413.35 57.29L413.35 56.56L418.85 56.56L418.85 57.29L413.35 57.29ZM413.35 58.75L413.35 58.02L418.85 58.02L418.85 58.75L413.35 58.75ZM418.85 57.29L418.85 56.56L424.35 56.56L424.35 57.29L418.85 57.29ZM418.85 58.75L418.85 58.02L424.35 58.02L424.35 58.75L418.85 58.75ZM424.35 57.29L424.35 56.56L429.85 56.56L429.85 57.29L424.35 57.29ZM424.35 58.75L424.35 58.02L429.85 58.02L429.85 58.75L424.35 58.75ZM433.70 58.75L429.85 58.75L429.85 58.02L432.96 58.02L432.96 51.80L433.70 51.80L433.70 58.75ZM432.23 51.80L432.23 57.29L429.85 57.29L429.85 56.56L431.50 56.56L431.50 51.80L432.23 51.80ZM451.84 58.75L447.99 58.75L447.99 51.80L448.72 51.80L448.72 58.02L451.84 58.02L451.84 58.75ZM451.84 57.29L449.46 57.29L449.46 51.80L450.19 51.80L450.19 56.56L451.84 56.56L451.84 57.29ZM451.84 57.29L451.84 56.56L457.34 56.56L457.34 57.29L451.84 57.29ZM451.84 58.75L451.84 58.02L457.34 58.02L457.34 58.75L451.84 58.75ZM457.34 57.29L457.34 56.56L462.84 56.56L462.84 57.29L457.34 57.29ZM457.34 58.75L457.34 58.02L462.84 58.02L462.84 58.75L457.34 58.75ZM462.84 57.29L462.84 56.56L468.33 56.56L468.33 57.29L462.84 57.29ZM462.84 58.75L462.84 58.02L468.33 58.02L468.33 58.75L462.84 58.75ZM468.33 57.29L468.33 56.56L473.83 56.56L473.83 57.29L468.33 57.29ZM468.33 58.75L468.33 58.02L473.83 58.02L473.83 58.75L468.33 58.75ZM473.83 57.29L473.83 56.56L479.33 56.56L479.33 57.29L473.83 57.29ZM473.83 58.75L473.83 58.02L479.33 58.02L479.33 58.75L473.83 58.75ZM483.18 58.75L479.33 58.75L479.33 58.02L482.45 58.02L482.45 51.80L483.18 51.80L483.18 58.75ZM481.71 51.80L481.71 57.29L479.33 57.29L479.33 56.56L480.98 56.56L480.98 51.80L481.71 51.80ZM501.32 58.75L497.47 58.75L497.47 51.80L498.21 51.80L498.21 58.02L501.32 58.02L501.32 58.75ZM501.32 57.29L498.94 57.29L498.94 51.80L499.67 51.80L499.67 56.56L501.32 56.56L501.32 57.29ZM501.32 57.29L501.32 56.56L506.82 56.56L506.82 57.29L501.32 57.29ZM501.32 58.75L501.32 58.02L506.82 58.02L506.82 58.75L501.32 58.75ZM506.82 57.29L506.82 56.56L512.32 56.56L512.32 57.29L506.82 57.29ZM506.82 58.75L506.82 58.02L512.32 58.02L512.32 58.75L506.82 58.75ZM512.32 57.29L512.32 56.56L517.82 56.56L517.82 57.29L512.32 57.29ZM512.32 58.75L512.32 58.02L517.82 58.02L517.82 58.75L512.32 58.75ZM517.82 57.29L517.82 56.56L523.31 56.56L523.31 57.29L517.82 57.29ZM517.82 58.75L517.82 58.02L523.31 58.02L523.31 58.75L517.82 58.75ZM523.31 57.29L523.31 56.56L528.81 56.56L528.81 57.29L523.31 57.29ZM523.31 58.75L523.31 58.02L528.81 58.02L528.81 58.75L523.31 58.75ZM532.66 58.75L528.81 58.75L528.81 58.02L531.93 58.02L531.93 51.80L532.66 51.80L532.66 58.75ZM531.20 51.80L531.20 57.29L528.81 57.29L528.81 56.56L530.46 56.56L530.46 51.80L531.20 51.80ZM550.80 58.75L546.96 58.75L546.96 51.80L547.69 51.80L547.69 58.02L550.80 58.02L550.80 58.75ZM550.80 57.29L548.42 57.29L548.42 51.80L549.15 51.80L549.15 56.56L550.80 56.56L550.80 57.29ZM550.80 57.29L550.80 56.56L556.30 56.56L556.30 57.29L550.80 57.29ZM550.80 58.75L550.80 58.02L556.30 58.02L556.30 58.75L550.80 58.75ZM556.30 57.29L556.30 56.56L561.80 56.56L561.80 57.29L556.30 57.29ZM556.30 58.75L556.30 58.02L561.80 58.02L561.80 58.75L556.30 58.75ZM561.80 57.29L561.80 56.56L567.30 56.56L567.30 57.29L561.80 57.29ZM561.80 58.75L561.80 58.02L567.30 58.02L567.30 58.75L561.80 58.75ZM567.30 57.29L567.30 56.56L572.80 56.56L572.80 57.29L567.30 57.29ZM567.30 58.75L567.30 58.02L572.80 58.02L572.80 58.75L567.30 58.75ZM572.80 57.29L572.80 56.56L578.29 56.56L578.29 57.29L572.80 57.29ZM572.80 58.75L572.80 58.02L578.29 58.02L578.29 58.75L572.80 58.75ZM582.14 58.75L578.29 58.75L578.29 58.02L581.41 58.02L581.41 51.80L582.14 51.80L582.14 58.75ZM580.68 51.80L580.68 57.29L578.29 57.29L578.29 56.56L579.95 56.56L579.95 51.80L580.68 51.80ZM594.79 58.75L590.94 58.75L590.94 51.80L591.67 51.80L591.67 58.02L594.79 58.02L594.79 58.75ZM594.79 57.29L592.41 57.29L592.41 51.80L593.14 51.80L593.14 56.56L594.79 56.56L594.79 57.29ZM594.79 57.29L594.79 56.56L600.29 56.56L600.29 57.29L594.79 57.29ZM594.79 58.75L594.79 58.02L600.29 58.02L600.29 58.75L594.79 58.75ZM600.29 57.29L600.29 56.56L605.79 56.56L605.79 57.29L600.29 57.29ZM600.29 58.75L600.29 58.02L605.79 58.02L605.79 58.75L600.29 58.75ZM605.79 57.29L605.79 56.56L611.28 56.56L611.28 57.29L605.79 57.29ZM605.79 58.75L605.79 58.02L611.28 58.02L611.28 58.75L605.79 58.75ZM611.28 57.29L611.28 56.56L616.78 56.56L616.78 57.29L611.28 57.29ZM611.28 58.75L611.28 58.02L616.78 58.02L616.78 58.75L611.28 58.75ZM616.78 57.29L616.78 56.56L622.28 56.56L622.28 57.29L616.78 57.29ZM616.78 58.75L616.78 58.02L622.28 58.02L622.28 58.75L616.78 58.75ZM622.28 57.29L622.28 56.56L627.78 56.56L627.78 57.29L622.28 57.29ZM622.28 58.75L622.28 58.02L627.78 58.02L627.78 58.75L622.28 58.75ZM631.63 58.75L627.78 58.75L627.78 58.02L630.89 58.02L630.89 51.80L631.63 51.80L631.63 58.75ZM630.16 51.80L630.16 57.29L627.78 57.29L627.78 56.56L629.43 56.56L629.43 51.80L630.16 51.80ZM638.77 58.75L634.93 58.75L634.93 51.80L635.66 51.80L635.66 58.02L638.77 58.02L638.77 58.75ZM638.77 57.29L636.39 57.29L636.39 51.80L637.12 51.80L637.12 56.56L638.77 56.56L638.77 57.29ZM638.77 57.29L638.77 56.56L644.27 56.56L644.27 57.29L638.77 57.29ZM638.77 58.75L638.77 58.02L644.27 58.02L644.27 58.75L638.77 58.75ZM648.12 58.75L644.27 58.75L644.27 58.02L647.39 58.02L647.39 51.80L648.12 51.80L648.12 58.75ZM646.65 51.80L646.65 57.29L644.27 57.29L644.27 56.56L645.92 56.56L645.92 51.80L646.65 51.80ZM666.26 58.75L662.42 58.75L662.42 51.80L663.15 51.80L663.15 58.02L666.26 58.02L666.26 58.75ZM666.26 57.29L663.88 57.29L663.88 51.80L664.61 51.80L664.61 56.56L666.26 56.56L666.26 57.29ZM666.26 57.29L666.26 56.56L671.76 56.56L671.76 57.29L666.26 57.29ZM666.26 58.75L666.26 58.02L671.76 58.02L671.76 58.75L666.26 58.75ZM675.61 58.75L671.76 58.75L671.76 58.02L674.88 58.02L674.88 51.80L675.61 51.80L675.61 58.75ZM674.14 51.80L674.14 57.29L671.76 57.29L671.76 56.56L673.41 56.56L673.41 51.80L674.14 51.80Z" class="ascii-path" />
</svg>