<svg width="443" height="170" viewBox="0 0 443 170" xmlns="http://www.w3.org/2000/svg">
  <style>
    .ascii-path {
      fill: #6dcf43;
    }
  </style>
  <path d="M7.60 16.01L1 16.01L1 1.96L7.60 1.96L7.60 16.01ZM14.20 16.01L7.60 16.01L7.60 1.96L14.20 1.96L14.20 16.01ZM14.20 7.67L18.81 7.67L18.81 16.01L17.93 16.01L17.93 8.55L14.20 8.55L14.20 7.67ZM14.20 9.43L17.05 9.43L17.05 16.01L16.18 16.01L16.18 10.30L14.20 10.30L14.20 9.43ZM66.98 16.01L60.38 16.01L60.38 1.96L66.98 1.96L66.98 16.01ZM73.57 16.01L66.98 16.01L66.98 1.96L73.57 1.96L73.57 16.01ZM80.17 16.01L73.57 16.01L73.57 1.96L80.17 1.96L80.17 16.01ZM86.77 16.01L80.17 16.01L80.17 1.96L86.77 1.96L86.77 16.01ZM93.37 16.01L86.77 16.01L86.77 1.96L93.37 1.96L93.37 16.01ZM99.96 16.01L93.37 16.01L93.37 1.96L99.96 1.96L99.96 16.01ZM99.96 7.67L104.58 7.67L104.58 16.01L103.70 16.01L103.70 8.55L99.96 8.55L99.96 7.67ZM99.96 9.43L102.82 9.43L102.82 16.01L101.95 16.01L101.95 10.30L99.96 10.30L99.96 9.43ZM119.76 16.01L113.16 16.01L113.16 1.96L119.76 1.96L119.76 16.01ZM126.36 16.01L119.76 16.01L119.76 1.96L126.36 1.96L126.36 16.01ZM126.36 7.67L130.97 7.67L130.97 16.01L130.09 16.01L130.09 8.55L126.36 8.55L126.36 7.67ZM126.36 9.43L129.21 9.43L129.21 16.01L128.34 16.01L128.34 10.30L126.36 10.30L126.36 9.43ZM179.14 16.01L172.54 16.01L172.54 1.96L179.14 1.96L179.14 16.01ZM185.73 16.01L179.14 16.01L179.14 1.96L185.73 1.96L185.73 16.01ZM192.33 16.01L185.73 16.01L185.73 1.96L192.33 1.96L192.33 16.01ZM198.93 16.01L192.33 16.01L192.33 1.96L198.93 1.96L198.93 16.01ZM205.53 16.01L198.93 16.01L198.93 1.96L205.53 1.96L205.53 16.01ZM205.53 7.67L210.14 7.67L210.14 16.01L209.27 16.01L209.27 8.55L205.53 8.55L205.53 7.67ZM205.53 9.43L208.39 9.43L208.39 16.01L207.51 16.01L207.51 10.30L205.53 10.30L205.53 9.43ZM225.32 16.01L218.72 16.01L218.72 1.96L225.32 1.96L225.32 16.01ZM231.92 16.01L225.32 16.01L225.32 1.96L231.92 1.96L231.92 16.01ZM238.52 16.01L231.92 16.01L231.92 1.96L238.52 1.96L238.52 16.01ZM238.52 7.67L243.13 7.67L243.13 16.01L242.25 16.01L242.25 8.55L238.52 8.55L238.52 7.67ZM238.52 9.43L241.38 9.43L241.38 16.01L240.50 16.01L240.50 10.30L238.52 10.30L238.52 9.43ZM271.50 16.01L264.91 16.01L264.91 1.96L271.50 1.96L271.50 16.01ZM278.10 16.01L271.50 16.01L271.50 1.96L278.10 1.96L278.10 16.01ZM278.10 7.67L282.72 7.67L282.72 16.01L281.84 16.01L281.84 8.55L278.10 8.55L278.10 7.67ZM278.10 9.43L280.96 9.43L280.96 16.01L280.08 16.01L280.08 10.30L278.10 10.30L278.10 9.43ZM291.30 16.01L284.70 16.01L284.70 1.96L291.30 1.96L291.30 16.01ZM297.89 16.01L291.30 16.01L291.30 1.96L297.89 1.96L297.89 16.01ZM304.49 16.01L297.89 16.01L297.89 1.96L304.49 1.96L304.49 16.01ZM311.09 16.01L304.49 16.01L304.49 1.96L311.09 1.96L311.09 16.01ZM317.69 16.01L311.09 16.01L311.09 1.96L317.69 1.96L317.69 16.01ZM324.29 16.01L317.69 16.01L317.69 1.96L324.29 1.96L324.29 16.01ZM330.88 16.01L324.29 16.01L324.29 1.96L330.88 1.96L330.88 16.01ZM337.48 16.01L330.88 16.01L330.88 1.96L337.48 1.96L337.48 16.01ZM337.48 7.67L342.10 7.67L342.10 16.01L341.22 16.01L341.22 8.55L337.48 8.55L337.48 7.67ZM337.48 9.43L340.34 9.43L340.34 16.01L339.46 16.01L339.46 10.30L337.48 10.30L337.48 9.43Z" class="ascii-path" />
  <path d="M7.60 22.30L2.98 22.30L2.98 13.96L3.86 13.96L3.86 21.43L7.60 21.43L7.60 22.30ZM7.60 20.55L4.74 20.55L4.74 13.96L5.62 13.96L5.62 19.67L7.60 19.67L7.60 20.55ZM14.20 28.01L7.60 28.01L7.60 13.96L14.20 13.96L14.20 28.01ZM20.79 28.01L14.20 28.01L14.20 13.96L20.79 13.96L20.79 28.01ZM20.79 19.67L25.41 19.67L25.41 28.01L24.53 28.01L24.53 20.55L20.79 20.55L20.79 19.67ZM20.79 21.43L23.65 21.43L23.65 28.01L22.77 28.01L22.77 22.30L20.79 22.30L20.79 21.43ZM66.98 28.01L60.38 28.01L60.38 13.96L66.98 13.96L66.98 28.01ZM73.57 28.01L66.98 28.01L66.98 13.96L73.57 13.96L73.57 28.01ZM75.55 19.67L80.17 19.67L80.17 20.55L76.43 20.55L76.43 28.01L75.55 28.01L75.55 19.67ZM77.31 28.01L77.31 21.43L80.17 21.43L80.17 22.30L78.19 22.30L78.19 28.01L77.31 28.01ZM80.17 20.55L80.17 19.67L86.77 19.67L86.77 20.55L80.17 20.55ZM80.17 22.30L80.17 21.43L86.77 21.43L86.77 22.30L80.17 22.30ZM86.77 20.55L86.77 19.67L93.37 19.67L93.37 20.55L86.77 20.55ZM86.77 22.30L86.77 21.43L93.37 21.43L93.37 22.30L86.77 22.30ZM99.96 28.01L93.37 28.01L93.37 13.96L99.96 13.96L99.96 28.01ZM106.56 28.01L99.96 28.01L99.96 13.96L106.56 13.96L106.56 28.01ZM106.56 19.67L111.18 19.67L111.18 28.01L110.30 28.01L110.30 20.55L106.56 20.55L106.56 19.67ZM106.56 21.43L109.42 21.43L109.42 28.01L108.54 28.01L108.54 22.30L106.56 22.30L106.56 21.43ZM119.76 28.01L113.16 28.01L113.16 13.96L119.76 13.96L119.76 28.01ZM126.36 28.01L119.76 28.01L119.76 13.96L126.36 13.96L126.36 28.01ZM128.34 28.01L128.34 13.96L129.21 13.96L129.21 28.01L128.34 28.01ZM130.97 28.01L130.09 28.01L130.09 13.96L130.97 13.96L130.97 28.01ZM172.54 28.01L165.94 28.01L165.94 13.96L172.54 13.96L172.54 28.01ZM179.14 28.01L172.54 28.01L172.54 13.96L179.14 13.96L179.14 28.01ZM181.12 19.67L185.73 19.67L185.73 20.55L182.00 20.55L182.00 28.01L181.12 28.01L181.12 19.67ZM182.88 28.01L182.88 21.43L185.73 21.43L185.73 22.30L183.75 22.30L183.75 28.01L182.88 28.01ZM185.73 20.55L185.73 19.67L192.33 19.67L192.33 20.55L185.73 20.55ZM185.73 22.30L185.73 21.43L192.33 21.43L192.33 22.30L185.73 22.30ZM192.33 20.55L192.33 19.67L198.93 19.67L198.93 20.55L192.33 20.55ZM192.33 22.30L192.33 21.43L198.93 21.43L198.93 22.30L192.33 22.30ZM205.53 28.01L198.93 28.01L198.93 13.96L205.53 13.96L205.53 28.01ZM212.13 28.01L205.53 28.01L205.53 13.96L212.13 13.96L212.13 28.01ZM212.13 19.67L216.74 19.67L216.74 28.01L215.86 28.01L215.86 20.55L212.13 20.55L212.13 19.67ZM212.13 21.43L214.98 21.43L214.98 28.01L214.11 28.01L214.11 22.30L212.13 22.30L212.13 21.43ZM225.32 28.01L218.72 28.01L218.72 13.96L225.32 13.96L225.32 28.01ZM231.92 28.01L225.32 28.01L225.32 13.96L231.92 13.96L231.92 28.01ZM238.52 28.01L231.92 28.01L231.92 13.96L238.52 13.96L238.52 28.01ZM245.11 28.01L238.52 28.01L238.52 13.96L245.11 13.96L245.11 28.01ZM245.11 19.67L249.73 19.67L249.73 28.01L248.85 28.01L248.85 20.55L245.11 20.55L245.11 19.67ZM245.11 21.43L247.97 21.43L247.97 28.01L247.09 28.01L247.09 22.30L245.11 22.30L245.11 21.43ZM271.50 28.01L264.91 28.01L264.91 13.96L271.50 13.96L271.50 28.01ZM278.10 28.01L271.50 28.01L271.50 13.96L278.10 13.96L278.10 28.01ZM280.08 28.01L280.08 13.96L280.96 13.96L280.96 28.01L280.08 28.01ZM282.72 28.01L281.84 28.01L281.84 13.96L282.72 13.96L282.72 28.01ZM291.30 22.30L286.68 22.30L286.68 13.96L287.56 13.96L287.56 21.43L291.30 21.43L291.30 22.30ZM291.30 20.55L288.44 20.55L288.44 13.96L289.32 13.96L289.32 19.67L291.30 19.67L291.30 20.55ZM291.30 20.55L291.30 19.67L297.89 19.67L297.89 20.55L291.30 20.55ZM291.30 22.30L291.30 21.43L297.89 21.43L297.89 22.30L291.30 22.30ZM297.89 20.55L297.89 19.67L304.49 19.67L304.49 20.55L297.89 20.55ZM297.89 22.30L297.89 21.43L304.49 21.43L304.49 22.30L297.89 22.30ZM311.09 28.01L304.49 28.01L304.49 13.96L311.09 13.96L311.09 28.01ZM317.69 28.01L311.09 28.01L311.09 13.96L317.69 13.96L317.69 28.01ZM319.67 19.67L324.29 19.67L324.29 20.55L320.55 20.55L320.55 28.01L319.67 28.01L319.67 19.67ZM321.43 28.01L321.43 21.43L324.29 21.43L324.29 22.30L322.30 22.30L322.30 28.01L321.43 28.01ZM324.29 20.55L324.29 19.67L330.88 19.67L330.88 20.55L324.29 20.55ZM324.29 22.30L324.29 21.43L330.88 21.43L330.88 22.30L324.29 22.30ZM330.88 20.55L330.88 19.67L337.48 19.67L337.48 20.55L330.88 20.55ZM330.88 22.30L330.88 21.43L337.48 21.43L337.48 22.30L330.88 22.30ZM342.10 22.30L337.48 22.30L337.48 21.43L341.22 21.43L341.22 13.96L342.10 13.96L342.10 22.30ZM340.34 13.96L340.34 20.55L337.48 20.55L337.48 19.67L339.46 19.67L339.46 13.96L340.34 13.96Z" class="ascii-path" />
  <path d="M14.20 34.30L9.58 34.30L9.58 25.96L10.46 25.96L10.46 33.43L14.20 33.43L14.20 34.30ZM14.20 32.55L11.34 32.55L11.34 25.96L12.21 25.96L12.21 31.67L14.20 31.67L14.20 32.55ZM20.79 40.01L14.20 40.01L14.20 25.96L20.79 25.96L20.79 40.01ZM27.39 40.01L20.79 40.01L20.79 25.96L27.39 25.96L27.39 40.01ZM27.39 31.67L32.01 31.67L32.01 40.01L31.13 40.01L31.13 32.55L27.39 32.55L27.39 31.67ZM27.39 33.43L30.25 33.43L30.25 40.01L29.37 40.01L29.37 34.30L27.39 34.30L27.39 33.43ZM66.98 40.01L60.38 40.01L60.38 25.96L66.98 25.96L66.98 40.01ZM73.57 40.01L66.98 40.01L66.98 25.96L73.57 25.96L73.57 40.01ZM80.17 40.01L73.57 40.01L73.57 25.96L80.17 25.96L80.17 40.01ZM86.77 40.01L80.17 40.01L80.17 25.96L86.77 25.96L86.77 40.01ZM93.37 40.01L86.77 40.01L86.77 25.96L93.37 25.96L93.37 40.01ZM99.96 40.01L93.37 40.01L93.37 25.96L99.96 25.96L99.96 40.01ZM101.95 31.67L106.56 31.67L106.56 32.55L102.82 32.55L102.82 40.01L101.95 40.01L101.95 31.67ZM103.70 40.01L103.70 33.43L106.56 33.43L106.56 34.30L104.58 34.30L104.58 40.01L103.70 40.01ZM111.18 34.30L106.56 34.30L106.56 33.43L110.30 33.43L110.30 25.96L111.18 25.96L111.18 34.30ZM109.42 25.96L109.42 32.55L106.56 32.55L106.56 31.67L108.54 31.67L108.54 25.96L109.42 25.96ZM119.76 40.01L113.16 40.01L113.16 25.96L119.76 25.96L119.76 40.01ZM126.36 40.01L119.76 40.01L119.76 25.96L126.36 25.96L126.36 40.01ZM128.34 40.01L128.34 25.96L129.21 25.96L129.21 40.01L128.34 40.01ZM130.97 40.01L130.09 40.01L130.09 25.96L130.97 25.96L130.97 40.01ZM172.54 40.01L165.94 40.01L165.94 25.96L172.54 25.96L172.54 40.01ZM179.14 40.01L172.54 40.01L172.54 25.96L179.14 25.96L179.14 40.01ZM185.73 40.01L179.14 40.01L179.14 25.96L185.73 25.96L185.73 40.01ZM192.33 40.01L185.73 40.01L185.73 25.96L192.33 25.96L192.33 40.01ZM198.93 40.01L192.33 40.01L192.33 25.96L198.93 25.96L198.93 40.01ZM205.53 40.01L198.93 40.01L198.93 25.96L205.53 25.96L205.53 40.01ZM212.13 40.01L205.53 40.01L205.53 25.96L212.13 25.96L212.13 40.01ZM214.11 40.01L214.11 25.96L214.98 25.96L214.98 40.01L214.11 40.01ZM216.74 40.01L215.86 40.01L215.86 25.96L216.74 25.96L216.74 40.01ZM225.32 40.01L218.72 40.01L218.72 25.96L225.32 25.96L225.32 40.01ZM231.92 40.01L225.32 40.01L225.32 25.96L231.92 25.96L231.92 40.01ZM233.90 31.67L238.52 31.67L238.52 32.55L234.78 32.55L234.78 40.01L233.90 40.01L233.90 31.67ZM235.66 40.01L235.66 33.43L238.52 33.43L238.52 34.30L236.54 34.30L236.54 40.01L235.66 40.01ZM245.11 40.01L238.52 40.01L238.52 25.96L245.11 25.96L245.11 40.01ZM251.71 40.01L245.11 40.01L245.11 25.96L251.71 25.96L251.71 40.01ZM251.71 31.67L256.33 31.67L256.33 40.01L255.45 40.01L255.45 32.55L251.71 32.55L251.71 31.67ZM251.71 33.43L254.57 33.43L254.57 40.01L253.69 40.01L253.69 34.30L251.71 34.30L251.71 33.43ZM271.50 40.01L264.91 40.01L264.91 25.96L271.50 25.96L271.50 40.01ZM278.10 40.01L271.50 40.01L271.50 25.96L278.10 25.96L278.10 40.01ZM280.08 40.01L280.08 25.96L280.96 25.96L280.96 40.01L280.08 40.01ZM282.72 40.01L281.84 40.01L281.84 25.96L282.72 25.96L282.72 40.01ZM311.09 40.01L304.49 40.01L304.49 25.96L311.09 25.96L311.09 40.01ZM317.69 40.01L311.09 40.01L311.09 25.96L317.69 25.96L317.69 40.01ZM319.67 40.01L319.67 25.96L320.55 25.96L320.55 40.01L319.67 40.01ZM322.30 40.01L321.43 40.01L321.43 25.96L322.30 25.96L322.30 40.01Z" class="ascii-path" />
  <path d="M14.20 52.01L7.60 52.01L7.60 37.96L14.20 37.96L14.20 52.01ZM20.79 52.01L14.20 52.01L14.20 37.96L20.79 37.96L20.79 52.01ZM22.77 43.67L27.39 43.67L27.39 44.55L23.65 44.55L23.65 52.01L22.77 52.01L22.77 43.67ZM24.53 52.01L24.53 45.43L27.39 45.43L27.39 46.30L25.41 46.30L25.41 52.01L24.53 52.01ZM32.01 46.30L27.39 46.30L27.39 45.43L31.13 45.43L31.13 37.96L32.01 37.96L32.01 46.30ZM30.25 37.96L30.25 44.55L27.39 44.55L27.39 43.67L29.37 43.67L29.37 37.96L30.25 37.96ZM66.98 52.01L60.38 52.01L60.38 37.96L66.98 37.96L66.98 52.01ZM73.57 52.01L66.98 52.01L66.98 37.96L73.57 37.96L73.57 52.01ZM75.55 43.67L80.17 43.67L80.17 44.55L76.43 44.55L76.43 52.01L75.55 52.01L75.55 43.67ZM77.31 52.01L77.31 45.43L80.17 45.43L80.17 46.30L78.19 46.30L78.19 52.01L77.31 52.01ZM80.17 44.55L80.17 43.67L86.77 43.67L86.77 44.55L80.17 44.55ZM80.17 46.30L80.17 45.43L86.77 45.43L86.77 46.30L80.17 46.30ZM86.77 44.55L86.77 43.67L93.37 43.67L93.37 44.55L86.77 44.55ZM86.77 46.30L86.77 45.43L93.37 45.43L93.37 46.30L86.77 46.30ZM93.37 44.55L93.37 43.67L99.96 43.67L99.96 44.55L93.37 44.55ZM93.37 46.30L93.37 45.43L99.96 45.43L99.96 46.30L93.37 46.30ZM104.58 46.30L99.96 46.30L99.96 45.43L103.70 45.43L103.70 37.96L104.58 37.96L104.58 46.30ZM102.82 37.96L102.82 44.55L99.96 44.55L99.96 43.67L101.95 43.67L101.95 37.96L102.82 37.96ZM119.76 52.01L113.16 52.01L113.16 37.96L119.76 37.96L119.76 52.01ZM126.36 52.01L119.76 52.01L119.76 37.96L126.36 37.96L126.36 52.01ZM128.34 52.01L128.34 37.96L129.21 37.96L129.21 52.01L128.34 52.01ZM130.97 52.01L130.09 52.01L130.09 37.96L130.97 37.96L130.97 52.01ZM172.54 52.01L165.94 52.01L165.94 37.96L172.54 37.96L172.54 52.01ZM179.14 52.01L172.54 52.01L172.54 37.96L179.14 37.96L179.14 52.01ZM181.12 43.67L185.73 43.67L185.73 44.55L182.00 44.55L182.00 52.01L181.12 52.01L181.12 43.67ZM182.88 52.01L182.88 45.43L185.73 45.43L185.73 46.30L183.75 46.30L183.75 52.01L182.88 52.01ZM185.73 44.55L185.73 43.67L192.33 43.67L192.33 44.55L185.73 44.55ZM185.73 46.30L185.73 45.43L192.33 45.43L192.33 46.30L185.73 46.30ZM192.33 44.55L192.33 43.67L198.93 43.67L198.93 44.55L192.33 44.55ZM192.33 46.30L192.33 45.43L198.93 45.43L198.93 46.30L192.33 46.30ZM205.53 52.01L198.93 52.01L198.93 37.96L205.53 37.96L205.53 52.01ZM212.13 52.01L205.53 52.01L205.53 37.96L212.13 37.96L212.13 52.01ZM214.11 52.01L214.11 37.96L214.98 37.96L214.98 52.01L214.11 52.01ZM216.74 52.01L215.86 52.01L215.86 37.96L216.74 37.96L216.74 52.01ZM225.32 52.01L218.72 52.01L218.72 37.96L225.32 37.96L225.32 52.01ZM231.92 52.01L225.32 52.01L225.32 37.96L231.92 37.96L231.92 52.01ZM233.90 52.01L233.90 37.96L234.78 37.96L234.78 52.01L233.90 52.01ZM236.54 52.01L235.66 52.01L235.66 37.96L236.54 37.96L236.54 52.01ZM245.11 46.30L240.50 46.30L240.50 37.96L241.38 37.96L241.38 45.43L245.11 45.43L245.11 46.30ZM245.11 44.55L242.25 44.55L242.25 37.96L243.13 37.96L243.13 43.67L245.11 43.67L245.11 44.55ZM251.71 52.01L245.11 52.01L245.11 37.96L251.71 37.96L251.71 52.01ZM258.31 52.01L251.71 52.01L251.71 37.96L258.31 37.96L258.31 52.01ZM258.31 43.67L262.93 43.67L262.93 52.01L262.05 52.01L262.05 44.55L258.31 44.55L258.31 43.67ZM258.31 45.43L261.17 45.43L261.17 52.01L260.29 52.01L260.29 46.30L258.31 46.30L258.31 45.43ZM271.50 52.01L264.91 52.01L264.91 37.96L271.50 37.96L271.50 52.01ZM278.10 52.01L271.50 52.01L271.50 37.96L278.10 37.96L278.10 52.01ZM280.08 52.01L280.08 37.96L280.96 37.96L280.96 52.01L280.08 52.01ZM282.72 52.01L281.84 52.01L281.84 37.96L282.72 37.96L282.72 52.01ZM311.09 52.01L304.49 52.01L304.49 37.96L311.09 37.96L311.09 52.01ZM317.69 52.01L311.09 52.01L311.09 37.96L317.69 37.96L317.69 52.01ZM319.67 52.01L319.67 37.96L320.55 37.96L320.55 52.01L319.67 52.01ZM322.30 52.01L321.43 52.01L321.43 37.96L322.30 37.96L322.30 52.01Z" class="ascii-path" />
  <path d="M7.60 64.01L1 64.01L1 49.96L7.60 49.96L7.60 64.01ZM14.20 64.01L7.60 64.01L7.60 49.96L14.20 49.96L14.20 64.01ZM16.18 55.67L20.79 55.67L20.79 56.55L17.05 56.55L17.05 64.01L16.18 64.01L16.18 55.67ZM17.93 64.01L17.93 57.43L20.79 57.43L20.79 58.30L18.81 58.30L18.81 64.01L17.93 64.01ZM25.41 58.30L20.79 58.30L20.79 57.43L24.53 57.43L24.53 49.96L25.41 49.96L25.41 58.30ZM23.65 49.96L23.65 56.55L20.79 56.55L20.79 55.67L22.77 55.67L22.77 49.96L23.65 49.96ZM66.98 64.01L60.38 64.01L60.38 49.96L66.98 49.96L66.98 64.01ZM73.57 64.01L66.98 64.01L66.98 49.96L73.57 49.96L73.57 64.01ZM75.55 64.01L75.55 49.96L76.43 49.96L76.43 64.01L75.55 64.01ZM78.19 64.01L77.31 64.01L77.31 49.96L78.19 49.96L78.19 64.01ZM119.76 64.01L113.16 64.01L113.16 49.96L119.76 49.96L119.76 64.01ZM126.36 64.01L119.76 64.01L119.76 49.96L126.36 49.96L126.36 64.01ZM132.95 64.01L126.36 64.01L126.36 49.96L132.95 49.96L132.95 64.01ZM139.55 64.01L132.95 64.01L132.95 49.96L139.55 49.96L139.55 64.01ZM146.15 64.01L139.55 64.01L139.55 49.96L146.15 49.96L146.15 64.01ZM152.75 64.01L146.15 64.01L146.15 49.96L152.75 49.96L152.75 64.01ZM159.34 64.01L152.75 64.01L152.75 49.96L159.34 49.96L159.34 64.01ZM159.34 55.67L163.96 55.67L163.96 64.01L163.08 64.01L163.08 56.55L159.34 56.55L159.34 55.67ZM159.34 57.43L162.20 57.43L162.20 64.01L161.32 64.01L161.32 58.30L159.34 58.30L159.34 57.43ZM172.54 64.01L165.94 64.01L165.94 49.96L172.54 49.96L172.54 64.01ZM179.14 64.01L172.54 64.01L172.54 49.96L179.14 49.96L179.14 64.01ZM181.12 64.01L181.12 49.96L182.00 49.96L182.00 64.01L181.12 64.01ZM183.75 64.01L182.88 64.01L182.88 49.96L183.75 49.96L183.75 64.01ZM205.53 64.01L198.93 64.01L198.93 49.96L205.53 49.96L205.53 64.01ZM212.13 64.01L205.53 64.01L205.53 49.96L212.13 49.96L212.13 64.01ZM214.11 64.01L214.11 49.96L214.98 49.96L214.98 64.01L214.11 64.01ZM216.74 64.01L215.86 64.01L215.86 49.96L216.74 49.96L216.74 64.01ZM225.32 64.01L218.72 64.01L218.72 49.96L225.32 49.96L225.32 64.01ZM231.92 64.01L225.32 64.01L225.32 49.96L231.92 49.96L231.92 64.01ZM233.90 64.01L233.90 49.96L234.78 49.96L234.78 64.01L233.90 64.01ZM236.54 64.01L235.66 64.01L235.66 49.96L236.54 49.96L236.54 64.01ZM251.71 58.30L247.09 58.30L247.09 49.96L247.97 49.96L247.97 57.43L251.71 57.43L251.71 58.30ZM251.71 56.55L248.85 56.55L248.85 49.96L249.73 49.96L249.73 55.67L251.71 55.67L251.71 56.55ZM258.31 64.01L251.71 64.01L251.71 49.96L258.31 49.96L258.31 64.01ZM264.91 64.01L258.31 64.01L258.31 49.96L264.91 49.96L264.91 64.01ZM271.50 64.01L264.91 64.01L264.91 49.96L271.50 49.96L271.50 64.01ZM278.10 64.01L271.50 64.01L271.50 49.96L278.10 49.96L278.10 64.01ZM280.08 64.01L280.08 49.96L280.96 49.96L280.96 64.01L280.08 64.01ZM282.72 64.01L281.84 64.01L281.84 49.96L282.72 49.96L282.72 64.01ZM311.09 64.01L304.49 64.01L304.49 49.96L311.09 49.96L311.09 64.01ZM317.69 64.01L311.09 64.01L311.09 49.96L317.69 49.96L317.69 64.01ZM319.67 64.01L319.67 49.96L320.55 49.96L320.55 64.01L319.67 64.01ZM322.30 64.01L321.43 64.01L321.43 49.96L322.30 49.96L322.30 64.01Z" class="ascii-path" />
  <path d="M7.60 70.30L2.98 70.30L2.98 61.96L3.86 61.96L3.86 69.43L7.60 69.43L7.60 70.30ZM7.60 68.55L4.74 68.55L4.74 61.96L5.62 61.96L5.62 67.67L7.60 67.67L7.60 68.55ZM7.60 68.55L7.60 67.67L14.20 67.67L14.20 68.55L7.60 68.55ZM7.60 70.30L7.60 69.43L14.20 69.43L14.20 70.30L7.60 70.30ZM18.81 70.30L14.20 70.30L14.20 69.43L17.93 69.43L17.93 61.96L18.81 61.96L18.81 70.30ZM17.05 61.96L17.05 68.55L14.20 68.55L14.20 67.67L16.18 67.67L16.18 61.96L17.05 61.96ZM66.98 70.30L62.36 70.30L62.36 61.96L63.24 61.96L63.24 69.43L66.98 69.43L66.98 70.30ZM66.98 68.55L64.12 68.55L64.12 61.96L65.00 61.96L65.00 67.67L66.98 67.67L66.98 68.55ZM66.98 68.55L66.98 67.67L73.57 67.67L73.57 68.55L66.98 68.55ZM66.98 70.30L66.98 69.43L73.57 69.43L73.57 70.30L66.98 70.30ZM78.19 70.30L73.57 70.30L73.57 69.43L77.31 69.43L77.31 61.96L78.19 61.96L78.19 70.30ZM76.43 61.96L76.43 68.55L73.57 68.55L73.57 67.67L75.55 67.67L75.55 61.96L76.43 61.96ZM119.76 70.30L115.14 70.30L115.14 61.96L116.02 61.96L116.02 69.43L119.76 69.43L119.76 70.30ZM119.76 68.55L116.90 68.55L116.90 61.96L117.78 61.96L117.78 67.67L119.76 67.67L119.76 68.55ZM119.76 68.55L119.76 67.67L126.36 67.67L126.36 68.55L119.76 68.55ZM119.76 70.30L119.76 69.43L126.36 69.43L126.36 70.30L119.76 70.30ZM126.36 68.55L126.36 67.67L132.95 67.67L132.95 68.55L126.36 68.55ZM126.36 70.30L126.36 69.43L132.95 69.43L132.95 70.30L126.36 70.30ZM132.95 68.55L132.95 67.67L139.55 67.67L139.55 68.55L132.95 68.55ZM132.95 70.30L132.95 69.43L139.55 69.43L139.55 70.30L132.95 70.30ZM139.55 68.55L139.55 67.67L146.15 67.67L146.15 68.55L139.55 68.55ZM139.55 70.30L139.55 69.43L146.15 69.43L146.15 70.30L139.55 70.30ZM146.15 68.55L146.15 67.67L152.75 67.67L152.75 68.55L146.15 68.55ZM146.15 70.30L146.15 69.43L152.75 69.43L152.75 70.30L146.15 70.30ZM152.75 68.55L152.75 67.67L159.34 67.67L159.34 68.55L152.75 68.55ZM152.75 70.30L152.75 69.43L159.34 69.43L159.34 70.30L152.75 70.30ZM163.96 70.30L159.34 70.30L159.34 69.43L163.08 69.43L163.08 61.96L163.96 61.96L163.96 70.30ZM162.20 61.96L162.20 68.55L159.34 68.55L159.34 67.67L161.32 67.67L161.32 61.96L162.20 61.96ZM172.54 70.30L167.92 70.30L167.92 61.96L168.80 61.96L168.80 69.43L172.54 69.43L172.54 70.30ZM172.54 68.55L169.68 68.55L169.68 61.96L170.56 61.96L170.56 67.67L172.54 67.67L172.54 68.55ZM172.54 68.55L172.54 67.67L179.14 67.67L179.14 68.55L172.54 68.55ZM172.54 70.30L172.54 69.43L179.14 69.43L179.14 70.30L172.54 70.30ZM183.75 70.30L179.14 70.30L179.14 69.43L182.88 69.43L182.88 61.96L183.75 61.96L183.75 70.30ZM182.00 61.96L182.00 68.55L179.14 68.55L179.14 67.67L181.12 67.67L181.12 61.96L182.00 61.96ZM205.53 70.30L200.91 70.30L200.91 61.96L201.79 61.96L201.79 69.43L205.53 69.43L205.53 70.30ZM205.53 68.55L202.67 68.55L202.67 61.96L203.55 61.96L203.55 67.67L205.53 67.67L205.53 68.55ZM205.53 68.55L205.53 67.67L212.13 67.67L212.13 68.55L205.53 68.55ZM205.53 70.30L205.53 69.43L212.13 69.43L212.13 70.30L205.53 70.30ZM216.74 70.30L212.13 70.30L212.13 69.43L215.86 69.43L215.86 61.96L216.74 61.96L216.74 70.30ZM214.98 61.96L214.98 68.55L212.13 68.55L212.13 67.67L214.11 67.67L214.11 61.96L214.98 61.96ZM225.32 70.30L220.70 70.30L220.70 61.96L221.58 61.96L221.58 69.43L225.32 69.43L225.32 70.30ZM225.32 68.55L222.46 68.55L222.46 61.96L223.34 61.96L223.34 67.67L225.32 67.67L225.32 68.55ZM225.32 68.55L225.32 67.67L231.92 67.67L231.92 68.55L225.32 68.55ZM225.32 70.30L225.32 69.43L231.92 69.43L231.92 70.30L225.32 70.30ZM236.54 70.30L231.92 70.30L231.92 69.43L235.66 69.43L235.66 61.96L236.54 61.96L236.54 70.30ZM234.78 61.96L234.78 68.55L231.92 68.55L231.92 67.67L233.90 67.67L233.90 61.96L234.78 61.96ZM258.31 70.30L253.69 70.30L253.69 61.96L254.57 61.96L254.57 69.43L258.31 69.43L258.31 70.30ZM258.31 68.55L255.45 68.55L255.45 61.96L256.33 61.96L256.33 67.67L258.31 67.67L258.31 68.55ZM258.31 68.55L258.31 67.67L264.91 67.67L264.91 68.55L258.31 68.55ZM258.31 70.30L258.31 69.43L264.91 69.43L264.91 70.30L258.31 70.30ZM264.91 68.55L264.91 67.67L271.50 67.67L271.50 68.55L264.91 68.55ZM264.91 70.30L264.91 69.43L271.50 69.43L271.50 70.30L264.91 70.30ZM271.50 68.55L271.50 67.67L278.10 67.67L278.10 68.55L271.50 68.55ZM271.50 70.30L271.50 69.43L278.10 69.43L278.10 70.30L271.50 70.30ZM282.72 70.30L278.10 70.30L278.10 69.43L281.84 69.43L281.84 61.96L282.72 61.96L282.72 70.30ZM280.96 61.96L280.96 68.55L278.10 68.55L278.10 67.67L280.08 67.67L280.08 61.96L280.96 61.96ZM311.09 70.30L306.47 70.30L306.47 61.96L307.35 61.96L307.35 69.43L311.09 69.43L311.09 70.30ZM311.09 68.55L308.23 68.55L308.23 61.96L309.11 61.96L309.11 67.67L311.09 67.67L311.09 68.55ZM311.09 68.55L311.09 67.67L317.69 67.67L317.69 68.55L311.09 68.55ZM311.09 70.30L311.09 69.43L317.69 69.43L317.69 70.30L311.09 70.30ZM322.30 70.30L317.69 70.30L317.69 69.43L321.43 69.43L321.43 61.96L322.30 61.96L322.30 70.30ZM320.55 61.96L320.55 68.55L317.69 68.55L317.69 67.67L319.67 67.67L319.67 61.96L320.55 61.96Z" class="ascii-path" />
  <path d="M7.60 112.01L1 112.01L1 97.96L7.60 97.96L7.60 112.01ZM14.20 112.01L7.60 112.01L7.60 97.96L14.20 97.96L14.20 112.01ZM20.79 112.01L14.20 112.01L14.20 97.96L20.79 97.96L20.79 112.01ZM27.39 112.01L20.79 112.01L20.79 97.96L27.39 97.96L27.39 112.01ZM33.99 112.01L27.39 112.01L27.39 97.96L33.99 97.96L33.99 112.01ZM40.59 112.01L33.99 112.01L33.99 97.96L40.59 97.96L40.59 112.01ZM40.59 103.67L45.20 103.67L45.20 112.01L44.32 112.01L44.32 104.55L40.59 104.55L40.59 103.67ZM40.59 105.43L43.45 105.43L43.45 112.01L42.57 112.01L42.57 106.30L40.59 106.30L40.59 105.43ZM60.38 112.01L53.78 112.01L53.78 97.96L60.38 97.96L60.38 112.01ZM66.98 112.01L60.38 112.01L60.38 97.96L66.98 97.96L66.98 112.01ZM73.57 112.01L66.98 112.01L66.98 97.96L73.57 97.96L73.57 112.01ZM80.17 112.01L73.57 112.01L73.57 97.96L80.17 97.96L80.17 112.01ZM86.77 112.01L80.17 112.01L80.17 97.96L86.77 97.96L86.77 112.01ZM93.37 112.01L86.77 112.01L86.77 97.96L93.37 97.96L93.37 112.01ZM99.96 112.01L93.37 112.01L93.37 97.96L99.96 97.96L99.96 112.01ZM99.96 103.67L104.58 103.67L104.58 112.01L103.70 112.01L103.70 104.55L99.96 104.55L99.96 103.67ZM99.96 105.43L102.82 105.43L102.82 112.01L101.95 112.01L101.95 106.30L99.96 106.30L99.96 105.43ZM113.16 112.01L106.56 112.01L106.56 97.96L113.16 97.96L113.16 112.01ZM119.76 112.01L113.16 112.01L113.16 97.96L119.76 97.96L119.76 112.01ZM126.36 112.01L119.76 112.01L119.76 97.96L126.36 97.96L126.36 112.01ZM132.95 112.01L126.36 112.01L126.36 97.96L132.95 97.96L132.95 112.01ZM139.55 112.01L132.95 112.01L132.95 97.96L139.55 97.96L139.55 112.01ZM146.15 112.01L139.55 112.01L139.55 97.96L146.15 97.96L146.15 112.01ZM146.15 103.67L150.77 103.67L150.77 112.01L149.89 112.01L149.89 104.55L146.15 104.55L146.15 103.67ZM146.15 105.43L149.01 105.43L149.01 112.01L148.13 112.01L148.13 106.30L146.15 106.30L146.15 105.43ZM165.94 112.01L159.34 112.01L159.34 97.96L165.94 97.96L165.94 112.01ZM172.54 112.01L165.94 112.01L165.94 97.96L172.54 97.96L172.54 112.01ZM172.54 103.67L177.16 103.67L177.16 112.01L176.28 112.01L176.28 104.55L172.54 104.55L172.54 103.67ZM172.54 105.43L175.40 105.43L175.40 112.01L174.52 112.01L174.52 106.30L172.54 106.30L172.54 105.43ZM205.53 112.01L198.93 112.01L198.93 97.96L205.53 97.96L205.53 112.01ZM212.13 112.01L205.53 112.01L205.53 97.96L212.13 97.96L212.13 112.01ZM212.13 103.67L216.74 103.67L216.74 112.01L215.86 112.01L215.86 104.55L212.13 104.55L212.13 103.67ZM212.13 105.43L214.98 105.43L214.98 112.01L214.11 112.01L214.11 106.30L212.13 106.30L212.13 105.43ZM231.92 112.01L225.32 112.01L225.32 97.96L231.92 97.96L231.92 112.01ZM238.52 112.01L231.92 112.01L231.92 97.96L238.52 97.96L238.52 112.01ZM245.11 112.01L238.52 112.01L238.52 97.96L245.11 97.96L245.11 112.01ZM251.71 112.01L245.11 112.01L245.11 97.96L251.71 97.96L251.71 112.01ZM258.31 112.01L251.71 112.01L251.71 97.96L258.31 97.96L258.31 112.01ZM264.91 112.01L258.31 112.01L258.31 97.96L264.91 97.96L264.91 112.01ZM264.91 103.67L269.52 103.67L269.52 112.01L268.64 112.01L268.64 104.55L264.91 104.55L264.91 103.67ZM264.91 105.43L267.77 105.43L267.77 112.01L266.89 112.01L266.89 106.30L264.91 106.30L264.91 105.43ZM291.30 112.01L284.70 112.01L284.70 97.96L291.30 97.96L291.30 112.01ZM297.89 112.01L291.30 112.01L291.30 97.96L297.89 97.96L297.89 112.01ZM304.49 112.01L297.89 112.01L297.89 97.96L304.49 97.96L304.49 112.01ZM311.09 112.01L304.49 112.01L304.49 97.96L311.09 97.96L311.09 112.01ZM317.69 112.01L311.09 112.01L311.09 97.96L317.69 97.96L317.69 112.01ZM324.29 112.01L317.69 112.01L317.69 97.96L324.29 97.96L324.29 112.01ZM324.29 103.67L328.90 103.67L328.90 112.01L328.02 112.01L328.02 104.55L324.29 104.55L324.29 103.67ZM324.29 105.43L327.14 105.43L327.14 112.01L326.27 112.01L326.27 106.30L324.29 106.30L324.29 105.43ZM344.08 112.01L337.48 112.01L337.48 97.96L344.08 97.96L344.08 112.01ZM350.68 112.01L344.08 112.01L344.08 97.96L350.68 97.96L350.68 112.01ZM357.27 112.01L350.68 112.01L350.68 97.96L357.27 97.96L357.27 112.01ZM363.87 112.01L357.27 112.01L357.27 97.96L363.87 97.96L363.87 112.01ZM370.47 112.01L363.87 112.01L363.87 97.96L370.47 97.96L370.47 112.01ZM377.07 112.01L370.47 112.01L370.47 97.96L377.07 97.96L377.07 112.01ZM383.66 112.01L377.07 112.01L377.07 97.96L383.66 97.96L383.66 112.01ZM383.66 103.67L388.28 103.67L388.28 112.01L387.40 112.01L387.40 104.55L383.66 104.55L383.66 103.67ZM383.66 105.43L386.52 105.43L386.52 112.01L385.64 112.01L385.64 106.30L383.66 106.30L383.66 105.43ZM396.86 112.01L390.26 112.01L390.26 97.96L396.86 97.96L396.86 112.01ZM403.46 112.01L396.86 112.01L396.86 97.96L403.46 97.96L403.46 112.01ZM410.05 112.01L403.46 112.01L403.46 97.96L410.05 97.96L410.05 112.01ZM416.65 112.01L410.05 112.01L410.05 97.96L416.65 97.96L416.65 112.01ZM423.25 112.01L416.65 112.01L416.65 97.96L423.25 97.96L423.25 112.01ZM429.85 112.01L423.25 112.01L423.25 97.96L429.85 97.96L429.85 112.01ZM429.85 103.67L434.46 103.67L434.46 112.01L433.59 112.01L433.59 104.55L429.85 104.55L429.85 103.67ZM429.85 105.43L432.71 105.43L432.71 112.01L431.83 112.01L431.83 106.30L429.85 106.30L429.85 105.43Z" class="ascii-path" />
  <path d="M7.60 124.01L1 124.01L1 109.96L7.60 109.96L7.60 124.01ZM14.20 124.01L7.60 124.01L7.60 109.96L14.20 109.96L14.20 124.01ZM16.18 115.67L20.79 115.67L20.79 116.55L17.05 116.55L17.05 124.01L16.18 124.01L16.18 115.67ZM17.93 124.01L17.93 117.43L20.79 117.43L20.79 118.30L18.81 118.30L18.81 124.01L17.93 124.01ZM20.79 116.55L20.79 115.67L27.39 115.67L27.39 116.55L20.79 116.55ZM20.79 118.30L20.79 117.43L27.39 117.43L27.39 118.30L20.79 118.30ZM27.39 116.55L27.39 115.67L33.99 115.67L33.99 116.55L27.39 116.55ZM27.39 118.30L27.39 117.43L33.99 117.43L33.99 118.30L27.39 118.30ZM40.59 124.01L33.99 124.01L33.99 109.96L40.59 109.96L40.59 124.01ZM47.18 124.01L40.59 124.01L40.59 109.96L47.18 109.96L47.18 124.01ZM47.18 115.67L51.80 115.67L51.80 124.01L50.92 124.01L50.92 116.55L47.18 116.55L47.18 115.67ZM47.18 117.43L50.04 117.43L50.04 124.01L49.16 124.01L49.16 118.30L47.18 118.30L47.18 117.43ZM60.38 124.01L53.78 124.01L53.78 109.96L60.38 109.96L60.38 124.01ZM66.98 124.01L60.38 124.01L60.38 109.96L66.98 109.96L66.98 124.01ZM68.96 115.67L73.57 115.67L73.57 116.55L69.84 116.55L69.84 124.01L68.96 124.01L68.96 115.67ZM70.71 124.01L70.71 117.43L73.57 117.43L73.57 118.30L71.59 118.30L71.59 124.01L70.71 124.01ZM73.57 116.55L73.57 115.67L80.17 115.67L80.17 116.55L73.57 116.55ZM73.57 118.30L73.57 117.43L80.17 117.43L80.17 118.30L73.57 118.30ZM80.17 116.55L80.17 115.67L86.77 115.67L86.77 116.55L80.17 116.55ZM80.17 118.30L80.17 117.43L86.77 117.43L86.77 118.30L80.17 118.30ZM86.77 116.55L86.77 115.67L93.37 115.67L93.37 116.55L86.77 116.55ZM86.77 118.30L86.77 117.43L93.37 117.43L93.37 118.30L86.77 118.30ZM93.37 116.55L93.37 115.67L99.96 115.67L99.96 116.55L93.37 116.55ZM93.37 118.30L93.37 117.43L99.96 117.43L99.96 118.30L93.37 118.30ZM104.58 118.30L99.96 118.30L99.96 117.43L103.70 117.43L103.70 109.96L104.58 109.96L104.58 118.30ZM102.82 109.96L102.82 116.55L99.96 116.55L99.96 115.67L101.95 115.67L101.95 109.96L102.82 109.96ZM113.16 124.01L106.56 124.01L106.56 109.96L113.16 109.96L113.16 124.01ZM119.76 124.01L113.16 124.01L113.16 109.96L119.76 109.96L119.76 124.01ZM121.74 115.67L126.36 115.67L126.36 116.55L122.62 116.55L122.62 124.01L121.74 124.01L121.74 115.67ZM123.50 124.01L123.50 117.43L126.36 117.43L126.36 118.30L124.38 118.30L124.38 124.01L123.50 124.01ZM126.36 116.55L126.36 115.67L132.95 115.67L132.95 116.55L126.36 116.55ZM126.36 118.30L126.36 117.43L132.95 117.43L132.95 118.30L126.36 118.30ZM132.95 116.55L132.95 115.67L139.55 115.67L139.55 116.55L132.95 116.55ZM132.95 118.30L132.95 117.43L139.55 117.43L139.55 118.30L132.95 118.30ZM146.15 124.01L139.55 124.01L139.55 109.96L146.15 109.96L146.15 124.01ZM152.75 124.01L146.15 124.01L146.15 109.96L152.75 109.96L152.75 124.01ZM152.75 115.67L157.36 115.67L157.36 124.01L156.48 124.01L156.48 116.55L152.75 116.55L152.75 115.67ZM152.75 117.43L155.61 117.43L155.61 124.01L154.73 124.01L154.73 118.30L152.75 118.30L152.75 117.43ZM165.94 124.01L159.34 124.01L159.34 109.96L165.94 109.96L165.94 124.01ZM172.54 124.01L165.94 124.01L165.94 109.96L172.54 109.96L172.54 124.01ZM174.52 124.01L174.52 109.96L175.40 109.96L175.40 124.01L174.52 124.01ZM177.16 124.01L176.28 124.01L176.28 109.96L177.16 109.96L177.16 124.01ZM205.53 124.01L198.93 124.01L198.93 109.96L205.53 109.96L205.53 124.01ZM212.13 124.01L205.53 124.01L205.53 109.96L212.13 109.96L212.13 124.01ZM214.11 124.01L214.11 109.96L214.98 109.96L214.98 124.01L214.11 124.01ZM216.74 124.01L215.86 124.01L215.86 109.96L216.74 109.96L216.74 124.01ZM225.32 124.01L218.72 124.01L218.72 109.96L225.32 109.96L225.32 124.01ZM231.92 124.01L225.32 124.01L225.32 109.96L231.92 109.96L231.92 124.01ZM233.90 115.67L238.52 115.67L238.52 116.55L234.78 116.55L234.78 124.01L233.90 124.01L233.90 115.67ZM235.66 124.01L235.66 117.43L238.52 117.43L238.52 118.30L236.54 118.30L236.54 124.01L235.66 124.01ZM238.52 116.55L238.52 115.67L245.11 115.67L245.11 116.55L238.52 116.55ZM238.52 118.30L238.52 117.43L245.11 117.43L245.11 118.30L238.52 118.30ZM245.11 116.55L245.11 115.67L251.71 115.67L251.71 116.55L245.11 116.55ZM245.11 118.30L245.11 117.43L251.71 117.43L251.71 118.30L245.11 118.30ZM251.71 116.55L251.71 115.67L258.31 115.67L258.31 116.55L251.71 116.55ZM251.71 118.30L251.71 117.43L258.31 117.43L258.31 118.30L251.71 118.30ZM258.31 116.55L258.31 115.67L264.91 115.67L264.91 116.55L258.31 116.55ZM258.31 118.30L258.31 117.43L264.91 117.43L264.91 118.30L258.31 118.30ZM269.52 118.30L264.91 118.30L264.91 117.43L268.64 117.43L268.64 109.96L269.52 109.96L269.52 118.30ZM267.77 109.96L267.77 116.55L264.91 116.55L264.91 115.67L266.89 115.67L266.89 109.96L267.77 109.96ZM284.70 124.01L278.10 124.01L278.10 109.96L284.70 109.96L284.70 124.01ZM291.30 124.01L284.70 124.01L284.70 109.96L291.30 109.96L291.30 124.01ZM293.28 115.67L297.89 115.67L297.89 116.55L294.16 116.55L294.16 124.01L293.28 124.01L293.28 115.67ZM295.04 124.01L295.04 117.43L297.89 117.43L297.89 118.30L295.91 118.30L295.91 124.01L295.04 124.01ZM297.89 116.55L297.89 115.67L304.49 115.67L304.49 116.55L297.89 116.55ZM297.89 118.30L297.89 117.43L304.49 117.43L304.49 118.30L297.89 118.30ZM304.49 116.55L304.49 115.67L311.09 115.67L311.09 116.55L304.49 116.55ZM304.49 118.30L304.49 117.43L311.09 117.43L311.09 118.30L304.49 118.30ZM311.09 116.55L311.09 115.67L317.69 115.67L317.69 116.55L311.09 116.55ZM311.09 118.30L311.09 117.43L317.69 117.43L317.69 118.30L311.09 118.30ZM317.69 116.55L317.69 115.67L324.29 115.67L324.29 116.55L317.69 116.55ZM317.69 118.30L317.69 117.43L324.29 117.43L324.29 118.30L317.69 118.30ZM328.90 118.30L324.29 118.30L324.29 117.43L328.02 117.43L328.02 109.96L328.90 109.96L328.90 118.30ZM327.14 109.96L327.14 116.55L324.29 116.55L324.29 115.67L326.27 115.67L326.27 109.96L327.14 109.96ZM344.08 124.01L337.48 124.01L337.48 109.96L344.08 109.96L344.08 124.01ZM350.68 124.01L344.08 124.01L344.08 109.96L350.68 109.96L350.68 124.01ZM352.66 115.67L357.27 115.67L357.27 116.55L353.54 116.55L353.54 124.01L352.66 124.01L352.66 115.67ZM354.41 124.01L354.41 117.43L357.27 117.43L357.27 118.30L355.29 118.30L355.29 124.01L354.41 124.01ZM357.27 116.55L357.27 115.67L363.87 115.67L363.87 116.55L357.27 116.55ZM357.27 118.30L357.27 117.43L363.87 117.43L363.87 118.30L357.27 118.30ZM363.87 116.55L363.87 115.67L370.47 115.67L370.47 116.55L363.87 116.55ZM363.87 118.30L363.87 117.43L370.47 117.43L370.47 118.30L363.87 118.30ZM370.47 116.55L370.47 115.67L377.07 115.67L377.07 116.55L370.47 116.55ZM370.47 118.30L370.47 117.43L377.07 117.43L377.07 118.30L370.47 118.30ZM377.07 116.55L377.07 115.67L383.66 115.67L383.66 116.55L377.07 116.55ZM377.07 118.30L377.07 117.43L383.66 117.43L383.66 118.30L377.07 118.30ZM388.28 118.30L383.66 118.30L383.66 117.43L387.40 117.43L387.40 109.96L388.28 109.96L388.28 118.30ZM386.52 109.96L386.52 116.55L383.66 116.55L383.66 115.67L385.64 115.67L385.64 109.96L386.52 109.96ZM396.86 124.01L390.26 124.01L390.26 109.96L396.86 109.96L396.86 124.01ZM403.46 124.01L396.86 124.01L396.86 109.96L403.46 109.96L403.46 124.01ZM405.44 115.67L410.05 115.67L410.05 116.55L406.32 116.55L406.32 124.01L405.44 124.01L405.44 115.67ZM407.20 124.01L407.20 117.43L410.05 117.43L410.05 118.30L408.07 118.30L408.07 124.01L407.20 124.01ZM410.05 116.55L410.05 115.67L416.65 115.67L416.65 116.55L410.05 116.55ZM410.05 118.30L410.05 117.43L416.65 117.43L416.65 118.30L410.05 118.30ZM416.65 116.55L416.65 115.67L423.25 115.67L423.25 116.55L416.65 116.55ZM416.65 118.30L416.65 117.43L423.25 117.43L423.25 118.30L416.65 118.30ZM429.85 124.01L423.25 124.01L423.25 109.96L429.85 109.96L429.85 124.01ZM436.45 124.01L429.85 124.01L429.85 109.96L436.45 109.96L436.45 124.01ZM436.45 115.67L441.06 115.67L441.06 124.01L440.18 124.01L440.18 116.55L436.45 116.55L436.45 115.67ZM436.45 117.43L439.30 117.43L439.30 124.01L438.43 124.01L438.43 118.30L436.45 118.30L436.45 117.43Z" class="ascii-path" />
  <path d="M7.60 136.01L1 136.01L1 121.96L7.60 121.96L7.60 136.01ZM14.20 136.01L7.60 136.01L7.60 121.96L14.20 121.96L14.20 136.01ZM16.18 136.01L16.18 121.96L17.05 121.96L17.05 136.01L16.18 136.01ZM18.81 136.01L17.93 136.01L17.93 121.96L18.81 121.96L18.81 136.01ZM40.59 136.01L33.99 136.01L33.99 121.96L40.59 121.96L40.59 136.01ZM47.18 136.01L40.59 136.01L40.59 121.96L47.18 121.96L47.18 136.01ZM49.16 136.01L49.16 121.96L50.04 121.96L50.04 136.01L49.16 136.01ZM51.80 136.01L50.92 136.01L50.92 121.96L51.80 121.96L51.80 136.01ZM60.38 136.01L53.78 136.01L53.78 121.96L60.38 121.96L60.38 136.01ZM66.98 136.01L60.38 136.01L60.38 121.96L66.98 121.96L66.98 136.01ZM73.57 136.01L66.98 136.01L66.98 121.96L73.57 121.96L73.57 136.01ZM80.17 136.01L73.57 136.01L73.57 121.96L80.17 121.96L80.17 136.01ZM86.77 136.01L80.17 136.01L80.17 121.96L86.77 121.96L86.77 136.01ZM86.77 127.67L91.39 127.67L91.39 136.01L90.51 136.01L90.51 128.55L86.77 128.55L86.77 127.67ZM86.77 129.43L89.63 129.43L89.63 136.01L88.75 136.01L88.75 130.30L86.77 130.30L86.77 129.43ZM113.16 136.01L106.56 136.01L106.56 121.96L113.16 121.96L113.16 136.01ZM119.76 136.01L113.16 136.01L113.16 121.96L119.76 121.96L119.76 136.01ZM126.36 136.01L119.76 136.01L119.76 121.96L126.36 121.96L126.36 136.01ZM132.95 136.01L126.36 136.01L126.36 121.96L132.95 121.96L132.95 136.01ZM139.55 136.01L132.95 136.01L132.95 121.96L139.55 121.96L139.55 136.01ZM146.15 136.01L139.55 136.01L139.55 121.96L146.15 121.96L146.15 136.01ZM148.13 127.67L152.75 127.67L152.75 128.55L149.01 128.55L149.01 136.01L148.13 136.01L148.13 127.67ZM149.89 136.01L149.89 129.43L152.75 129.43L152.75 130.30L150.77 130.30L150.77 136.01L149.89 136.01ZM157.36 130.30L152.75 130.30L152.75 129.43L156.48 129.43L156.48 121.96L157.36 121.96L157.36 130.30ZM155.61 121.96L155.61 128.55L152.75 128.55L152.75 127.67L154.73 127.67L154.73 121.96L155.61 121.96ZM165.94 136.01L159.34 136.01L159.34 121.96L165.94 121.96L165.94 136.01ZM172.54 136.01L165.94 136.01L165.94 121.96L172.54 121.96L172.54 136.01ZM174.52 136.01L174.52 121.96L175.40 121.96L175.40 136.01L174.52 136.01ZM177.16 136.01L176.28 136.01L176.28 121.96L177.16 121.96L177.16 136.01ZM205.53 136.01L198.93 136.01L198.93 121.96L205.53 121.96L205.53 136.01ZM212.13 136.01L205.53 136.01L205.53 121.96L212.13 121.96L212.13 136.01ZM214.11 136.01L214.11 121.96L214.98 121.96L214.98 136.01L214.11 136.01ZM216.74 136.01L215.86 136.01L215.86 121.96L216.74 121.96L216.74 136.01ZM225.32 136.01L218.72 136.01L218.72 121.96L225.32 121.96L225.32 136.01ZM231.92 136.01L225.32 136.01L225.32 121.96L231.92 121.96L231.92 136.01ZM233.90 136.01L233.90 121.96L234.78 121.96L234.78 136.01L233.90 136.01ZM236.54 136.01L235.66 136.01L235.66 121.96L236.54 121.96L236.54 136.01ZM258.31 136.01L251.71 136.01L251.71 121.96L258.31 121.96L258.31 136.01ZM264.91 136.01L258.31 136.01L258.31 121.96L264.91 121.96L264.91 136.01ZM271.50 136.01L264.91 136.01L264.91 121.96L271.50 121.96L271.50 136.01ZM271.50 127.67L276.12 127.67L276.12 136.01L275.24 136.01L275.24 128.55L271.50 128.55L271.50 127.67ZM271.50 129.43L274.36 129.43L274.36 136.01L273.48 136.01L273.48 130.30L271.50 130.30L271.50 129.43ZM284.70 136.01L278.10 136.01L278.10 121.96L284.70 121.96L284.70 136.01ZM291.30 136.01L284.70 136.01L284.70 121.96L291.30 121.96L291.30 136.01ZM293.28 136.01L293.28 121.96L294.16 121.96L294.16 136.01L293.28 136.01ZM295.91 136.01L295.04 136.01L295.04 121.96L295.91 121.96L295.91 136.01ZM317.69 136.01L311.09 136.01L311.09 121.96L317.69 121.96L317.69 136.01ZM324.29 136.01L317.69 136.01L317.69 121.96L324.29 121.96L324.29 136.01ZM330.88 136.01L324.29 136.01L324.29 121.96L330.88 121.96L330.88 136.01ZM330.88 127.67L335.50 127.67L335.50 136.01L334.62 136.01L334.62 128.55L330.88 128.55L330.88 127.67ZM330.88 129.43L333.74 129.43L333.74 136.01L332.86 136.01L332.86 130.30L330.88 130.30L330.88 129.43ZM344.08 136.01L337.48 136.01L337.48 121.96L344.08 121.96L344.08 136.01ZM350.68 136.01L344.08 136.01L344.08 121.96L350.68 121.96L350.68 136.01ZM357.27 136.01L350.68 136.01L350.68 121.96L357.27 121.96L357.27 136.01ZM363.87 136.01L357.27 136.01L357.27 121.96L363.87 121.96L363.87 136.01ZM370.47 136.01L363.87 136.01L363.87 121.96L370.47 121.96L370.47 136.01ZM370.47 127.67L375.09 127.67L375.09 136.01L374.21 136.01L374.21 128.55L370.47 128.55L370.47 127.67ZM370.47 129.43L373.33 129.43L373.33 136.01L372.45 136.01L372.45 130.30L370.47 130.30L370.47 129.43ZM396.86 136.01L390.26 136.01L390.26 121.96L396.86 121.96L396.86 136.01ZM403.46 136.01L396.86 136.01L396.86 121.96L403.46 121.96L403.46 136.01ZM410.05 136.01L403.46 136.01L403.46 121.96L410.05 121.96L410.05 136.01ZM416.65 136.01L410.05 136.01L410.05 121.96L416.65 121.96L416.65 136.01ZM423.25 136.01L416.65 136.01L416.65 121.96L423.25 121.96L423.25 136.01ZM429.85 136.01L423.25 136.01L423.25 121.96L429.85 121.96L429.85 136.01ZM431.83 127.67L436.45 127.67L436.45 128.55L432.71 128.55L432.71 136.01L431.83 136.01L431.83 127.67ZM433.59 136.01L433.59 129.43L436.45 129.43L436.45 130.30L434.46 130.30L434.46 136.01L433.59 136.01ZM441.06 130.30L436.45 130.30L436.45 129.43L440.18 129.43L440.18 121.96L441.06 121.96L441.06 130.30ZM439.30 121.96L439.30 128.55L436.45 128.55L436.45 127.67L438.43 127.67L438.43 121.96L439.30 121.96Z" class="ascii-path" />
  <path d="M7.60 148.01L1 148.01L1 133.96L7.60 133.96L7.60 148.01ZM14.20 148.01L7.60 148.01L7.60 133.96L14.20 133.96L14.20 148.01ZM16.18 148.01L16.18 133.96L17.05 133.96L17.05 148.01L16.18 148.01ZM18.81 148.01L17.93 148.01L17.93 133.96L18.81 133.96L18.81 148.01ZM40.59 148.01L33.99 148.01L33.99 133.96L40.59 133.96L40.59 148.01ZM47.18 148.01L40.59 148.01L40.59 133.96L47.18 133.96L47.18 148.01ZM49.16 148.01L49.16 133.96L50.04 133.96L50.04 148.01L49.16 148.01ZM51.80 148.01L50.92 148.01L50.92 133.96L51.80 133.96L51.80 148.01ZM60.38 148.01L53.78 148.01L53.78 133.96L60.38 133.96L60.38 148.01ZM66.98 148.01L60.38 148.01L60.38 133.96L66.98 133.96L66.98 148.01ZM68.96 139.67L73.57 139.67L73.57 140.55L69.84 140.55L69.84 148.01L68.96 148.01L68.96 139.67ZM70.71 148.01L70.71 141.43L73.57 141.43L73.57 142.30L71.59 142.30L71.59 148.01L70.71 148.01ZM73.57 140.55L73.57 139.67L80.17 139.67L80.17 140.55L73.57 140.55ZM73.57 142.30L73.57 141.43L80.17 141.43L80.17 142.30L73.57 142.30ZM80.17 140.55L80.17 139.67L86.77 139.67L86.77 140.55L80.17 140.55ZM80.17 142.30L80.17 141.43L86.77 141.43L86.77 142.30L80.17 142.30ZM91.39 142.30L86.77 142.30L86.77 141.43L90.51 141.43L90.51 133.96L91.39 133.96L91.39 142.30ZM89.63 133.96L89.63 140.55L86.77 140.55L86.77 139.67L88.75 139.67L88.75 133.96L89.63 133.96ZM113.16 148.01L106.56 148.01L106.56 133.96L113.16 133.96L113.16 148.01ZM119.76 148.01L113.16 148.01L113.16 133.96L119.76 133.96L119.76 148.01ZM121.74 139.67L126.36 139.67L126.36 140.55L122.62 140.55L122.62 148.01L121.74 148.01L121.74 139.67ZM123.50 148.01L123.50 141.43L126.36 141.43L126.36 142.30L124.38 142.30L124.38 148.01L123.50 148.01ZM126.36 140.55L126.36 139.67L132.95 139.67L132.95 140.55L126.36 140.55ZM126.36 142.30L126.36 141.43L132.95 141.43L132.95 142.30L126.36 142.30ZM132.95 140.55L132.95 139.67L139.55 139.67L139.55 140.55L132.95 140.55ZM132.95 142.30L132.95 141.43L139.55 141.43L139.55 142.30L132.95 142.30ZM146.15 148.01L139.55 148.01L139.55 133.96L146.15 133.96L146.15 148.01ZM152.75 148.01L146.15 148.01L146.15 133.96L152.75 133.96L152.75 148.01ZM152.75 139.67L157.36 139.67L157.36 148.01L156.48 148.01L156.48 140.55L152.75 140.55L152.75 139.67ZM152.75 141.43L155.61 141.43L155.61 148.01L154.73 148.01L154.73 142.30L152.75 142.30L152.75 141.43ZM165.94 148.01L159.34 148.01L159.34 133.96L165.94 133.96L165.94 148.01ZM172.54 148.01L165.94 148.01L165.94 133.96L172.54 133.96L172.54 148.01ZM174.52 148.01L174.52 133.96L175.40 133.96L175.40 148.01L174.52 148.01ZM177.16 148.01L176.28 148.01L176.28 133.96L177.16 133.96L177.16 148.01ZM205.53 148.01L198.93 148.01L198.93 133.96L205.53 133.96L205.53 148.01ZM212.13 148.01L205.53 148.01L205.53 133.96L212.13 133.96L212.13 148.01ZM214.11 148.01L214.11 133.96L214.98 133.96L214.98 148.01L214.11 148.01ZM216.74 148.01L215.86 148.01L215.86 133.96L216.74 133.96L216.74 148.01ZM225.32 148.01L218.72 148.01L218.72 133.96L225.32 133.96L225.32 148.01ZM231.92 148.01L225.32 148.01L225.32 133.96L231.92 133.96L231.92 148.01ZM233.90 148.01L233.90 133.96L234.78 133.96L234.78 148.01L233.90 148.01ZM236.54 148.01L235.66 148.01L235.66 133.96L236.54 133.96L236.54 148.01ZM264.91 148.01L258.31 148.01L258.31 133.96L264.91 133.96L264.91 148.01ZM271.50 148.01L264.91 148.01L264.91 133.96L271.50 133.96L271.50 148.01ZM273.48 148.01L273.48 133.96L274.36 133.96L274.36 148.01L273.48 148.01ZM276.12 148.01L275.24 148.01L275.24 133.96L276.12 133.96L276.12 148.01ZM284.70 148.01L278.10 148.01L278.10 133.96L284.70 133.96L284.70 148.01ZM291.30 148.01L284.70 148.01L284.70 133.96L291.30 133.96L291.30 148.01ZM293.28 148.01L293.28 133.96L294.16 133.96L294.16 148.01L293.28 148.01ZM295.91 148.01L295.04 148.01L295.04 133.96L295.91 133.96L295.91 148.01ZM324.29 148.01L317.69 148.01L317.69 133.96L324.29 133.96L324.29 148.01ZM330.88 148.01L324.29 148.01L324.29 133.96L330.88 133.96L330.88 148.01ZM332.86 148.01L332.86 133.96L333.74 133.96L333.74 148.01L332.86 148.01ZM335.50 148.01L334.62 148.01L334.62 133.96L335.50 133.96L335.50 148.01ZM344.08 148.01L337.48 148.01L337.48 133.96L344.08 133.96L344.08 148.01ZM350.68 148.01L344.08 148.01L344.08 133.96L350.68 133.96L350.68 148.01ZM352.66 139.67L357.27 139.67L357.27 140.55L353.54 140.55L353.54 148.01L352.66 148.01L352.66 139.67ZM354.41 148.01L354.41 141.43L357.27 141.43L357.27 142.30L355.29 142.30L355.29 148.01L354.41 148.01ZM357.27 140.55L357.27 139.67L363.87 139.67L363.87 140.55L357.27 140.55ZM357.27 142.30L357.27 141.43L363.87 141.43L363.87 142.30L357.27 142.30ZM363.87 140.55L363.87 139.67L370.47 139.67L370.47 140.55L363.87 140.55ZM363.87 142.30L363.87 141.43L370.47 141.43L370.47 142.30L363.87 142.30ZM375.09 142.30L370.47 142.30L370.47 141.43L374.21 141.43L374.21 133.96L375.09 133.96L375.09 142.30ZM373.33 133.96L373.33 140.55L370.47 140.55L370.47 139.67L372.45 139.67L372.45 133.96L373.33 133.96ZM396.86 148.01L390.26 148.01L390.26 133.96L396.86 133.96L396.86 148.01ZM403.46 148.01L396.86 148.01L396.86 133.96L403.46 133.96L403.46 148.01ZM405.44 139.67L410.05 139.67L410.05 140.55L406.32 140.55L406.32 148.01L405.44 148.01L405.44 139.67ZM407.20 148.01L407.20 141.43L410.05 141.43L410.05 142.30L408.07 142.30L408.07 148.01L407.20 148.01ZM410.05 140.55L410.05 139.67L416.65 139.67L416.65 140.55L410.05 140.55ZM410.05 142.30L410.05 141.43L416.65 141.43L416.65 142.30L410.05 142.30ZM416.65 140.55L416.65 139.67L423.25 139.67L423.25 140.55L416.65 140.55ZM416.65 142.30L416.65 141.43L423.25 141.43L423.25 142.30L416.65 142.30ZM429.85 148.01L423.25 148.01L423.25 133.96L429.85 133.96L429.85 148.01ZM436.45 148.01L429.85 148.01L429.85 133.96L436.45 133.96L436.45 148.01ZM436.45 139.67L441.06 139.67L441.06 148.01L440.18 148.01L440.18 140.55L436.45 140.55L436.45 139.67ZM436.45 141.43L439.30 141.43L439.30 148.01L438.43 148.01L438.43 142.30L436.45 142.30L436.45 141.43Z" class="ascii-path" />
  <path d="M7.60 160.01L1 160.01L1 145.96L7.60 145.96L7.60 160.01ZM14.20 160.01L7.60 160.01L7.60 145.96L14.20 145.96L14.20 160.01ZM20.79 160.01L14.20 160.01L14.20 145.96L20.79 145.96L20.79 160.01ZM27.39 160.01L20.79 160.01L20.79 145.96L27.39 145.96L27.39 160.01ZM33.99 160.01L27.39 160.01L27.39 145.96L33.99 145.96L33.99 160.01ZM40.59 160.01L33.99 160.01L33.99 145.96L40.59 145.96L40.59 160.01ZM42.57 151.67L47.18 151.67L47.18 152.55L43.45 152.55L43.45 160.01L42.57 160.01L42.57 151.67ZM44.32 160.01L44.32 153.43L47.18 153.43L47.18 154.30L45.20 154.30L45.20 160.01L44.32 160.01ZM51.80 154.30L47.18 154.30L47.18 153.43L50.92 153.43L50.92 145.96L51.80 145.96L51.80 154.30ZM50.04 145.96L50.04 152.55L47.18 152.55L47.18 151.67L49.16 151.67L49.16 145.96L50.04 145.96ZM60.38 160.01L53.78 160.01L53.78 145.96L60.38 145.96L60.38 160.01ZM66.98 160.01L60.38 160.01L60.38 145.96L66.98 145.96L66.98 160.01ZM73.57 160.01L66.98 160.01L66.98 145.96L73.57 145.96L73.57 160.01ZM80.17 160.01L73.57 160.01L73.57 145.96L80.17 145.96L80.17 160.01ZM86.77 160.01L80.17 160.01L80.17 145.96L86.77 145.96L86.77 160.01ZM93.37 160.01L86.77 160.01L86.77 145.96L93.37 145.96L93.37 160.01ZM99.96 160.01L93.37 160.01L93.37 145.96L99.96 145.96L99.96 160.01ZM99.96 151.67L104.58 151.67L104.58 160.01L103.70 160.01L103.70 152.55L99.96 152.55L99.96 151.67ZM99.96 153.43L102.82 153.43L102.82 160.01L101.95 160.01L101.95 154.30L99.96 154.30L99.96 153.43ZM113.16 160.01L106.56 160.01L106.56 145.96L113.16 145.96L113.16 160.01ZM119.76 160.01L113.16 160.01L113.16 145.96L119.76 145.96L119.76 160.01ZM126.36 160.01L119.76 160.01L119.76 145.96L126.36 145.96L126.36 160.01ZM132.95 160.01L126.36 160.01L126.36 145.96L132.95 145.96L132.95 160.01ZM139.55 160.01L132.95 160.01L132.95 145.96L139.55 145.96L139.55 160.01ZM146.15 160.01L139.55 160.01L139.55 145.96L146.15 145.96L146.15 160.01ZM148.13 151.67L152.75 151.67L152.75 152.55L149.01 152.55L149.01 160.01L148.13 160.01L148.13 151.67ZM149.89 160.01L149.89 153.43L152.75 153.43L152.75 154.30L150.77 154.30L150.77 160.01L149.89 160.01ZM157.36 154.30L152.75 154.30L152.75 153.43L156.48 153.43L156.48 145.96L157.36 145.96L157.36 154.30ZM155.61 145.96L155.61 152.55L152.75 152.55L152.75 151.67L154.73 151.67L154.73 145.96L155.61 145.96ZM165.94 154.30L161.32 154.30L161.32 145.96L162.20 145.96L162.20 153.43L165.94 153.43L165.94 154.30ZM165.94 152.55L163.08 152.55L163.08 145.96L163.96 145.96L163.96 151.67L165.94 151.67L165.94 152.55ZM172.54 160.01L165.94 160.01L165.94 145.96L172.54 145.96L172.54 160.01ZM179.14 160.01L172.54 160.01L172.54 145.96L179.14 145.96L179.14 160.01ZM185.73 160.01L179.14 160.01L179.14 145.96L185.73 145.96L185.73 160.01ZM192.33 160.01L185.73 160.01L185.73 145.96L192.33 145.96L192.33 160.01ZM198.93 160.01L192.33 160.01L192.33 145.96L198.93 145.96L198.93 160.01ZM205.53 160.01L198.93 160.01L198.93 145.96L205.53 145.96L205.53 160.01ZM207.51 151.67L212.13 151.67L212.13 152.55L208.39 152.55L208.39 160.01L207.51 160.01L207.51 151.67ZM209.27 160.01L209.27 153.43L212.13 153.43L212.13 154.30L210.14 154.30L210.14 160.01L209.27 160.01ZM216.74 154.30L212.13 154.30L212.13 153.43L215.86 153.43L215.86 145.96L216.74 145.96L216.74 154.30ZM214.98 145.96L214.98 152.55L212.13 152.55L212.13 151.67L214.11 151.67L214.11 145.96L214.98 145.96ZM225.32 154.30L220.70 154.30L220.70 145.96L221.58 145.96L221.58 153.43L225.32 153.43L225.32 154.30ZM225.32 152.55L222.46 152.55L222.46 145.96L223.34 145.96L223.34 151.67L225.32 151.67L225.32 152.55ZM231.92 160.01L225.32 160.01L225.32 145.96L231.92 145.96L231.92 160.01ZM238.52 160.01L231.92 160.01L231.92 145.96L238.52 145.96L238.52 160.01ZM245.11 160.01L238.52 160.01L238.52 145.96L245.11 145.96L245.11 160.01ZM251.71 160.01L245.11 160.01L245.11 145.96L251.71 145.96L251.71 160.01ZM258.31 160.01L251.71 160.01L251.71 145.96L258.31 145.96L258.31 160.01ZM264.91 160.01L258.31 160.01L258.31 145.96L264.91 145.96L264.91 160.01ZM266.89 151.67L271.50 151.67L271.50 152.55L267.77 152.55L267.77 160.01L266.89 160.01L266.89 151.67ZM268.64 160.01L268.64 153.43L271.50 153.43L271.50 154.30L269.52 154.30L269.52 160.01L268.64 160.01ZM276.12 154.30L271.50 154.30L271.50 153.43L275.24 153.43L275.24 145.96L276.12 145.96L276.12 154.30ZM274.36 145.96L274.36 152.55L271.50 152.55L271.50 151.67L273.48 151.67L273.48 145.96L274.36 145.96ZM284.70 154.30L280.08 154.30L280.08 145.96L280.96 145.96L280.96 153.43L284.70 153.43L284.70 154.30ZM284.70 152.55L281.84 152.55L281.84 145.96L282.72 145.96L282.72 151.67L284.70 151.67L284.70 152.55ZM291.30 160.01L284.70 160.01L284.70 145.96L291.30 145.96L291.30 160.01ZM297.89 160.01L291.30 160.01L291.30 145.96L297.89 145.96L297.89 160.01ZM304.49 160.01L297.89 160.01L297.89 145.96L304.49 145.96L304.49 160.01ZM311.09 160.01L304.49 160.01L304.49 145.96L311.09 145.96L311.09 160.01ZM317.69 160.01L311.09 160.01L311.09 145.96L317.69 145.96L317.69 160.01ZM324.29 160.01L317.69 160.01L317.69 145.96L324.29 145.96L324.29 160.01ZM326.27 151.67L330.88 151.67L330.88 152.55L327.14 152.55L327.14 160.01L326.27 160.01L326.27 151.67ZM328.02 160.01L328.02 153.43L330.88 153.43L330.88 154.30L328.90 154.30L328.90 160.01L328.02 160.01ZM335.50 154.30L330.88 154.30L330.88 153.43L334.62 153.43L334.62 145.96L335.50 145.96L335.50 154.30ZM333.74 145.96L333.74 152.55L330.88 152.55L330.88 151.67L332.86 151.67L332.86 145.96L333.74 145.96ZM344.08 160.01L337.48 160.01L337.48 145.96L344.08 145.96L344.08 160.01ZM350.68 160.01L344.08 160.01L344.08 145.96L350.68 145.96L350.68 160.01ZM357.27 160.01L350.68 160.01L350.68 145.96L357.27 145.96L357.27 160.01ZM363.87 160.01L357.27 160.01L357.27 145.96L363.87 145.96L363.87 160.01ZM370.47 160.01L363.87 160.01L363.87 145.96L370.47 145.96L370.47 160.01ZM377.07 160.01L370.47 160.01L370.47 145.96L377.07 145.96L377.07 160.01ZM383.66 160.01L377.07 160.01L377.07 145.96L383.66 145.96L383.66 160.01ZM383.66 151.67L388.28 151.67L388.28 160.01L387.40 160.01L387.40 152.55L383.66 152.55L383.66 151.67ZM383.66 153.43L386.52 153.43L386.52 160.01L385.64 160.01L385.64 154.30L383.66 154.30L383.66 153.43ZM396.86 160.01L390.26 160.01L390.26 145.96L396.86 145.96L396.86 160.01ZM403.46 160.01L396.86 160.01L396.86 145.96L403.46 145.96L403.46 160.01ZM405.44 160.01L405.44 145.96L406.32 145.96L406.32 160.01L405.44 160.01ZM408.07 160.01L407.20 160.01L407.20 145.96L408.07 145.96L408.07 160.01ZM429.85 160.01L423.25 160.01L423.25 145.96L429.85 145.96L429.85 160.01ZM436.45 160.01L429.85 160.01L429.85 145.96L436.45 145.96L436.45 160.01ZM438.43 160.01L438.43 145.96L439.30 145.96L439.30 160.01L438.43 160.01ZM441.06 160.01L440.18 160.01L440.18 145.96L441.06 145.96L441.06 160.01Z" class="ascii-path" />
  <path d="M7.60 166.30L2.98 166.30L2.98 157.96L3.86 157.96L3.86 165.43L7.60 165.43L7.60 166.30ZM7.60 164.55L4.74 164.55L4.74 157.96L5.62 157.96L5.62 163.67L7.60 163.67L7.60 164.55ZM7.60 164.55L7.60 163.67L14.20 163.67L14.20 164.55L7.60 164.55ZM7.60 166.30L7.60 165.43L14.20 165.43L14.20 166.30L7.60 166.30ZM14.20 164.55L14.20 163.67L20.79 163.67L20.79 164.55L14.20 164.55ZM14.20 166.30L14.20 165.43L20.79 165.43L20.79 166.30L14.20 166.30ZM20.79 164.55L20.79 163.67L27.39 163.67L27.39 164.55L20.79 164.55ZM20.79 166.30L20.79 165.43L27.39 165.43L27.39 166.30L20.79 166.30ZM27.39 164.55L27.39 163.67L33.99 163.67L33.99 164.55L27.39 164.55ZM27.39 166.30L27.39 165.43L33.99 165.43L33.99 166.30L27.39 166.30ZM33.99 164.55L33.99 163.67L40.59 163.67L40.59 164.55L33.99 164.55ZM33.99 166.30L33.99 165.43L40.59 165.43L40.59 166.30L33.99 166.30ZM45.20 166.30L40.59 166.30L40.59 165.43L44.32 165.43L44.32 157.96L45.20 157.96L45.20 166.30ZM43.45 157.96L43.45 164.55L40.59 164.55L40.59 163.67L42.57 163.67L42.57 157.96L43.45 157.96ZM60.38 166.30L55.76 166.30L55.76 157.96L56.64 157.96L56.64 165.43L60.38 165.43L60.38 166.30ZM60.38 164.55L57.52 164.55L57.52 157.96L58.40 157.96L58.40 163.67L60.38 163.67L60.38 164.55ZM60.38 164.55L60.38 163.67L66.98 163.67L66.98 164.55L60.38 164.55ZM60.38 166.30L60.38 165.43L66.98 165.43L66.98 166.30L60.38 166.30ZM66.98 164.55L66.98 163.67L73.57 163.67L73.57 164.55L66.98 164.55ZM66.98 166.30L66.98 165.43L73.57 165.43L73.57 166.30L66.98 166.30ZM73.57 164.55L73.57 163.67L80.17 163.67L80.17 164.55L73.57 164.55ZM73.57 166.30L73.57 165.43L80.17 165.43L80.17 166.30L73.57 166.30ZM80.17 164.55L80.17 163.67L86.77 163.67L86.77 164.55L80.17 164.55ZM80.17 166.30L80.17 165.43L86.77 165.43L86.77 166.30L80.17 166.30ZM86.77 164.55L86.77 163.67L93.37 163.67L93.37 164.55L86.77 164.55ZM86.77 166.30L86.77 165.43L93.37 165.43L93.37 166.30L86.77 166.30ZM93.37 164.55L93.37 163.67L99.96 163.67L99.96 164.55L93.37 164.55ZM93.37 166.30L93.37 165.43L99.96 165.43L99.96 166.30L93.37 166.30ZM104.58 166.30L99.96 166.30L99.96 165.43L103.70 165.43L103.70 157.96L104.58 157.96L104.58 166.30ZM102.82 157.96L102.82 164.55L99.96 164.55L99.96 163.67L101.95 163.67L101.95 157.96L102.82 157.96ZM113.16 166.30L108.54 166.30L108.54 157.96L109.42 157.96L109.42 165.43L113.16 165.43L113.16 166.30ZM113.16 164.55L110.30 164.55L110.30 157.96L111.18 157.96L111.18 163.67L113.16 163.67L113.16 164.55ZM113.16 164.55L113.16 163.67L119.76 163.67L119.76 164.55L113.16 164.55ZM113.16 166.30L113.16 165.43L119.76 165.43L119.76 166.30L113.16 166.30ZM119.76 164.55L119.76 163.67L126.36 163.67L126.36 164.55L119.76 164.55ZM119.76 166.30L119.76 165.43L126.36 165.43L126.36 166.30L119.76 166.30ZM126.36 164.55L126.36 163.67L132.95 163.67L132.95 164.55L126.36 164.55ZM126.36 166.30L126.36 165.43L132.95 165.43L132.95 166.30L126.36 166.30ZM132.95 164.55L132.95 163.67L139.55 163.67L139.55 164.55L132.95 164.55ZM132.95 166.30L132.95 165.43L139.55 165.43L139.55 166.30L132.95 166.30ZM139.55 164.55L139.55 163.67L146.15 163.67L146.15 164.55L139.55 164.55ZM139.55 166.30L139.55 165.43L146.15 165.43L146.15 166.30L139.55 166.30ZM150.77 166.30L146.15 166.30L146.15 165.43L149.89 165.43L149.89 157.96L150.77 157.96L150.77 166.30ZM149.01 157.96L149.01 164.55L146.15 164.55L146.15 163.67L148.13 163.67L148.13 157.96L149.01 157.96ZM172.54 166.30L167.92 166.30L167.92 157.96L168.80 157.96L168.80 165.43L172.54 165.43L172.54 166.30ZM172.54 164.55L169.68 164.55L169.68 157.96L170.56 157.96L170.56 163.67L172.54 163.67L172.54 164.55ZM172.54 164.55L172.54 163.67L179.14 163.67L179.14 164.55L172.54 164.55ZM172.54 166.30L172.54 165.43L179.14 165.43L179.14 166.30L172.54 166.30ZM179.14 164.55L179.14 163.67L185.73 163.67L185.73 164.55L179.14 164.55ZM179.14 166.30L179.14 165.43L185.73 165.43L185.73 166.30L179.14 166.30ZM185.73 164.55L185.73 163.67L192.33 163.67L192.33 164.55L185.73 164.55ZM185.73 166.30L185.73 165.43L192.33 165.43L192.33 166.30L185.73 166.30ZM192.33 164.55L192.33 163.67L198.93 163.67L198.93 164.55L192.33 164.55ZM192.33 166.30L192.33 165.43L198.93 165.43L198.93 166.30L192.33 166.30ZM198.93 164.55L198.93 163.67L205.53 163.67L205.53 164.55L198.93 164.55ZM198.93 166.30L198.93 165.43L205.53 165.43L205.53 166.30L198.93 166.30ZM210.14 166.30L205.53 166.30L205.53 165.43L209.27 165.43L209.27 157.96L210.14 157.96L210.14 166.30ZM208.39 157.96L208.39 164.55L205.53 164.55L205.53 163.67L207.51 163.67L207.51 157.96L208.39 157.96ZM231.92 166.30L227.30 166.30L227.30 157.96L228.18 157.96L228.18 165.43L231.92 165.43L231.92 166.30ZM231.92 164.55L229.06 164.55L229.06 157.96L229.94 157.96L229.94 163.67L231.92 163.67L231.92 164.55ZM231.92 164.55L231.92 163.67L238.52 163.67L238.52 164.55L231.92 164.55ZM231.92 166.30L231.92 165.43L238.52 165.43L238.52 166.30L231.92 166.30ZM238.52 164.55L238.52 163.67L245.11 163.67L245.11 164.55L238.52 164.55ZM238.52 166.30L238.52 165.43L245.11 165.43L245.11 166.30L238.52 166.30ZM245.11 164.55L245.11 163.67L251.71 163.67L251.71 164.55L245.11 164.55ZM245.11 166.30L245.11 165.43L251.71 165.43L251.71 166.30L245.11 166.30ZM251.71 164.55L251.71 163.67L258.31 163.67L258.31 164.55L251.71 164.55ZM251.71 166.30L251.71 165.43L258.31 165.43L258.31 166.30L251.71 166.30ZM258.31 164.55L258.31 163.67L264.91 163.67L264.91 164.55L258.31 164.55ZM258.31 166.30L258.31 165.43L264.91 165.43L264.91 166.30L258.31 166.30ZM269.52 166.30L264.91 166.30L264.91 165.43L268.64 165.43L268.64 157.96L269.52 157.96L269.52 166.30ZM267.77 157.96L267.77 164.55L264.91 164.55L264.91 163.67L266.89 163.67L266.89 157.96L267.77 157.96ZM291.30 166.30L286.68 166.30L286.68 157.96L287.56 157.96L287.56 165.43L291.30 165.43L291.30 166.30ZM291.30 164.55L288.44 164.55L288.44 157.96L289.32 157.96L289.32 163.67L291.30 163.67L291.30 164.55ZM291.30 164.55L291.30 163.67L297.89 163.67L297.89 164.55L291.30 164.55ZM291.30 166.30L291.30 165.43L297.89 165.43L297.89 166.30L291.30 166.30ZM297.89 164.55L297.89 163.67L304.49 163.67L304.49 164.55L297.89 164.55ZM297.89 166.30L297.89 165.43L304.49 165.43L304.49 166.30L297.89 166.30ZM304.49 164.55L304.49 163.67L311.09 163.67L311.09 164.55L304.49 164.55ZM304.49 166.30L304.49 165.43L311.09 165.43L311.09 166.30L304.49 166.30ZM311.09 164.55L311.09 163.67L317.69 163.67L317.69 164.55L311.09 164.55ZM311.09 166.30L311.09 165.43L317.69 165.43L317.69 166.30L311.09 166.30ZM317.69 164.55L317.69 163.67L324.29 163.67L324.29 164.55L317.69 164.55ZM317.69 166.30L317.69 165.43L324.29 165.43L324.29 166.30L317.69 166.30ZM328.90 166.30L324.29 166.30L324.29 165.43L328.02 165.43L328.02 157.96L328.90 157.96L328.90 166.30ZM327.14 157.96L327.14 164.55L324.29 164.55L324.29 163.67L326.27 163.67L326.27 157.96L327.14 157.96ZM344.08 166.30L339.46 166.30L339.46 157.96L340.34 157.96L340.34 165.43L344.08 165.43L344.08 166.30ZM344.08 164.55L341.22 164.55L341.22 157.96L342.10 157.96L342.10 163.67L344.08 163.67L344.08 164.55ZM344.08 164.55L344.08 163.67L350.68 163.67L350.68 164.55L344.08 164.55ZM344.08 166.30L344.08 165.43L350.68 165.43L350.68 166.30L344.08 166.30ZM350.68 164.55L350.68 163.67L357.27 163.67L357.27 164.55L350.68 164.55ZM350.68 166.30L350.68 165.43L357.27 165.43L357.27 166.30L350.68 166.30ZM357.27 164.55L357.27 163.67L363.87 163.67L363.87 164.55L357.27 164.55ZM357.27 166.30L357.27 165.43L363.87 165.43L363.87 166.30L357.27 166.30ZM363.87 164.55L363.87 163.67L370.47 163.67L370.47 164.55L363.87 164.55ZM363.87 166.30L363.87 165.43L370.47 165.43L370.47 166.30L363.87 166.30ZM370.47 164.55L370.47 163.67L377.07 163.67L377.07 164.55L370.47 164.55ZM370.47 166.30L370.47 165.43L377.07 165.43L377.07 166.30L370.47 166.30ZM377.07 164.55L377.07 163.67L383.66 163.67L383.66 164.55L377.07 164.55ZM377.07 166.30L377.07 165.43L383.66 165.43L383.66 166.30L377.07 166.30ZM388.28 166.30L383.66 166.30L383.66 165.43L387.40 165.43L387.40 157.96L388.28 157.96L388.28 166.30ZM386.52 157.96L386.52 164.55L383.66 164.55L383.66 163.67L385.64 163.67L385.64 157.96L386.52 157.96ZM396.86 166.30L392.24 166.30L392.24 157.96L393.12 157.96L393.12 165.43L396.86 165.43L396.86 166.30ZM396.86 164.55L394 164.55L394 157.96L394.88 157.96L394.88 163.67L396.86 163.67L396.86 164.55ZM396.86 164.55L396.86 163.67L403.46 163.67L403.46 164.55L396.86 164.55ZM396.86 166.30L396.86 165.43L403.46 165.43L403.46 166.30L396.86 166.30ZM408.07 166.30L403.46 166.30L403.46 165.43L407.20 165.43L407.20 157.96L408.07 157.96L408.07 166.30ZM406.32 157.96L406.32 164.55L403.46 164.55L403.46 163.67L405.44 163.67L405.44 157.96L406.32 157.96ZM429.85 166.30L425.23 166.30L425.23 157.96L426.11 157.96L426.11 165.43L429.85 165.43L429.85 166.30ZM429.85 164.55L426.99 164.55L426.99 157.96L427.87 157.96L427.87 163.67L429.85 163.67L429.85 164.55ZM429.85 164.55L429.85 163.67L436.45 163.67L436.45 164.55L429.85 164.55ZM429.85 166.30L429.85 165.43L436.45 165.43L436.45 166.30L429.85 166.30ZM441.06 166.30L436.45 166.30L436.45 165.43L440.18 165.43L440.18 157.96L441.06 157.96L441.06 166.30ZM439.30 157.96L439.30 164.55L436.45 164.55L436.45 163.67L438.43 163.67L438.43 157.96L439.30 157.96Z" class="ascii-path" />
</svg>