<svg width="369" height="142" viewBox="0 0 369 142" xmlns="http://www.w3.org/2000/svg">
  <style>
    .ascii-path {
      fill: #6dcf43;
    }
  </style>
  <path d="M6.50 13.51L1 13.51L1 1.80L6.50 1.80L6.50 13.51ZM12.00 13.51L6.50 13.51L6.50 1.80L12.00 1.80L12.00 13.51ZM12.00 6.56L15.84 6.56L15.84 13.51L15.11 13.51L15.11 7.29L12.00 7.29L12.00 6.56ZM12.00 8.02L14.38 8.02L14.38 13.51L13.65 13.51L13.65 8.75L12.00 8.75L12.00 8.02ZM55.98 13.51L50.48 13.51L50.48 1.80L55.98 1.80L55.98 13.51ZM61.48 13.51L55.98 13.51L55.98 1.80L61.48 1.80L61.48 13.51ZM66.98 13.51L61.48 13.51L61.48 1.80L66.98 1.80L66.98 13.51ZM72.47 13.51L66.98 13.51L66.98 1.80L72.47 1.80L72.47 13.51ZM77.97 13.51L72.47 13.51L72.47 1.80L77.97 1.80L77.97 13.51ZM83.47 13.51L77.97 13.51L77.97 1.80L83.47 1.80L83.47 13.51ZM83.47 6.56L87.32 6.56L87.32 13.51L86.59 13.51L86.59 7.29L83.47 7.29L83.47 6.56ZM83.47 8.02L85.85 8.02L85.85 13.51L85.12 13.51L85.12 8.75L83.47 8.75L83.47 8.02ZM99.96 13.51L94.47 13.51L94.47 1.80L99.96 1.80L99.96 13.51ZM105.46 13.51L99.96 13.51L99.96 1.80L105.46 1.80L105.46 13.51ZM105.46 6.56L109.31 6.56L109.31 13.51L108.58 13.51L108.58 7.29L105.46 7.29L105.46 6.56ZM105.46 8.02L107.85 8.02L107.85 13.51L107.11 13.51L107.11 8.75L105.46 8.75L105.46 8.02ZM149.45 13.51L143.95 13.51L143.95 1.80L149.45 1.80L149.45 13.51ZM154.95 13.51L149.45 13.51L149.45 1.80L154.95 1.80L154.95 13.51ZM160.44 13.51L154.95 13.51L154.95 1.80L160.44 1.80L160.44 13.51ZM165.94 13.51L160.44 13.51L160.44 1.80L165.94 1.80L165.94 13.51ZM171.44 13.51L165.94 13.51L165.94 1.80L171.44 1.80L171.44 13.51ZM171.44 6.56L175.29 6.56L175.29 13.51L174.55 13.51L174.55 7.29L171.44 7.29L171.44 6.56ZM171.44 8.02L173.82 8.02L173.82 13.51L173.09 13.51L173.09 8.75L171.44 8.75L171.44 8.02ZM187.93 13.51L182.44 13.51L182.44 1.80L187.93 1.80L187.93 13.51ZM193.43 13.51L187.93 13.51L187.93 1.80L193.43 1.80L193.43 13.51ZM198.93 13.51L193.43 13.51L193.43 1.80L198.93 1.80L198.93 13.51ZM198.93 6.56L202.78 6.56L202.78 13.51L202.04 13.51L202.04 7.29L198.93 7.29L198.93 6.56ZM198.93 8.02L201.31 8.02L201.31 13.51L200.58 13.51L200.58 8.75L198.93 8.75L198.93 8.02ZM226.42 13.51L220.92 13.51L220.92 1.80L226.42 1.80L226.42 13.51ZM231.92 13.51L226.42 13.51L226.42 1.80L231.92 1.80L231.92 13.51ZM231.92 6.56L235.77 6.56L235.77 13.51L235.03 13.51L235.03 7.29L231.92 7.29L231.92 6.56ZM231.92 8.02L234.30 8.02L234.30 13.51L233.57 13.51L233.57 8.75L231.92 8.75L231.92 8.02ZM242.91 13.51L237.42 13.51L237.42 1.80L242.91 1.80L242.91 13.51ZM248.41 13.51L242.91 13.51L242.91 1.80L248.41 1.80L248.41 13.51ZM253.91 13.51L248.41 13.51L248.41 1.80L253.91 1.80L253.91 13.51ZM259.41 13.51L253.91 13.51L253.91 1.80L259.41 1.80L259.41 13.51ZM264.91 13.51L259.41 13.51L259.41 1.80L264.91 1.80L264.91 13.51ZM270.40 13.51L264.91 13.51L264.91 1.80L270.40 1.80L270.40 13.51ZM275.90 13.51L270.40 13.51L270.40 1.80L275.90 1.80L275.90 13.51ZM281.40 13.51L275.90 13.51L275.90 1.80L281.40 1.80L281.40 13.51ZM281.40 6.56L285.25 6.56L285.25 13.51L284.52 13.51L284.52 7.29L281.40 7.29L281.40 6.56ZM281.40 8.02L283.78 8.02L283.78 13.51L283.05 13.51L283.05 8.75L281.40 8.75L281.40 8.02Z" class="ascii-path" />
  <path d="M6.50 18.75L2.65 18.75L2.65 11.80L3.38 11.80L3.38 18.02L6.50 18.02L6.50 18.75ZM6.50 17.29L4.12 17.29L4.12 11.80L4.85 11.80L4.85 16.56L6.50 16.56L6.50 17.29ZM12.00 23.51L6.50 23.51L6.50 11.80L12.00 11.80L12.00 23.51ZM17.49 23.51L12.00 23.51L12.00 11.80L17.49 11.80L17.49 23.51ZM17.49 16.56L21.34 16.56L21.34 23.51L20.61 23.51L20.61 17.29L17.49 17.29L17.49 16.56ZM17.49 18.02L19.88 18.02L19.88 23.51L19.14 23.51L19.14 18.75L17.49 18.75L17.49 18.02ZM55.98 23.51L50.48 23.51L50.48 11.80L55.98 11.80L55.98 23.51ZM61.48 23.51L55.98 23.51L55.98 11.80L61.48 11.80L61.48 23.51ZM63.13 16.56L66.98 16.56L66.98 17.29L63.86 17.29L63.86 23.51L63.13 23.51L63.13 16.56ZM64.59 23.51L64.59 18.02L66.98 18.02L66.98 18.75L65.33 18.75L65.33 23.51L64.59 23.51ZM66.98 17.29L66.98 16.56L72.47 16.56L72.47 17.29L66.98 17.29ZM66.98 18.75L66.98 18.02L72.47 18.02L72.47 18.75L66.98 18.75ZM72.47 17.29L72.47 16.56L77.97 16.56L77.97 17.29L72.47 17.29ZM72.47 18.75L72.47 18.02L77.97 18.02L77.97 18.75L72.47 18.75ZM83.47 23.51L77.97 23.51L77.97 11.80L83.47 11.80L83.47 23.51ZM88.97 23.51L83.47 23.51L83.47 11.80L88.97 11.80L88.97 23.51ZM88.97 16.56L92.82 16.56L92.82 23.51L92.08 23.51L92.08 17.29L88.97 17.29L88.97 16.56ZM88.97 18.02L91.35 18.02L91.35 23.51L90.62 23.51L90.62 18.75L88.97 18.75L88.97 18.02ZM99.96 23.51L94.47 23.51L94.47 11.80L99.96 11.80L99.96 23.51ZM105.46 23.51L99.96 23.51L99.96 11.80L105.46 11.80L105.46 23.51ZM107.11 23.51L107.11 11.80L107.85 11.80L107.85 23.51L107.11 23.51ZM109.31 23.51L108.58 23.51L108.58 11.80L109.31 11.80L109.31 23.51ZM143.95 23.51L138.45 23.51L138.45 11.80L143.95 11.80L143.95 23.51ZM149.45 23.51L143.95 23.51L143.95 11.80L149.45 11.80L149.45 23.51ZM151.10 16.56L154.95 16.56L154.95 17.29L151.83 17.29L151.83 23.51L151.10 23.51L151.10 16.56ZM152.56 23.51L152.56 18.02L154.95 18.02L154.95 18.75L153.29 18.75L153.29 23.51L152.56 23.51ZM154.95 17.29L154.95 16.56L160.44 16.56L160.44 17.29L154.95 17.29ZM154.95 18.75L154.95 18.02L160.44 18.02L160.44 18.75L154.95 18.75ZM160.44 17.29L160.44 16.56L165.94 16.56L165.94 17.29L160.44 17.29ZM160.44 18.75L160.44 18.02L165.94 18.02L165.94 18.75L160.44 18.75ZM171.44 23.51L165.94 23.51L165.94 11.80L171.44 11.80L171.44 23.51ZM176.94 23.51L171.44 23.51L171.44 11.80L176.94 11.80L176.94 23.51ZM176.94 16.56L180.79 16.56L180.79 23.51L180.05 23.51L180.05 17.29L176.94 17.29L176.94 16.56ZM176.94 18.02L179.32 18.02L179.32 23.51L178.59 23.51L178.59 18.75L176.94 18.75L176.94 18.02ZM187.93 23.51L182.44 23.51L182.44 11.80L187.93 11.80L187.93 23.51ZM193.43 23.51L187.93 23.51L187.93 11.80L193.43 11.80L193.43 23.51ZM198.93 23.51L193.43 23.51L193.43 11.80L198.93 11.80L198.93 23.51ZM204.43 23.51L198.93 23.51L198.93 11.80L204.43 11.80L204.43 23.51ZM204.43 16.56L208.28 16.56L208.28 23.51L207.54 23.51L207.54 17.29L204.43 17.29L204.43 16.56ZM204.43 18.02L206.81 18.02L206.81 23.51L206.08 23.51L206.08 18.75L204.43 18.75L204.43 18.02ZM226.42 23.51L220.92 23.51L220.92 11.80L226.42 11.80L226.42 23.51ZM231.92 23.51L226.42 23.51L226.42 11.80L231.92 11.80L231.92 23.51ZM233.57 23.51L233.57 11.80L234.30 11.80L234.30 23.51L233.57 23.51ZM235.77 23.51L235.03 23.51L235.03 11.80L235.77 11.80L235.77 23.51ZM242.91 18.75L239.07 18.75L239.07 11.80L239.80 11.80L239.80 18.02L242.91 18.02L242.91 18.75ZM242.91 17.29L240.53 17.29L240.53 11.80L241.26 11.80L241.26 16.56L242.91 16.56L242.91 17.29ZM242.91 17.29L242.91 16.56L248.41 16.56L248.41 17.29L242.91 17.29ZM242.91 18.75L242.91 18.02L248.41 18.02L248.41 18.75L242.91 18.75ZM248.41 17.29L248.41 16.56L253.91 16.56L253.91 17.29L248.41 17.29ZM248.41 18.75L248.41 18.02L253.91 18.02L253.91 18.75L248.41 18.75ZM259.41 23.51L253.91 23.51L253.91 11.80L259.41 11.80L259.41 23.51ZM264.91 23.51L259.41 23.51L259.41 11.80L264.91 11.80L264.91 23.51ZM266.56 16.56L270.40 16.56L270.40 17.29L267.29 17.29L267.29 23.51L266.56 23.51L266.56 16.56ZM268.02 23.51L268.02 18.02L270.40 18.02L270.40 18.75L268.75 18.75L268.75 23.51L268.02 23.51ZM270.40 17.29L270.40 16.56L275.90 16.56L275.90 17.29L270.40 17.29ZM270.40 18.75L270.40 18.02L275.90 18.02L275.90 18.75L270.40 18.75ZM275.90 17.29L275.90 16.56L281.40 16.56L281.40 17.29L275.90 17.29ZM275.90 18.75L275.90 18.02L281.40 18.02L281.40 18.75L275.90 18.75ZM285.25 18.75L281.40 18.75L281.40 18.02L284.52 18.02L284.52 11.80L285.25 11.80L285.25 18.75ZM283.78 11.80L283.78 17.29L281.40 17.29L281.40 16.56L283.05 16.56L283.05 11.80L283.78 11.80Z" class="ascii-path" />
  <path d="M12.00 28.75L8.15 28.75L8.15 21.80L8.88 21.80L8.88 28.02L12.00 28.02L12.00 28.75ZM12.00 27.29L9.61 27.29L9.61 21.80L10.35 21.80L10.35 26.56L12.00 26.56L12.00 27.29ZM17.49 33.51L12.00 33.51L12.00 21.80L17.49 21.80L17.49 33.51ZM22.99 33.51L17.49 33.51L17.49 21.80L22.99 21.80L22.99 33.51ZM22.99 26.56L26.84 26.56L26.84 33.51L26.11 33.51L26.11 27.29L22.99 27.29L22.99 26.56ZM22.99 28.02L25.38 28.02L25.38 33.51L24.64 33.51L24.64 28.75L22.99 28.75L22.99 28.02ZM55.98 33.51L50.48 33.51L50.48 21.80L55.98 21.80L55.98 33.51ZM61.48 33.51L55.98 33.51L55.98 21.80L61.48 21.80L61.48 33.51ZM66.98 33.51L61.48 33.51L61.48 21.80L66.98 21.80L66.98 33.51ZM72.47 33.51L66.98 33.51L66.98 21.80L72.47 21.80L72.47 33.51ZM77.97 33.51L72.47 33.51L72.47 21.80L77.97 21.80L77.97 33.51ZM83.47 33.51L77.97 33.51L77.97 21.80L83.47 21.80L83.47 33.51ZM85.12 26.56L88.97 26.56L88.97 27.29L85.85 27.29L85.85 33.51L85.12 33.51L85.12 26.56ZM86.59 33.51L86.59 28.02L88.97 28.02L88.97 28.75L87.32 28.75L87.32 33.51L86.59 33.51ZM92.82 28.75L88.97 28.75L88.97 28.02L92.08 28.02L92.08 21.80L92.82 21.80L92.82 28.75ZM91.35 21.80L91.35 27.29L88.97 27.29L88.97 26.56L90.62 26.56L90.62 21.80L91.35 21.80ZM99.96 33.51L94.47 33.51L94.47 21.80L99.96 21.80L99.96 33.51ZM105.46 33.51L99.96 33.51L99.96 21.80L105.46 21.80L105.46 33.51ZM107.11 33.51L107.11 21.80L107.85 21.80L107.85 33.51L107.11 33.51ZM109.31 33.51L108.58 33.51L108.58 21.80L109.31 21.80L109.31 33.51ZM143.95 33.51L138.45 33.51L138.45 21.80L143.95 21.80L143.95 33.51ZM149.45 33.51L143.95 33.51L143.95 21.80L149.45 21.80L149.45 33.51ZM154.95 33.51L149.45 33.51L149.45 21.80L154.95 21.80L154.95 33.51ZM160.44 33.51L154.95 33.51L154.95 21.80L160.44 21.80L160.44 33.51ZM165.94 33.51L160.44 33.51L160.44 21.80L165.94 21.80L165.94 33.51ZM171.44 33.51L165.94 33.51L165.94 21.80L171.44 21.80L171.44 33.51ZM176.94 33.51L171.44 33.51L171.44 21.80L176.94 21.80L176.94 33.51ZM178.59 33.51L178.59 21.80L179.32 21.80L179.32 33.51L178.59 33.51ZM180.79 33.51L180.05 33.51L180.05 21.80L180.79 21.80L180.79 33.51ZM187.93 33.51L182.44 33.51L182.44 21.80L187.93 21.80L187.93 33.51ZM193.43 33.51L187.93 33.51L187.93 21.80L193.43 21.80L193.43 33.51ZM195.08 26.56L198.93 26.56L198.93 27.29L195.81 27.29L195.81 33.51L195.08 33.51L195.08 26.56ZM196.55 33.51L196.55 28.02L198.93 28.02L198.93 28.75L197.28 28.75L197.28 33.51L196.55 33.51ZM204.43 33.51L198.93 33.51L198.93 21.80L204.43 21.80L204.43 33.51ZM209.93 33.51L204.43 33.51L204.43 21.80L209.93 21.80L209.93 33.51ZM209.93 26.56L213.77 26.56L213.77 33.51L213.04 33.51L213.04 27.29L209.93 27.29L209.93 26.56ZM209.93 28.02L212.31 28.02L212.31 33.51L211.58 33.51L211.58 28.75L209.93 28.75L209.93 28.02ZM226.42 33.51L220.92 33.51L220.92 21.80L226.42 21.80L226.42 33.51ZM231.92 33.51L226.42 33.51L226.42 21.80L231.92 21.80L231.92 33.51ZM233.57 33.51L233.57 21.80L234.30 21.80L234.30 33.51L233.57 33.51ZM235.77 33.51L235.03 33.51L235.03 21.80L235.77 21.80L235.77 33.51ZM259.41 33.51L253.91 33.51L253.91 21.80L259.41 21.80L259.41 33.51ZM264.91 33.51L259.41 33.51L259.41 21.80L264.91 21.80L264.91 33.51ZM266.56 33.51L266.56 21.80L267.29 21.80L267.29 33.51L266.56 33.51ZM268.75 33.51L268.02 33.51L268.02 21.80L268.75 21.80L268.75 33.51Z" class="ascii-path" />
  <path d="M12.00 43.51L6.50 43.51L6.50 31.80L12.00 31.80L12.00 43.51ZM17.49 43.51L12.00 43.51L12.00 31.80L17.49 31.80L17.49 43.51ZM19.14 36.56L22.99 36.56L22.99 37.29L19.88 37.29L19.88 43.51L19.14 43.51L19.14 36.56ZM20.61 43.51L20.61 38.02L22.99 38.02L22.99 38.75L21.34 38.75L21.34 43.51L20.61 43.51ZM26.84 38.75L22.99 38.75L22.99 38.02L26.11 38.02L26.11 31.80L26.84 31.80L26.84 38.75ZM25.38 31.80L25.38 37.29L22.99 37.29L22.99 36.56L24.64 36.56L24.64 31.80L25.38 31.80ZM55.98 43.51L50.48 43.51L50.48 31.80L55.98 31.80L55.98 43.51ZM61.48 43.51L55.98 43.51L55.98 31.80L61.48 31.80L61.48 43.51ZM63.13 36.56L66.98 36.56L66.98 37.29L63.86 37.29L63.86 43.51L63.13 43.51L63.13 36.56ZM64.59 43.51L64.59 38.02L66.98 38.02L66.98 38.75L65.33 38.75L65.33 43.51L64.59 43.51ZM66.98 37.29L66.98 36.56L72.47 36.56L72.47 37.29L66.98 37.29ZM66.98 38.75L66.98 38.02L72.47 38.02L72.47 38.75L66.98 38.75ZM72.47 37.29L72.47 36.56L77.97 36.56L77.97 37.29L72.47 37.29ZM72.47 38.75L72.47 38.02L77.97 38.02L77.97 38.75L72.47 38.75ZM77.97 37.29L77.97 36.56L83.47 36.56L83.47 37.29L77.97 37.29ZM77.97 38.75L77.97 38.02L83.47 38.02L83.47 38.75L77.97 38.75ZM87.32 38.75L83.47 38.75L83.47 38.02L86.59 38.02L86.59 31.80L87.32 31.80L87.32 38.75ZM85.85 31.80L85.85 37.29L83.47 37.29L83.47 36.56L85.12 36.56L85.12 31.80L85.85 31.80ZM99.96 43.51L94.47 43.51L94.47 31.80L99.96 31.80L99.96 43.51ZM105.46 43.51L99.96 43.51L99.96 31.80L105.46 31.80L105.46 43.51ZM107.11 43.51L107.11 31.80L107.85 31.80L107.85 43.51L107.11 43.51ZM109.31 43.51L108.58 43.51L108.58 31.80L109.31 31.80L109.31 43.51ZM143.95 43.51L138.45 43.51L138.45 31.80L143.95 31.80L143.95 43.51ZM149.45 43.51L143.95 43.51L143.95 31.80L149.45 31.80L149.45 43.51ZM151.10 36.56L154.95 36.56L154.95 37.29L151.83 37.29L151.83 43.51L151.10 43.51L151.10 36.56ZM152.56 43.51L152.56 38.02L154.95 38.02L154.95 38.75L153.29 38.75L153.29 43.51L152.56 43.51ZM154.95 37.29L154.95 36.56L160.44 36.56L160.44 37.29L154.95 37.29ZM154.95 38.75L154.95 38.02L160.44 38.02L160.44 38.75L154.95 38.75ZM160.44 37.29L160.44 36.56L165.94 36.56L165.94 37.29L160.44 37.29ZM160.44 38.75L160.44 38.02L165.94 38.02L165.94 38.75L160.44 38.75ZM171.44 43.51L165.94 43.51L165.94 31.80L171.44 31.80L171.44 43.51ZM176.94 43.51L171.44 43.51L171.44 31.80L176.94 31.80L176.94 43.51ZM178.59 43.51L178.59 31.80L179.32 31.80L179.32 43.51L178.59 43.51ZM180.79 43.51L180.05 43.51L180.05 31.80L180.79 31.80L180.79 43.51ZM187.93 43.51L182.44 43.51L182.44 31.80L187.93 31.80L187.93 43.51ZM193.43 43.51L187.93 43.51L187.93 31.80L193.43 31.80L193.43 43.51ZM195.08 43.51L195.08 31.80L195.81 31.80L195.81 43.51L195.08 43.51ZM197.28 43.51L196.55 43.51L196.55 31.80L197.28 31.80L197.28 43.51ZM204.43 38.75L200.58 38.75L200.58 31.80L201.31 31.80L201.31 38.02L204.43 38.02L204.43 38.75ZM204.43 37.29L202.04 37.29L202.04 31.80L202.78 31.80L202.78 36.56L204.43 36.56L204.43 37.29ZM209.93 43.51L204.43 43.51L204.43 31.80L209.93 31.80L209.93 43.51ZM215.42 43.51L209.93 43.51L209.93 31.80L215.42 31.80L215.42 43.51ZM215.42 36.56L219.27 36.56L219.27 43.51L218.54 43.51L218.54 37.29L215.42 37.29L215.42 36.56ZM215.42 38.02L217.81 38.02L217.81 43.51L217.07 43.51L217.07 38.75L215.42 38.75L215.42 38.02ZM226.42 43.51L220.92 43.51L220.92 31.80L226.42 31.80L226.42 43.51ZM231.92 43.51L226.42 43.51L226.42 31.80L231.92 31.80L231.92 43.51ZM233.57 43.51L233.57 31.80L234.30 31.80L234.30 43.51L233.57 43.51ZM235.77 43.51L235.03 43.51L235.03 31.80L235.77 31.80L235.77 43.51ZM259.41 43.51L253.91 43.51L253.91 31.80L259.41 31.80L259.41 43.51ZM264.91 43.51L259.41 43.51L259.41 31.80L264.91 31.80L264.91 43.51ZM266.56 43.51L266.56 31.80L267.29 31.80L267.29 43.51L266.56 43.51ZM268.75 43.51L268.02 43.51L268.02 31.80L268.75 31.80L268.75 43.51Z" class="ascii-path" />
  <path d="M6.50 53.51L1 53.51L1 41.80L6.50 41.80L6.50 53.51ZM12.00 53.51L6.50 53.51L6.50 41.80L12.00 41.80L12.00 53.51ZM13.65 46.56L17.49 46.56L17.49 47.29L14.38 47.29L14.38 53.51L13.65 53.51L13.65 46.56ZM15.11 53.51L15.11 48.02L17.49 48.02L17.49 48.75L15.84 48.75L15.84 53.51L15.11 53.51ZM21.34 48.75L17.49 48.75L17.49 48.02L20.61 48.02L20.61 41.80L21.34 41.80L21.34 48.75ZM19.88 41.80L19.88 47.29L17.49 47.29L17.49 46.56L19.14 46.56L19.14 41.80L19.88 41.80ZM55.98 53.51L50.48 53.51L50.48 41.80L55.98 41.80L55.98 53.51ZM61.48 53.51L55.98 53.51L55.98 41.80L61.48 41.80L61.48 53.51ZM63.13 53.51L63.13 41.80L63.86 41.80L63.86 53.51L63.13 53.51ZM65.33 53.51L64.59 53.51L64.59 41.80L65.33 41.80L65.33 53.51ZM99.96 53.51L94.47 53.51L94.47 41.80L99.96 41.80L99.96 53.51ZM105.46 53.51L99.96 53.51L99.96 41.80L105.46 41.80L105.46 53.51ZM110.96 53.51L105.46 53.51L105.46 41.80L110.96 41.80L110.96 53.51ZM116.46 53.51L110.96 53.51L110.96 41.80L116.46 41.80L116.46 53.51ZM121.96 53.51L116.46 53.51L116.46 41.80L121.96 41.80L121.96 53.51ZM127.46 53.51L121.96 53.51L121.96 41.80L127.46 41.80L127.46 53.51ZM132.95 53.51L127.46 53.51L127.46 41.80L132.95 41.80L132.95 53.51ZM132.95 46.56L136.80 46.56L136.80 53.51L136.07 53.51L136.07 47.29L132.95 47.29L132.95 46.56ZM132.95 48.02L135.34 48.02L135.34 53.51L134.60 53.51L134.60 48.75L132.95 48.75L132.95 48.02ZM143.95 53.51L138.45 53.51L138.45 41.80L143.95 41.80L143.95 53.51ZM149.45 53.51L143.95 53.51L143.95 41.80L149.45 41.80L149.45 53.51ZM151.10 53.51L151.10 41.80L151.83 41.80L151.83 53.51L151.10 53.51ZM153.29 53.51L152.56 53.51L152.56 41.80L153.29 41.80L153.29 53.51ZM171.44 53.51L165.94 53.51L165.94 41.80L171.44 41.80L171.44 53.51ZM176.94 53.51L171.44 53.51L171.44 41.80L176.94 41.80L176.94 53.51ZM178.59 53.51L178.59 41.80L179.32 41.80L179.32 53.51L178.59 53.51ZM180.79 53.51L180.05 53.51L180.05 41.80L180.79 41.80L180.79 53.51ZM187.93 53.51L182.44 53.51L182.44 41.80L187.93 41.80L187.93 53.51ZM193.43 53.51L187.93 53.51L187.93 41.80L193.43 41.80L193.43 53.51ZM195.08 53.51L195.08 41.80L195.81 41.80L195.81 53.51L195.08 53.51ZM197.28 53.51L196.55 53.51L196.55 41.80L197.28 41.80L197.28 53.51ZM209.93 48.75L206.08 48.75L206.08 41.80L206.81 41.80L206.81 48.02L209.93 48.02L209.93 48.75ZM209.93 47.29L207.54 47.29L207.54 41.80L208.28 41.80L208.28 46.56L209.93 46.56L209.93 47.29ZM215.42 53.51L209.93 53.51L209.93 41.80L215.42 41.80L215.42 53.51ZM220.92 53.51L215.42 53.51L215.42 41.80L220.92 41.80L220.92 53.51ZM226.42 53.51L220.92 53.51L220.92 41.80L226.42 41.80L226.42 53.51ZM231.92 53.51L226.42 53.51L226.42 41.80L231.92 41.80L231.92 53.51ZM233.57 53.51L233.57 41.80L234.30 41.80L234.30 53.51L233.57 53.51ZM235.77 53.51L235.03 53.51L235.03 41.80L235.77 41.80L235.77 53.51ZM259.41 53.51L253.91 53.51L253.91 41.80L259.41 41.80L259.41 53.51ZM264.91 53.51L259.41 53.51L259.41 41.80L264.91 41.80L264.91 53.51ZM266.56 53.51L266.56 41.80L267.29 41.80L267.29 53.51L266.56 53.51ZM268.75 53.51L268.02 53.51L268.02 41.80L268.75 41.80L268.75 53.51Z" class="ascii-path" />
  <path d="M6.50 58.75L2.65 58.75L2.65 51.80L3.38 51.80L3.38 58.02L6.50 58.02L6.50 58.75ZM6.50 57.29L4.12 57.29L4.12 51.80L4.85 51.80L4.85 56.56L6.50 56.56L6.50 57.29ZM6.50 57.29L6.50 56.56L12.00 56.56L12.00 57.29L6.50 57.29ZM6.50 58.75L6.50 58.02L12.00 58.02L12.00 58.75L6.50 58.75ZM15.84 58.75L12.00 58.75L12.00 58.02L15.11 58.02L15.11 51.80L15.84 51.80L15.84 58.75ZM14.38 51.80L14.38 57.29L12.00 57.29L12.00 56.56L13.65 56.56L13.65 51.80L14.38 51.80ZM55.98 58.75L52.13 58.75L52.13 51.80L52.87 51.80L52.87 58.02L55.98 58.02L55.98 58.75ZM55.98 57.29L53.60 57.29L53.60 51.80L54.33 51.80L54.33 56.56L55.98 56.56L55.98 57.29ZM55.98 57.29L55.98 56.56L61.48 56.56L61.48 57.29L55.98 57.29ZM55.98 58.75L55.98 58.02L61.48 58.02L61.48 58.75L55.98 58.75ZM65.33 58.75L61.48 58.75L61.48 58.02L64.59 58.02L64.59 51.80L65.33 51.80L65.33 58.75ZM63.86 51.80L63.86 57.29L61.48 57.29L61.48 56.56L63.13 56.56L63.13 51.80L63.86 51.80ZM99.96 58.75L96.12 58.75L96.12 51.80L96.85 51.80L96.85 58.02L99.96 58.02L99.96 58.75ZM99.96 57.29L97.58 57.29L97.58 51.80L98.31 51.80L98.31 56.56L99.96 56.56L99.96 57.29ZM99.96 57.29L99.96 56.56L105.46 56.56L105.46 57.29L99.96 57.29ZM99.96 58.75L99.96 58.02L105.46 58.02L105.46 58.75L99.96 58.75ZM105.46 57.29L105.46 56.56L110.96 56.56L110.96 57.29L105.46 57.29ZM105.46 58.75L105.46 58.02L110.96 58.02L110.96 58.75L105.46 58.75ZM110.96 57.29L110.96 56.56L116.46 56.56L116.46 57.29L110.96 57.29ZM110.96 58.75L110.96 58.02L116.46 58.02L116.46 58.75L110.96 58.75ZM116.46 57.29L116.46 56.56L121.96 56.56L121.96 57.29L116.46 57.29ZM116.46 58.75L116.46 58.02L121.96 58.02L121.96 58.75L116.46 58.75ZM121.96 57.29L121.96 56.56L127.46 56.56L127.46 57.29L121.96 57.29ZM121.96 58.75L121.96 58.02L127.46 58.02L127.46 58.75L121.96 58.75ZM127.46 57.29L127.46 56.56L132.95 56.56L132.95 57.29L127.46 57.29ZM127.46 58.75L127.46 58.02L132.95 58.02L132.95 58.75L127.46 58.75ZM136.80 58.75L132.95 58.75L132.95 58.02L136.07 58.02L136.07 51.80L136.80 51.80L136.80 58.75ZM135.34 51.80L135.34 57.29L132.95 57.29L132.95 56.56L134.60 56.56L134.60 51.80L135.34 51.80ZM143.95 58.75L140.10 58.75L140.10 51.80L140.83 51.80L140.83 58.02L143.95 58.02L143.95 58.75ZM143.95 57.29L141.57 57.29L141.57 51.80L142.30 51.80L142.30 56.56L143.95 56.56L143.95 57.29ZM143.95 57.29L143.95 56.56L149.45 56.56L149.45 57.29L143.95 57.29ZM143.95 58.75L143.95 58.02L149.45 58.02L149.45 58.75L143.95 58.75ZM153.29 58.75L149.45 58.75L149.45 58.02L152.56 58.02L152.56 51.80L153.29 51.80L153.29 58.75ZM151.83 51.80L151.83 57.29L149.45 57.29L149.45 56.56L151.10 56.56L151.10 51.80L151.83 51.80ZM171.44 58.75L167.59 58.75L167.59 51.80L168.32 51.80L168.32 58.02L171.44 58.02L171.44 58.75ZM171.44 57.29L169.06 57.29L169.06 51.80L169.79 51.80L169.79 56.56L171.44 56.56L171.44 57.29ZM171.44 57.29L171.44 56.56L176.94 56.56L176.94 57.29L171.44 57.29ZM171.44 58.75L171.44 58.02L176.94 58.02L176.94 58.75L171.44 58.75ZM180.79 58.75L176.94 58.75L176.94 58.02L180.05 58.02L180.05 51.80L180.79 51.80L180.79 58.75ZM179.32 51.80L179.32 57.29L176.94 57.29L176.94 56.56L178.59 56.56L178.59 51.80L179.32 51.80ZM187.93 58.75L184.09 58.75L184.09 51.80L184.82 51.80L184.82 58.02L187.93 58.02L187.93 58.75ZM187.93 57.29L185.55 57.29L185.55 51.80L186.28 51.80L186.28 56.56L187.93 56.56L187.93 57.29ZM187.93 57.29L187.93 56.56L193.43 56.56L193.43 57.29L187.93 57.29ZM187.93 58.75L187.93 58.02L193.43 58.02L193.43 58.75L187.93 58.75ZM197.28 58.75L193.43 58.75L193.43 58.02L196.55 58.02L196.55 51.80L197.28 51.80L197.28 58.75ZM195.81 51.80L195.81 57.29L193.43 57.29L193.43 56.56L195.08 56.56L195.08 51.80L195.81 51.80ZM215.42 58.75L211.58 58.75L211.58 51.80L212.31 51.80L212.31 58.02L215.42 58.02L215.42 58.75ZM215.42 57.29L213.04 57.29L213.04 51.80L213.77 51.80L213.77 56.56L215.42 56.56L215.42 57.29ZM215.42 57.29L215.42 56.56L220.92 56.56L220.92 57.29L215.42 57.29ZM215.42 58.75L215.42 58.02L220.92 58.02L220.92 58.75L215.42 58.75ZM220.92 57.29L220.92 56.56L226.42 56.56L226.42 57.29L220.92 57.29ZM220.92 58.75L220.92 58.02L226.42 58.02L226.42 58.75L220.92 58.75ZM226.42 57.29L226.42 56.56L231.92 56.56L231.92 57.29L226.42 57.29ZM226.42 58.75L226.42 58.02L231.92 58.02L231.92 58.75L226.42 58.75ZM235.77 58.75L231.92 58.75L231.92 58.02L235.03 58.02L235.03 51.80L235.77 51.80L235.77 58.75ZM234.30 51.80L234.30 57.29L231.92 57.29L231.92 56.56L233.57 56.56L233.57 51.80L234.30 51.80ZM259.41 58.75L255.56 58.75L255.56 51.80L256.29 51.80L256.29 58.02L259.41 58.02L259.41 58.75ZM259.41 57.29L257.03 57.29L257.03 51.80L257.76 51.80L257.76 56.56L259.41 56.56L259.41 57.29ZM259.41 57.29L259.41 56.56L264.91 56.56L264.91 57.29L259.41 57.29ZM259.41 58.75L259.41 58.02L264.91 58.02L264.91 58.75L259.41 58.75ZM268.75 58.75L264.91 58.75L264.91 58.02L268.02 58.02L268.02 51.80L268.75 51.80L268.75 58.75ZM267.29 51.80L267.29 57.29L264.91 57.29L264.91 56.56L266.56 56.56L266.56 51.80L267.29 51.80Z" class="ascii-path" />
  <path d="M6.50 93.51L1 93.51L1 81.80L6.50 81.80L6.50 93.51ZM12.00 93.51L6.50 93.51L6.50 81.80L12.00 81.80L12.00 93.51ZM17.49 93.51L12.00 93.51L12.00 81.80L17.49 81.80L17.49 93.51ZM22.99 93.51L17.49 93.51L17.49 81.80L22.99 81.80L22.99 93.51ZM28.49 93.51L22.99 93.51L22.99 81.80L28.49 81.80L28.49 93.51ZM33.99 93.51L28.49 93.51L28.49 81.80L33.99 81.80L33.99 93.51ZM33.99 86.56L37.84 86.56L37.84 93.51L37.10 93.51L37.10 87.29L33.99 87.29L33.99 86.56ZM33.99 88.02L36.37 88.02L36.37 93.51L35.64 93.51L35.64 88.75L33.99 88.75L33.99 88.02ZM50.48 93.51L44.98 93.51L44.98 81.80L50.48 81.80L50.48 93.51ZM55.98 93.51L50.48 93.51L50.48 81.80L55.98 81.80L55.98 93.51ZM61.48 93.51L55.98 93.51L55.98 81.80L61.48 81.80L61.48 93.51ZM66.98 93.51L61.48 93.51L61.48 81.80L66.98 81.80L66.98 93.51ZM72.47 93.51L66.98 93.51L66.98 81.80L72.47 81.80L72.47 93.51ZM77.97 93.51L72.47 93.51L72.47 81.80L77.97 81.80L77.97 93.51ZM83.47 93.51L77.97 93.51L77.97 81.80L83.47 81.80L83.47 93.51ZM83.47 86.56L87.32 86.56L87.32 93.51L86.59 93.51L86.59 87.29L83.47 87.29L83.47 86.56ZM83.47 88.02L85.85 88.02L85.85 93.51L85.12 93.51L85.12 88.75L83.47 88.75L83.47 88.02ZM94.47 93.51L88.97 93.51L88.97 81.80L94.47 81.80L94.47 93.51ZM99.96 93.51L94.47 93.51L94.47 81.80L99.96 81.80L99.96 93.51ZM105.46 93.51L99.96 93.51L99.96 81.80L105.46 81.80L105.46 93.51ZM110.96 93.51L105.46 93.51L105.46 81.80L110.96 81.80L110.96 93.51ZM116.46 93.51L110.96 93.51L110.96 81.80L116.46 81.80L116.46 93.51ZM121.96 93.51L116.46 93.51L116.46 81.80L121.96 81.80L121.96 93.51ZM121.96 86.56L125.80 86.56L125.80 93.51L125.07 93.51L125.07 87.29L121.96 87.29L121.96 86.56ZM121.96 88.02L124.34 88.02L124.34 93.51L123.61 93.51L123.61 88.75L121.96 88.75L121.96 88.02ZM138.45 93.51L132.95 93.51L132.95 81.80L138.45 81.80L138.45 93.51ZM143.95 93.51L138.45 93.51L138.45 81.80L143.95 81.80L143.95 93.51ZM143.95 86.56L147.80 86.56L147.80 93.51L147.06 93.51L147.06 87.29L143.95 87.29L143.95 86.56ZM143.95 88.02L146.33 88.02L146.33 93.51L145.60 93.51L145.60 88.75L143.95 88.75L143.95 88.02ZM171.44 93.51L165.94 93.51L165.94 81.80L171.44 81.80L171.44 93.51ZM176.94 93.51L171.44 93.51L171.44 81.80L176.94 81.80L176.94 93.51ZM176.94 86.56L180.79 86.56L180.79 93.51L180.05 93.51L180.05 87.29L176.94 87.29L176.94 86.56ZM176.94 88.02L179.32 88.02L179.32 93.51L178.59 93.51L178.59 88.75L176.94 88.75L176.94 88.02ZM193.43 93.51L187.93 93.51L187.93 81.80L193.43 81.80L193.43 93.51ZM198.93 93.51L193.43 93.51L193.43 81.80L198.93 81.80L198.93 93.51ZM204.43 93.51L198.93 93.51L198.93 81.80L204.43 81.80L204.43 93.51ZM209.93 93.51L204.43 93.51L204.43 81.80L209.93 81.80L209.93 93.51ZM215.42 93.51L209.93 93.51L209.93 81.80L215.42 81.80L215.42 93.51ZM220.92 93.51L215.42 93.51L215.42 81.80L220.92 81.80L220.92 93.51ZM220.92 86.56L224.77 86.56L224.77 93.51L224.04 93.51L224.04 87.29L220.92 87.29L220.92 86.56ZM220.92 88.02L223.30 88.02L223.30 93.51L222.57 93.51L222.57 88.75L220.92 88.75L220.92 88.02ZM242.91 93.51L237.42 93.51L237.42 81.80L242.91 81.80L242.91 93.51ZM248.41 93.51L242.91 93.51L242.91 81.80L248.41 81.80L248.41 93.51ZM253.91 93.51L248.41 93.51L248.41 81.80L253.91 81.80L253.91 93.51ZM259.41 93.51L253.91 93.51L253.91 81.80L259.41 81.80L259.41 93.51ZM264.91 93.51L259.41 93.51L259.41 81.80L264.91 81.80L264.91 93.51ZM270.40 93.51L264.91 93.51L264.91 81.80L270.40 81.80L270.40 93.51ZM270.40 86.56L274.25 86.56L274.25 93.51L273.52 93.51L273.52 87.29L270.40 87.29L270.40 86.56ZM270.40 88.02L272.79 88.02L272.79 93.51L272.05 93.51L272.05 88.75L270.40 88.75L270.40 88.02ZM286.90 93.51L281.40 93.51L281.40 81.80L286.90 81.80L286.90 93.51ZM292.40 93.51L286.90 93.51L286.90 81.80L292.40 81.80L292.40 93.51ZM297.89 93.51L292.40 93.51L292.40 81.80L297.89 81.80L297.89 93.51ZM303.39 93.51L297.89 93.51L297.89 81.80L303.39 81.80L303.39 93.51ZM308.89 93.51L303.39 93.51L303.39 81.80L308.89 81.80L308.89 93.51ZM314.39 93.51L308.89 93.51L308.89 81.80L314.39 81.80L314.39 93.51ZM319.89 93.51L314.39 93.51L314.39 81.80L319.89 81.80L319.89 93.51ZM319.89 86.56L323.73 86.56L323.73 93.51L323.00 93.51L323.00 87.29L319.89 87.29L319.89 86.56ZM319.89 88.02L322.27 88.02L322.27 93.51L321.54 93.51L321.54 88.75L319.89 88.75L319.89 88.02ZM330.88 93.51L325.38 93.51L325.38 81.80L330.88 81.80L330.88 93.51ZM336.38 93.51L330.88 93.51L330.88 81.80L336.38 81.80L336.38 93.51ZM341.88 93.51L336.38 93.51L336.38 81.80L341.88 81.80L341.88 93.51ZM347.38 93.51L341.88 93.51L341.88 81.80L347.38 81.80L347.38 93.51ZM352.88 93.51L347.38 93.51L347.38 81.80L352.88 81.80L352.88 93.51ZM358.37 93.51L352.88 93.51L352.88 81.80L358.37 81.80L358.37 93.51ZM358.37 86.56L362.22 86.56L362.22 93.51L361.49 93.51L361.49 87.29L358.37 87.29L358.37 86.56ZM358.37 88.02L360.76 88.02L360.76 93.51L360.02 93.51L360.02 88.75L358.37 88.75L358.37 88.02Z" class="ascii-path" />
  <path d="M6.50 103.51L1 103.51L1 91.80L6.50 91.80L6.50 103.51ZM12.00 103.51L6.50 103.51L6.50 91.80L12.00 91.80L12.00 103.51ZM13.65 96.56L17.49 96.56L17.49 97.29L14.38 97.29L14.38 103.51L13.65 103.51L13.65 96.56ZM15.11 103.51L15.11 98.02L17.49 98.02L17.49 98.75L15.84 98.75L15.84 103.51L15.11 103.51ZM17.49 97.29L17.49 96.56L22.99 96.56L22.99 97.29L17.49 97.29ZM17.49 98.75L17.49 98.02L22.99 98.02L22.99 98.75L17.49 98.75ZM22.99 97.29L22.99 96.56L28.49 96.56L28.49 97.29L22.99 97.29ZM22.99 98.75L22.99 98.02L28.49 98.02L28.49 98.75L22.99 98.75ZM33.99 103.51L28.49 103.51L28.49 91.80L33.99 91.80L33.99 103.51ZM39.49 103.51L33.99 103.51L33.99 91.80L39.49 91.80L39.49 103.51ZM39.49 96.56L43.33 96.56L43.33 103.51L42.60 103.51L42.60 97.29L39.49 97.29L39.49 96.56ZM39.49 98.02L41.87 98.02L41.87 103.51L41.14 103.51L41.14 98.75L39.49 98.75L39.49 98.02ZM50.48 103.51L44.98 103.51L44.98 91.80L50.48 91.80L50.48 103.51ZM55.98 103.51L50.48 103.51L50.48 91.80L55.98 91.80L55.98 103.51ZM57.63 96.56L61.48 96.56L61.48 97.29L58.36 97.29L58.36 103.51L57.63 103.51L57.63 96.56ZM59.10 103.51L59.10 98.02L61.48 98.02L61.48 98.75L59.83 98.75L59.83 103.51L59.10 103.51ZM61.48 97.29L61.48 96.56L66.98 96.56L66.98 97.29L61.48 97.29ZM61.48 98.75L61.48 98.02L66.98 98.02L66.98 98.75L61.48 98.75ZM66.98 97.29L66.98 96.56L72.47 96.56L72.47 97.29L66.98 97.29ZM66.98 98.75L66.98 98.02L72.47 98.02L72.47 98.75L66.98 98.75ZM72.47 97.29L72.47 96.56L77.97 96.56L77.97 97.29L72.47 97.29ZM72.47 98.75L72.47 98.02L77.97 98.02L77.97 98.75L72.47 98.75ZM77.97 97.29L77.97 96.56L83.47 96.56L83.47 97.29L77.97 97.29ZM77.97 98.75L77.97 98.02L83.47 98.02L83.47 98.75L77.97 98.75ZM87.32 98.75L83.47 98.75L83.47 98.02L86.59 98.02L86.59 91.80L87.32 91.80L87.32 98.75ZM85.85 91.80L85.85 97.29L83.47 97.29L83.47 96.56L85.12 96.56L85.12 91.80L85.85 91.80ZM94.47 103.51L88.97 103.51L88.97 91.80L94.47 91.80L94.47 103.51ZM99.96 103.51L94.47 103.51L94.47 91.80L99.96 91.80L99.96 103.51ZM101.62 96.56L105.46 96.56L105.46 97.29L102.35 97.29L102.35 103.51L101.62 103.51L101.62 96.56ZM103.08 103.51L103.08 98.02L105.46 98.02L105.46 98.75L103.81 98.75L103.81 103.51L103.08 103.51ZM105.46 97.29L105.46 96.56L110.96 96.56L110.96 97.29L105.46 97.29ZM105.46 98.75L105.46 98.02L110.96 98.02L110.96 98.75L105.46 98.75ZM110.96 97.29L110.96 96.56L116.46 96.56L116.46 97.29L110.96 97.29ZM110.96 98.75L110.96 98.02L116.46 98.02L116.46 98.75L110.96 98.75ZM121.96 103.51L116.46 103.51L116.46 91.80L121.96 91.80L121.96 103.51ZM127.46 103.51L121.96 103.51L121.96 91.80L127.46 91.80L127.46 103.51ZM127.46 96.56L131.30 96.56L131.30 103.51L130.57 103.51L130.57 97.29L127.46 97.29L127.46 96.56ZM127.46 98.02L129.84 98.02L129.84 103.51L129.11 103.51L129.11 98.75L127.46 98.75L127.46 98.02ZM138.45 103.51L132.95 103.51L132.95 91.80L138.45 91.80L138.45 103.51ZM143.95 103.51L138.45 103.51L138.45 91.80L143.95 91.80L143.95 103.51ZM145.60 103.51L145.60 91.80L146.33 91.80L146.33 103.51L145.60 103.51ZM147.80 103.51L147.06 103.51L147.06 91.80L147.80 91.80L147.80 103.51ZM171.44 103.51L165.94 103.51L165.94 91.80L171.44 91.80L171.44 103.51ZM176.94 103.51L171.44 103.51L171.44 91.80L176.94 91.80L176.94 103.51ZM178.59 103.51L178.59 91.80L179.32 91.80L179.32 103.51L178.59 103.51ZM180.79 103.51L180.05 103.51L180.05 91.80L180.79 91.80L180.79 103.51ZM187.93 103.51L182.44 103.51L182.44 91.80L187.93 91.80L187.93 103.51ZM193.43 103.51L187.93 103.51L187.93 91.80L193.43 91.80L193.43 103.51ZM195.08 96.56L198.93 96.56L198.93 97.29L195.81 97.29L195.81 103.51L195.08 103.51L195.08 96.56ZM196.55 103.51L196.55 98.02L198.93 98.02L198.93 98.75L197.28 98.75L197.28 103.51L196.55 103.51ZM198.93 97.29L198.93 96.56L204.43 96.56L204.43 97.29L198.93 97.29ZM198.93 98.75L198.93 98.02L204.43 98.02L204.43 98.75L198.93 98.75ZM204.43 97.29L204.43 96.56L209.93 96.56L209.93 97.29L204.43 97.29ZM204.43 98.75L204.43 98.02L209.93 98.02L209.93 98.75L204.43 98.75ZM209.93 97.29L209.93 96.56L215.42 96.56L215.42 97.29L209.93 97.29ZM209.93 98.75L209.93 98.02L215.42 98.02L215.42 98.75L209.93 98.75ZM215.42 97.29L215.42 96.56L220.92 96.56L220.92 97.29L215.42 97.29ZM215.42 98.75L215.42 98.02L220.92 98.02L220.92 98.75L215.42 98.75ZM224.77 98.75L220.92 98.75L220.92 98.02L224.04 98.02L224.04 91.80L224.77 91.80L224.77 98.75ZM223.30 91.80L223.30 97.29L220.92 97.29L220.92 96.56L222.57 96.56L222.57 91.80L223.30 91.80ZM237.42 103.51L231.92 103.51L231.92 91.80L237.42 91.80L237.42 103.51ZM242.91 103.51L237.42 103.51L237.42 91.80L242.91 91.80L242.91 103.51ZM244.56 96.56L248.41 96.56L248.41 97.29L245.30 97.29L245.30 103.51L244.56 103.51L244.56 96.56ZM246.03 103.51L246.03 98.02L248.41 98.02L248.41 98.75L246.76 98.75L246.76 103.51L246.03 103.51ZM248.41 97.29L248.41 96.56L253.91 96.56L253.91 97.29L248.41 97.29ZM248.41 98.75L248.41 98.02L253.91 98.02L253.91 98.75L248.41 98.75ZM253.91 97.29L253.91 96.56L259.41 96.56L259.41 97.29L253.91 97.29ZM253.91 98.75L253.91 98.02L259.41 98.02L259.41 98.75L253.91 98.75ZM259.41 97.29L259.41 96.56L264.91 96.56L264.91 97.29L259.41 97.29ZM259.41 98.75L259.41 98.02L264.91 98.02L264.91 98.75L259.41 98.75ZM264.91 97.29L264.91 96.56L270.40 96.56L270.40 97.29L264.91 97.29ZM264.91 98.75L264.91 98.02L270.40 98.02L270.40 98.75L264.91 98.75ZM274.25 98.75L270.40 98.75L270.40 98.02L273.52 98.02L273.52 91.80L274.25 91.80L274.25 98.75ZM272.79 91.80L272.79 97.29L270.40 97.29L270.40 96.56L272.05 96.56L272.05 91.80L272.79 91.80ZM286.90 103.51L281.40 103.51L281.40 91.80L286.90 91.80L286.90 103.51ZM292.40 103.51L286.90 103.51L286.90 91.80L292.40 91.80L292.40 103.51ZM294.05 96.56L297.89 96.56L297.89 97.29L294.78 97.29L294.78 103.51L294.05 103.51L294.05 96.56ZM295.51 103.51L295.51 98.02L297.89 98.02L297.89 98.75L296.24 98.75L296.24 103.51L295.51 103.51ZM297.89 97.29L297.89 96.56L303.39 96.56L303.39 97.29L297.89 97.29ZM297.89 98.75L297.89 98.02L303.39 98.02L303.39 98.75L297.89 98.75ZM303.39 97.29L303.39 96.56L308.89 96.56L308.89 97.29L303.39 97.29ZM303.39 98.75L303.39 98.02L308.89 98.02L308.89 98.75L303.39 98.75ZM308.89 97.29L308.89 96.56L314.39 96.56L314.39 97.29L308.89 97.29ZM308.89 98.75L308.89 98.02L314.39 98.02L314.39 98.75L308.89 98.75ZM314.39 97.29L314.39 96.56L319.89 96.56L319.89 97.29L314.39 97.29ZM314.39 98.75L314.39 98.02L319.89 98.02L319.89 98.75L314.39 98.75ZM323.73 98.75L319.89 98.75L319.89 98.02L323.00 98.02L323.00 91.80L323.73 91.80L323.73 98.75ZM322.27 91.80L322.27 97.29L319.89 97.29L319.89 96.56L321.54 96.56L321.54 91.80L322.27 91.80ZM330.88 103.51L325.38 103.51L325.38 91.80L330.88 91.80L330.88 103.51ZM336.38 103.51L330.88 103.51L330.88 91.80L336.38 91.80L336.38 103.51ZM338.03 96.56L341.88 96.56L341.88 97.29L338.76 97.29L338.76 103.51L338.03 103.51L338.03 96.56ZM339.50 103.51L339.50 98.02L341.88 98.02L341.88 98.75L340.23 98.75L340.23 103.51L339.50 103.51ZM341.88 97.29L341.88 96.56L347.38 96.56L347.38 97.29L341.88 97.29ZM341.88 98.75L341.88 98.02L347.38 98.02L347.38 98.75L341.88 98.75ZM347.38 97.29L347.38 96.56L352.88 96.56L352.88 97.29L347.38 97.29ZM347.38 98.75L347.38 98.02L352.88 98.02L352.88 98.75L347.38 98.75ZM358.37 103.51L352.88 103.51L352.88 91.80L358.37 91.80L358.37 103.51ZM363.87 103.51L358.37 103.51L358.37 91.80L363.87 91.80L363.87 103.51ZM363.87 96.56L367.72 96.56L367.72 103.51L366.99 103.51L366.99 97.29L363.87 97.29L363.87 96.56ZM363.87 98.02L366.25 98.02L366.25 103.51L365.52 103.51L365.52 98.75L363.87 98.75L363.87 98.02Z" class="ascii-path" />
  <path d="M6.50 113.51L1 113.51L1 101.80L6.50 101.80L6.50 113.51ZM12.00 113.51L6.50 113.51L6.50 101.80L12.00 101.80L12.00 113.51ZM13.65 113.51L13.65 101.80L14.38 101.80L14.38 113.51L13.65 113.51ZM15.84 113.51L15.11 113.51L15.11 101.80L15.84 101.80L15.84 113.51ZM33.99 113.51L28.49 113.51L28.49 101.80L33.99 101.80L33.99 113.51ZM39.49 113.51L33.99 113.51L33.99 101.80L39.49 101.80L39.49 113.51ZM41.14 113.51L41.14 101.80L41.87 101.80L41.87 113.51L41.14 113.51ZM43.33 113.51L42.60 113.51L42.60 101.80L43.33 101.80L43.33 113.51ZM50.48 113.51L44.98 113.51L44.98 101.80L50.48 101.80L50.48 113.51ZM55.98 113.51L50.48 113.51L50.48 101.80L55.98 101.80L55.98 113.51ZM61.48 113.51L55.98 113.51L55.98 101.80L61.48 101.80L61.48 113.51ZM66.98 113.51L61.48 113.51L61.48 101.80L66.98 101.80L66.98 113.51ZM72.47 113.51L66.98 113.51L66.98 101.80L72.47 101.80L72.47 113.51ZM72.47 106.56L76.32 106.56L76.32 113.51L75.59 113.51L75.59 107.29L72.47 107.29L72.47 106.56ZM72.47 108.02L74.86 108.02L74.86 113.51L74.13 113.51L74.13 108.75L72.47 108.75L72.47 108.02ZM94.47 113.51L88.97 113.51L88.97 101.80L94.47 101.80L94.47 113.51ZM99.96 113.51L94.47 113.51L94.47 101.80L99.96 101.80L99.96 113.51ZM105.46 113.51L99.96 113.51L99.96 101.80L105.46 101.80L105.46 113.51ZM110.96 113.51L105.46 113.51L105.46 101.80L110.96 101.80L110.96 113.51ZM116.46 113.51L110.96 113.51L110.96 101.80L116.46 101.80L116.46 113.51ZM121.96 113.51L116.46 113.51L116.46 101.80L121.96 101.80L121.96 113.51ZM123.61 106.56L127.46 106.56L127.46 107.29L124.34 107.29L124.34 113.51L123.61 113.51L123.61 106.56ZM125.07 113.51L125.07 108.02L127.46 108.02L127.46 108.75L125.80 108.75L125.80 113.51L125.07 113.51ZM131.30 108.75L127.46 108.75L127.46 108.02L130.57 108.02L130.57 101.80L131.30 101.80L131.30 108.75ZM129.84 101.80L129.84 107.29L127.46 107.29L127.46 106.56L129.11 106.56L129.11 101.80L129.84 101.80ZM138.45 113.51L132.95 113.51L132.95 101.80L138.45 101.80L138.45 113.51ZM143.95 113.51L138.45 113.51L138.45 101.80L143.95 101.80L143.95 113.51ZM145.60 113.51L145.60 101.80L146.33 101.80L146.33 113.51L145.60 113.51ZM147.80 113.51L147.06 113.51L147.06 101.80L147.80 101.80L147.80 113.51ZM171.44 113.51L165.94 113.51L165.94 101.80L171.44 101.80L171.44 113.51ZM176.94 113.51L171.44 113.51L171.44 101.80L176.94 101.80L176.94 113.51ZM178.59 113.51L178.59 101.80L179.32 101.80L179.32 113.51L178.59 113.51ZM180.79 113.51L180.05 113.51L180.05 101.80L180.79 101.80L180.79 113.51ZM187.93 113.51L182.44 113.51L182.44 101.80L187.93 101.80L187.93 113.51ZM193.43 113.51L187.93 113.51L187.93 101.80L193.43 101.80L193.43 113.51ZM195.08 113.51L195.08 101.80L195.81 101.80L195.81 113.51L195.08 113.51ZM197.28 113.51L196.55 113.51L196.55 101.80L197.28 101.80L197.28 113.51ZM215.42 113.51L209.93 113.51L209.93 101.80L215.42 101.80L215.42 113.51ZM220.92 113.51L215.42 113.51L215.42 101.80L220.92 101.80L220.92 113.51ZM226.42 113.51L220.92 113.51L220.92 101.80L226.42 101.80L226.42 113.51ZM226.42 106.56L230.27 106.56L230.27 113.51L229.54 113.51L229.54 107.29L226.42 107.29L226.42 106.56ZM226.42 108.02L228.80 108.02L228.80 113.51L228.07 113.51L228.07 108.75L226.42 108.75L226.42 108.02ZM237.42 113.51L231.92 113.51L231.92 101.80L237.42 101.80L237.42 113.51ZM242.91 113.51L237.42 113.51L237.42 101.80L242.91 101.80L242.91 113.51ZM244.56 113.51L244.56 101.80L245.30 101.80L245.30 113.51L244.56 113.51ZM246.76 113.51L246.03 113.51L246.03 101.80L246.76 101.80L246.76 113.51ZM264.91 113.51L259.41 113.51L259.41 101.80L264.91 101.80L264.91 113.51ZM270.40 113.51L264.91 113.51L264.91 101.80L270.40 101.80L270.40 113.51ZM275.90 113.51L270.40 113.51L270.40 101.80L275.90 101.80L275.90 113.51ZM275.90 106.56L279.75 106.56L279.75 113.51L279.02 113.51L279.02 107.29L275.90 107.29L275.90 106.56ZM275.90 108.02L278.29 108.02L278.29 113.51L277.55 113.51L277.55 108.75L275.90 108.75L275.90 108.02ZM286.90 113.51L281.40 113.51L281.40 101.80L286.90 101.80L286.90 113.51ZM292.40 113.51L286.90 113.51L286.90 101.80L292.40 101.80L292.40 113.51ZM297.89 113.51L292.40 113.51L292.40 101.80L297.89 101.80L297.89 113.51ZM303.39 113.51L297.89 113.51L297.89 101.80L303.39 101.80L303.39 113.51ZM308.89 113.51L303.39 113.51L303.39 101.80L308.89 101.80L308.89 113.51ZM308.89 106.56L312.74 106.56L312.74 113.51L312.01 113.51L312.01 107.29L308.89 107.29L308.89 106.56ZM308.89 108.02L311.27 108.02L311.27 113.51L310.54 113.51L310.54 108.75L308.89 108.75L308.89 108.02ZM330.88 113.51L325.38 113.51L325.38 101.80L330.88 101.80L330.88 113.51ZM336.38 113.51L330.88 113.51L330.88 101.80L336.38 101.80L336.38 113.51ZM341.88 113.51L336.38 113.51L336.38 101.80L341.88 101.80L341.88 113.51ZM347.38 113.51L341.88 113.51L341.88 101.80L347.38 101.80L347.38 113.51ZM352.88 113.51L347.38 113.51L347.38 101.80L352.88 101.80L352.88 113.51ZM358.37 113.51L352.88 113.51L352.88 101.80L358.37 101.80L358.37 113.51ZM360.02 106.56L363.87 106.56L363.87 107.29L360.76 107.29L360.76 113.51L360.02 113.51L360.02 106.56ZM361.49 113.51L361.49 108.02L363.87 108.02L363.87 108.75L362.22 108.75L362.22 113.51L361.49 113.51ZM367.72 108.75L363.87 108.75L363.87 108.02L366.99 108.02L366.99 101.80L367.72 101.80L367.72 108.75ZM366.25 101.80L366.25 107.29L363.87 107.29L363.87 106.56L365.52 106.56L365.52 101.80L366.25 101.80Z" class="ascii-path" />
  <path d="M6.50 123.51L1 123.51L1 111.80L6.50 111.80L6.50 123.51ZM12.00 123.51L6.50 123.51L6.50 111.80L12.00 111.80L12.00 123.51ZM13.65 123.51L13.65 111.80L14.38 111.80L14.38 123.51L13.65 123.51ZM15.84 123.51L15.11 123.51L15.11 111.80L15.84 111.80L15.84 123.51ZM33.99 123.51L28.49 123.51L28.49 111.80L33.99 111.80L33.99 123.51ZM39.49 123.51L33.99 123.51L33.99 111.80L39.49 111.80L39.49 123.51ZM41.14 123.51L41.14 111.80L41.87 111.80L41.87 123.51L41.14 123.51ZM43.33 123.51L42.60 123.51L42.60 111.80L43.33 111.80L43.33 123.51ZM50.48 123.51L44.98 123.51L44.98 111.80L50.48 111.80L50.48 123.51ZM55.98 123.51L50.48 123.51L50.48 111.80L55.98 111.80L55.98 123.51ZM57.63 116.56L61.48 116.56L61.48 117.29L58.36 117.29L58.36 123.51L57.63 123.51L57.63 116.56ZM59.10 123.51L59.10 118.02L61.48 118.02L61.48 118.75L59.83 118.75L59.83 123.51L59.10 123.51ZM61.48 117.29L61.48 116.56L66.98 116.56L66.98 117.29L61.48 117.29ZM61.48 118.75L61.48 118.02L66.98 118.02L66.98 118.75L61.48 118.75ZM66.98 117.29L66.98 116.56L72.47 116.56L72.47 117.29L66.98 117.29ZM66.98 118.75L66.98 118.02L72.47 118.02L72.47 118.75L66.98 118.75ZM76.32 118.75L72.47 118.75L72.47 118.02L75.59 118.02L75.59 111.80L76.32 111.80L76.32 118.75ZM74.86 111.80L74.86 117.29L72.47 117.29L72.47 116.56L74.13 116.56L74.13 111.80L74.86 111.80ZM94.47 123.51L88.97 123.51L88.97 111.80L94.47 111.80L94.47 123.51ZM99.96 123.51L94.47 123.51L94.47 111.80L99.96 111.80L99.96 123.51ZM101.62 116.56L105.46 116.56L105.46 117.29L102.35 117.29L102.35 123.51L101.62 123.51L101.62 116.56ZM103.08 123.51L103.08 118.02L105.46 118.02L105.46 118.75L103.81 118.75L103.81 123.51L103.08 123.51ZM105.46 117.29L105.46 116.56L110.96 116.56L110.96 117.29L105.46 117.29ZM105.46 118.75L105.46 118.02L110.96 118.02L110.96 118.75L105.46 118.75ZM110.96 117.29L110.96 116.56L116.46 116.56L116.46 117.29L110.96 117.29ZM110.96 118.75L110.96 118.02L116.46 118.02L116.46 118.75L110.96 118.75ZM121.96 123.51L116.46 123.51L116.46 111.80L121.96 111.80L121.96 123.51ZM127.46 123.51L121.96 123.51L121.96 111.80L127.46 111.80L127.46 123.51ZM127.46 116.56L131.30 116.56L131.30 123.51L130.57 123.51L130.57 117.29L127.46 117.29L127.46 116.56ZM127.46 118.02L129.84 118.02L129.84 123.51L129.11 123.51L129.11 118.75L127.46 118.75L127.46 118.02ZM138.45 123.51L132.95 123.51L132.95 111.80L138.45 111.80L138.45 123.51ZM143.95 123.51L138.45 123.51L138.45 111.80L143.95 111.80L143.95 123.51ZM145.60 123.51L145.60 111.80L146.33 111.80L146.33 123.51L145.60 123.51ZM147.80 123.51L147.06 123.51L147.06 111.80L147.80 111.80L147.80 123.51ZM171.44 123.51L165.94 123.51L165.94 111.80L171.44 111.80L171.44 123.51ZM176.94 123.51L171.44 123.51L171.44 111.80L176.94 111.80L176.94 123.51ZM178.59 123.51L178.59 111.80L179.32 111.80L179.32 123.51L178.59 123.51ZM180.79 123.51L180.05 123.51L180.05 111.80L180.79 111.80L180.79 123.51ZM187.93 123.51L182.44 123.51L182.44 111.80L187.93 111.80L187.93 123.51ZM193.43 123.51L187.93 123.51L187.93 111.80L193.43 111.80L193.43 123.51ZM195.08 123.51L195.08 111.80L195.81 111.80L195.81 123.51L195.08 123.51ZM197.28 123.51L196.55 123.51L196.55 111.80L197.28 111.80L197.28 123.51ZM220.92 123.51L215.42 123.51L215.42 111.80L220.92 111.80L220.92 123.51ZM226.42 123.51L220.92 123.51L220.92 111.80L226.42 111.80L226.42 123.51ZM228.07 123.51L228.07 111.80L228.80 111.80L228.80 123.51L228.07 123.51ZM230.27 123.51L229.54 123.51L229.54 111.80L230.27 111.80L230.27 123.51ZM237.42 123.51L231.92 123.51L231.92 111.80L237.42 111.80L237.42 123.51ZM242.91 123.51L237.42 123.51L237.42 111.80L242.91 111.80L242.91 123.51ZM244.56 123.51L244.56 111.80L245.30 111.80L245.30 123.51L244.56 123.51ZM246.76 123.51L246.03 123.51L246.03 111.80L246.76 111.80L246.76 123.51ZM270.40 123.51L264.91 123.51L264.91 111.80L270.40 111.80L270.40 123.51ZM275.90 123.51L270.40 123.51L270.40 111.80L275.90 111.80L275.90 123.51ZM277.55 123.51L277.55 111.80L278.29 111.80L278.29 123.51L277.55 123.51ZM279.75 123.51L279.02 123.51L279.02 111.80L279.75 111.80L279.75 123.51ZM286.90 123.51L281.40 123.51L281.40 111.80L286.90 111.80L286.90 123.51ZM292.40 123.51L286.90 123.51L286.90 111.80L292.40 111.80L292.40 123.51ZM294.05 116.56L297.89 116.56L297.89 117.29L294.78 117.29L294.78 123.51L294.05 123.51L294.05 116.56ZM295.51 123.51L295.51 118.02L297.89 118.02L297.89 118.75L296.24 118.75L296.24 123.51L295.51 123.51ZM297.89 117.29L297.89 116.56L303.39 116.56L303.39 117.29L297.89 117.29ZM297.89 118.75L297.89 118.02L303.39 118.02L303.39 118.75L297.89 118.75ZM303.39 117.29L303.39 116.56L308.89 116.56L308.89 117.29L303.39 117.29ZM303.39 118.75L303.39 118.02L308.89 118.02L308.89 118.75L303.39 118.75ZM312.74 118.75L308.89 118.75L308.89 118.02L312.01 118.02L312.01 111.80L312.74 111.80L312.74 118.75ZM311.27 111.80L311.27 117.29L308.89 117.29L308.89 116.56L310.54 116.56L310.54 111.80L311.27 111.80ZM330.88 123.51L325.38 123.51L325.38 111.80L330.88 111.80L330.88 123.51ZM336.38 123.51L330.88 123.51L330.88 111.80L336.38 111.80L336.38 123.51ZM338.03 116.56L341.88 116.56L341.88 117.29L338.76 117.29L338.76 123.51L338.03 123.51L338.03 116.56ZM339.50 123.51L339.50 118.02L341.88 118.02L341.88 118.75L340.23 118.75L340.23 123.51L339.50 123.51ZM341.88 117.29L341.88 116.56L347.38 116.56L347.38 117.29L341.88 117.29ZM341.88 118.75L341.88 118.02L347.38 118.02L347.38 118.75L341.88 118.75ZM347.38 117.29L347.38 116.56L352.88 116.56L352.88 117.29L347.38 117.29ZM347.38 118.75L347.38 118.02L352.88 118.02L352.88 118.75L347.38 118.75ZM358.37 123.51L352.88 123.51L352.88 111.80L358.37 111.80L358.37 123.51ZM363.87 123.51L358.37 123.51L358.37 111.80L363.87 111.80L363.87 123.51ZM363.87 116.56L367.72 116.56L367.72 123.51L366.99 123.51L366.99 117.29L363.87 117.29L363.87 116.56ZM363.87 118.02L366.25 118.02L366.25 123.51L365.52 123.51L365.52 118.75L363.87 118.75L363.87 118.02Z" class="ascii-path" />
  <path d="M6.50 133.51L1 133.51L1 121.80L6.50 121.80L6.50 133.51ZM12.00 133.51L6.50 133.51L6.50 121.80L12.00 121.80L12.00 133.51ZM17.49 133.51L12.00 133.51L12.00 121.80L17.49 121.80L17.49 133.51ZM22.99 133.51L17.49 133.51L17.49 121.80L22.99 121.80L22.99 133.51ZM28.49 133.51L22.99 133.51L22.99 121.80L28.49 121.80L28.49 133.51ZM33.99 133.51L28.49 133.51L28.49 121.80L33.99 121.80L33.99 133.51ZM35.64 126.56L39.49 126.56L39.49 127.29L36.37 127.29L36.37 133.51L35.64 133.51L35.64 126.56ZM37.10 133.51L37.10 128.02L39.49 128.02L39.49 128.75L37.84 128.75L37.84 133.51L37.10 133.51ZM43.33 128.75L39.49 128.75L39.49 128.02L42.60 128.02L42.60 121.80L43.33 121.80L43.33 128.75ZM41.87 121.80L41.87 127.29L39.49 127.29L39.49 126.56L41.14 126.56L41.14 121.80L41.87 121.80ZM50.48 133.51L44.98 133.51L44.98 121.80L50.48 121.80L50.48 133.51ZM55.98 133.51L50.48 133.51L50.48 121.80L55.98 121.80L55.98 133.51ZM61.48 133.51L55.98 133.51L55.98 121.80L61.48 121.80L61.48 133.51ZM66.98 133.51L61.48 133.51L61.48 121.80L66.98 121.80L66.98 133.51ZM72.47 133.51L66.98 133.51L66.98 121.80L72.47 121.80L72.47 133.51ZM77.97 133.51L72.47 133.51L72.47 121.80L77.97 121.80L77.97 133.51ZM83.47 133.51L77.97 133.51L77.97 121.80L83.47 121.80L83.47 133.51ZM83.47 126.56L87.32 126.56L87.32 133.51L86.59 133.51L86.59 127.29L83.47 127.29L83.47 126.56ZM83.47 128.02L85.85 128.02L85.85 133.51L85.12 133.51L85.12 128.75L83.47 128.75L83.47 128.02ZM94.47 133.51L88.97 133.51L88.97 121.80L94.47 121.80L94.47 133.51ZM99.96 133.51L94.47 133.51L94.47 121.80L99.96 121.80L99.96 133.51ZM105.46 133.51L99.96 133.51L99.96 121.80L105.46 121.80L105.46 133.51ZM110.96 133.51L105.46 133.51L105.46 121.80L110.96 121.80L110.96 133.51ZM116.46 133.51L110.96 133.51L110.96 121.80L116.46 121.80L116.46 133.51ZM121.96 133.51L116.46 133.51L116.46 121.80L121.96 121.80L121.96 133.51ZM123.61 126.56L127.46 126.56L127.46 127.29L124.34 127.29L124.34 133.51L123.61 133.51L123.61 126.56ZM125.07 133.51L125.07 128.02L127.46 128.02L127.46 128.75L125.80 128.75L125.80 133.51L125.07 133.51ZM131.30 128.75L127.46 128.75L127.46 128.02L130.57 128.02L130.57 121.80L131.30 121.80L131.30 128.75ZM129.84 121.80L129.84 127.29L127.46 127.29L127.46 126.56L129.11 126.56L129.11 121.80L129.84 121.80ZM138.45 128.75L134.60 128.75L134.60 121.80L135.34 121.80L135.34 128.02L138.45 128.02L138.45 128.75ZM138.45 127.29L136.07 127.29L136.07 121.80L136.80 121.80L136.80 126.56L138.45 126.56L138.45 127.29ZM143.95 133.51L138.45 133.51L138.45 121.80L143.95 121.80L143.95 133.51ZM149.45 133.51L143.95 133.51L143.95 121.80L149.45 121.80L149.45 133.51ZM154.95 133.51L149.45 133.51L149.45 121.80L154.95 121.80L154.95 133.51ZM160.44 133.51L154.95 133.51L154.95 121.80L160.44 121.80L160.44 133.51ZM165.94 133.51L160.44 133.51L160.44 121.80L165.94 121.80L165.94 133.51ZM171.44 133.51L165.94 133.51L165.94 121.80L171.44 121.80L171.44 133.51ZM173.09 126.56L176.94 126.56L176.94 127.29L173.82 127.29L173.82 133.51L173.09 133.51L173.09 126.56ZM174.55 133.51L174.55 128.02L176.94 128.02L176.94 128.75L175.29 128.75L175.29 133.51L174.55 133.51ZM180.79 128.75L176.94 128.75L176.94 128.02L180.05 128.02L180.05 121.80L180.79 121.80L180.79 128.75ZM179.32 121.80L179.32 127.29L176.94 127.29L176.94 126.56L178.59 126.56L178.59 121.80L179.32 121.80ZM187.93 128.75L184.09 128.75L184.09 121.80L184.82 121.80L184.82 128.02L187.93 128.02L187.93 128.75ZM187.93 127.29L185.55 127.29L185.55 121.80L186.28 121.80L186.28 126.56L187.93 126.56L187.93 127.29ZM193.43 133.51L187.93 133.51L187.93 121.80L193.43 121.80L193.43 133.51ZM198.93 133.51L193.43 133.51L193.43 121.80L198.93 121.80L198.93 133.51ZM204.43 133.51L198.93 133.51L198.93 121.80L204.43 121.80L204.43 133.51ZM209.93 133.51L204.43 133.51L204.43 121.80L209.93 121.80L209.93 133.51ZM215.42 133.51L209.93 133.51L209.93 121.80L215.42 121.80L215.42 133.51ZM220.92 133.51L215.42 133.51L215.42 121.80L220.92 121.80L220.92 133.51ZM222.57 126.56L226.42 126.56L226.42 127.29L223.30 127.29L223.30 133.51L222.57 133.51L222.57 126.56ZM224.04 133.51L224.04 128.02L226.42 128.02L226.42 128.75L224.77 128.75L224.77 133.51L224.04 133.51ZM230.27 128.75L226.42 128.75L226.42 128.02L229.54 128.02L229.54 121.80L230.27 121.80L230.27 128.75ZM228.80 121.80L228.80 127.29L226.42 127.29L226.42 126.56L228.07 126.56L228.07 121.80L228.80 121.80ZM237.42 128.75L233.57 128.75L233.57 121.80L234.30 121.80L234.30 128.02L237.42 128.02L237.42 128.75ZM237.42 127.29L235.03 127.29L235.03 121.80L235.77 121.80L235.77 126.56L237.42 126.56L237.42 127.29ZM242.91 133.51L237.42 133.51L237.42 121.80L242.91 121.80L242.91 133.51ZM248.41 133.51L242.91 133.51L242.91 121.80L248.41 121.80L248.41 133.51ZM253.91 133.51L248.41 133.51L248.41 121.80L253.91 121.80L253.91 133.51ZM259.41 133.51L253.91 133.51L253.91 121.80L259.41 121.80L259.41 133.51ZM264.91 133.51L259.41 133.51L259.41 121.80L264.91 121.80L264.91 133.51ZM270.40 133.51L264.91 133.51L264.91 121.80L270.40 121.80L270.40 133.51ZM272.05 126.56L275.90 126.56L275.90 127.29L272.79 127.29L272.79 133.51L272.05 133.51L272.05 126.56ZM273.52 133.51L273.52 128.02L275.90 128.02L275.90 128.75L274.25 128.75L274.25 133.51L273.52 133.51ZM279.75 128.75L275.90 128.75L275.90 128.02L279.02 128.02L279.02 121.80L279.75 121.80L279.75 128.75ZM278.29 121.80L278.29 127.29L275.90 127.29L275.90 126.56L277.55 126.56L277.55 121.80L278.29 121.80ZM286.90 133.51L281.40 133.51L281.40 121.80L286.90 121.80L286.90 133.51ZM292.40 133.51L286.90 133.51L286.90 121.80L292.40 121.80L292.40 133.51ZM297.89 133.51L292.40 133.51L292.40 121.80L297.89 121.80L297.89 133.51ZM303.39 133.51L297.89 133.51L297.89 121.80L303.39 121.80L303.39 133.51ZM308.89 133.51L303.39 133.51L303.39 121.80L308.89 121.80L308.89 133.51ZM314.39 133.51L308.89 133.51L308.89 121.80L314.39 121.80L314.39 133.51ZM319.89 133.51L314.39 133.51L314.39 121.80L319.89 121.80L319.89 133.51ZM319.89 126.56L323.73 126.56L323.73 133.51L323.00 133.51L323.00 127.29L319.89 127.29L319.89 126.56ZM319.89 128.02L322.27 128.02L322.27 133.51L321.54 133.51L321.54 128.75L319.89 128.75L319.89 128.02ZM330.88 133.51L325.38 133.51L325.38 121.80L330.88 121.80L330.88 133.51ZM336.38 133.51L330.88 133.51L330.88 121.80L336.38 121.80L336.38 133.51ZM338.03 133.51L338.03 121.80L338.76 121.80L338.76 133.51L338.03 133.51ZM340.23 133.51L339.50 133.51L339.50 121.80L340.23 121.80L340.23 133.51ZM358.37 133.51L352.88 133.51L352.88 121.80L358.37 121.80L358.37 133.51ZM363.87 133.51L358.37 133.51L358.37 121.80L363.87 121.80L363.87 133.51ZM365.52 133.51L365.52 121.80L366.25 121.80L366.25 133.51L365.52 133.51ZM367.72 133.51L366.99 133.51L366.99 121.80L367.72 121.80L367.72 133.51Z" class="ascii-path" />
  <path d="M6.50 138.75L2.65 138.75L2.65 131.80L3.38 131.80L3.38 138.02L6.50 138.02L6.50 138.75ZM6.50 137.29L4.12 137.29L4.12 131.80L4.85 131.80L4.85 136.56L6.50 136.56L6.50 137.29ZM6.50 137.29L6.50 136.56L12.00 136.56L12.00 137.29L6.50 137.29ZM6.50 138.75L6.50 138.02L12.00 138.02L12.00 138.75L6.50 138.75ZM12.00 137.29L12.00 136.56L17.49 136.56L17.49 137.29L12.00 137.29ZM12.00 138.75L12.00 138.02L17.49 138.02L17.49 138.75L12.00 138.75ZM17.49 137.29L17.49 136.56L22.99 136.56L22.99 137.29L17.49 137.29ZM17.49 138.75L17.49 138.02L22.99 138.02L22.99 138.75L17.49 138.75ZM22.99 137.29L22.99 136.56L28.49 136.56L28.49 137.29L22.99 137.29ZM22.99 138.75L22.99 138.02L28.49 138.02L28.49 138.75L22.99 138.75ZM28.49 137.29L28.49 136.56L33.99 136.56L33.99 137.29L28.49 137.29ZM28.49 138.75L28.49 138.02L33.99 138.02L33.99 138.75L28.49 138.75ZM37.84 138.75L33.99 138.75L33.99 138.02L37.10 138.02L37.10 131.80L37.84 131.80L37.84 138.75ZM36.37 131.80L36.37 137.29L33.99 137.29L33.99 136.56L35.64 136.56L35.64 131.80L36.37 131.80ZM50.48 138.75L46.63 138.75L46.63 131.80L47.37 131.80L47.37 138.02L50.48 138.02L50.48 138.75ZM50.48 137.29L48.10 137.29L48.10 131.80L48.83 131.80L48.83 136.56L50.48 136.56L50.48 137.29ZM50.48 137.29L50.48 136.56L55.98 136.56L55.98 137.29L50.48 137.29ZM50.48 138.75L50.48 138.02L55.98 138.02L55.98 138.75L50.48 138.75ZM55.98 137.29L55.98 136.56L61.48 136.56L61.48 137.29L55.98 137.29ZM55.98 138.75L55.98 138.02L61.48 138.02L61.48 138.75L55.98 138.75ZM61.48 137.29L61.48 136.56L66.98 136.56L66.98 137.29L61.48 137.29ZM61.48 138.75L61.48 138.02L66.98 138.02L66.98 138.75L61.48 138.75ZM66.98 137.29L66.98 136.56L72.47 136.56L72.47 137.29L66.98 137.29ZM66.98 138.75L66.98 138.02L72.47 138.02L72.47 138.75L66.98 138.75ZM72.47 137.29L72.47 136.56L77.97 136.56L77.97 137.29L72.47 137.29ZM72.47 138.75L72.47 138.02L77.97 138.02L77.97 138.75L72.47 138.75ZM77.97 137.29L77.97 136.56L83.47 136.56L83.47 137.29L77.97 137.29ZM77.97 138.75L77.97 138.02L83.47 138.02L83.47 138.75L77.97 138.75ZM87.32 138.75L83.47 138.75L83.47 138.02L86.59 138.02L86.59 131.80L87.32 131.80L87.32 138.75ZM85.85 131.80L85.85 137.29L83.47 137.29L83.47 136.56L85.12 136.56L85.12 131.80L85.85 131.80ZM94.47 138.75L90.62 138.75L90.62 131.80L91.35 131.80L91.35 138.02L94.47 138.02L94.47 138.75ZM94.47 137.29L92.08 137.29L92.08 131.80L92.82 131.80L92.82 136.56L94.47 136.56L94.47 137.29ZM94.47 137.29L94.47 136.56L99.96 136.56L99.96 137.29L94.47 137.29ZM94.47 138.75L94.47 138.02L99.96 138.02L99.96 138.75L94.47 138.75ZM99.96 137.29L99.96 136.56L105.46 136.56L105.46 137.29L99.96 137.29ZM99.96 138.75L99.96 138.02L105.46 138.02L105.46 138.75L99.96 138.75ZM105.46 137.29L105.46 136.56L110.96 136.56L110.96 137.29L105.46 137.29ZM105.46 138.75L105.46 138.02L110.96 138.02L110.96 138.75L105.46 138.75ZM110.96 137.29L110.96 136.56L116.46 136.56L116.46 137.29L110.96 137.29ZM110.96 138.75L110.96 138.02L116.46 138.02L116.46 138.75L110.96 138.75ZM116.46 137.29L116.46 136.56L121.96 136.56L121.96 137.29L116.46 137.29ZM116.46 138.75L116.46 138.02L121.96 138.02L121.96 138.75L116.46 138.75ZM125.80 138.75L121.96 138.75L121.96 138.02L125.07 138.02L125.07 131.80L125.80 131.80L125.80 138.75ZM124.34 131.80L124.34 137.29L121.96 137.29L121.96 136.56L123.61 136.56L123.61 131.80L124.34 131.80ZM143.95 138.75L140.10 138.75L140.10 131.80L140.83 131.80L140.83 138.02L143.95 138.02L143.95 138.75ZM143.95 137.29L141.57 137.29L141.57 131.80L142.30 131.80L142.30 136.56L143.95 136.56L143.95 137.29ZM143.95 137.29L143.95 136.56L149.45 136.56L149.45 137.29L143.95 137.29ZM143.95 138.75L143.95 138.02L149.45 138.02L149.45 138.75L143.95 138.75ZM149.45 137.29L149.45 136.56L154.95 136.56L154.95 137.29L149.45 137.29ZM149.45 138.75L149.45 138.02L154.95 138.02L154.95 138.75L149.45 138.75ZM154.95 137.29L154.95 136.56L160.44 136.56L160.44 137.29L154.95 137.29ZM154.95 138.75L154.95 138.02L160.44 138.02L160.44 138.75L154.95 138.75ZM160.44 137.29L160.44 136.56L165.94 136.56L165.94 137.29L160.44 137.29ZM160.44 138.75L160.44 138.02L165.94 138.02L165.94 138.75L160.44 138.75ZM165.94 137.29L165.94 136.56L171.44 136.56L171.44 137.29L165.94 137.29ZM165.94 138.75L165.94 138.02L171.44 138.02L171.44 138.75L165.94 138.75ZM175.29 138.75L171.44 138.75L171.44 138.02L174.55 138.02L174.55 131.80L175.29 131.80L175.29 138.75ZM173.82 131.80L173.82 137.29L171.44 137.29L171.44 136.56L173.09 136.56L173.09 131.80L173.82 131.80ZM193.43 138.75L189.58 138.75L189.58 131.80L190.32 131.80L190.32 138.02L193.43 138.02L193.43 138.75ZM193.43 137.29L191.05 137.29L191.05 131.80L191.78 131.80L191.78 136.56L193.43 136.56L193.43 137.29ZM193.43 137.29L193.43 136.56L198.93 136.56L198.93 137.29L193.43 137.29ZM193.43 138.75L193.43 138.02L198.93 138.02L198.93 138.75L193.43 138.75ZM198.93 137.29L198.93 136.56L204.43 136.56L204.43 137.29L198.93 137.29ZM198.93 138.75L198.93 138.02L204.43 138.02L204.43 138.75L198.93 138.75ZM204.43 137.29L204.43 136.56L209.93 136.56L209.93 137.29L204.43 137.29ZM204.43 138.75L204.43 138.02L209.93 138.02L209.93 138.75L204.43 138.75ZM209.93 137.29L209.93 136.56L215.42 136.56L215.42 137.29L209.93 137.29ZM209.93 138.75L209.93 138.02L215.42 138.02L215.42 138.75L209.93 138.75ZM215.42 137.29L215.42 136.56L220.92 136.56L220.92 137.29L215.42 137.29ZM215.42 138.75L215.42 138.02L220.92 138.02L220.92 138.75L215.42 138.75ZM224.77 138.75L220.92 138.75L220.92 138.02L224.04 138.02L224.04 131.80L224.77 131.80L224.77 138.75ZM223.30 131.80L223.30 137.29L220.92 137.29L220.92 136.56L222.57 136.56L222.57 131.80L223.30 131.80ZM242.91 138.75L239.07 138.75L239.07 131.80L239.80 131.80L239.80 138.02L242.91 138.02L242.91 138.75ZM242.91 137.29L240.53 137.29L240.53 131.80L241.26 131.80L241.26 136.56L242.91 136.56L242.91 137.29ZM242.91 137.29L242.91 136.56L248.41 136.56L248.41 137.29L242.91 137.29ZM242.91 138.75L242.91 138.02L248.41 138.02L248.41 138.75L242.91 138.75ZM248.41 137.29L248.41 136.56L253.91 136.56L253.91 137.29L248.41 137.29ZM248.41 138.75L248.41 138.02L253.91 138.02L253.91 138.75L248.41 138.75ZM253.91 137.29L253.91 136.56L259.41 136.56L259.41 137.29L253.91 137.29ZM253.91 138.75L253.91 138.02L259.41 138.02L259.41 138.75L253.91 138.75ZM259.41 137.29L259.41 136.56L264.91 136.56L264.91 137.29L259.41 137.29ZM259.41 138.75L259.41 138.02L264.91 138.02L264.91 138.75L259.41 138.75ZM264.91 137.29L264.91 136.56L270.40 136.56L270.40 137.29L264.91 137.29ZM264.91 138.75L264.91 138.02L270.40 138.02L270.40 138.75L264.91 138.75ZM274.25 138.75L270.40 138.75L270.40 138.02L273.52 138.02L273.52 131.80L274.25 131.80L274.25 138.75ZM272.79 131.80L272.79 137.29L270.40 137.29L270.40 136.56L272.05 136.56L272.05 131.80L272.79 131.80ZM286.90 138.75L283.05 138.75L283.05 131.80L283.78 131.80L283.78 138.02L286.90 138.02L286.90 138.75ZM286.90 137.29L284.52 137.29L284.52 131.80L285.25 131.80L285.25 136.56L286.90 136.56L286.90 137.29ZM286.90 137.29L286.90 136.56L292.40 136.56L292.40 137.29L286.90 137.29ZM286.90 138.75L286.90 138.02L292.40 138.02L292.40 138.75L286.90 138.75ZM292.40 137.29L292.40 136.56L297.89 136.56L297.89 137.29L292.40 137.29ZM292.40 138.75L292.40 138.02L297.89 138.02L297.89 138.75L292.40 138.75ZM297.89 137.29L297.89 136.56L303.39 136.56L303.39 137.29L297.89 137.29ZM297.89 138.75L297.89 138.02L303.39 138.02L303.39 138.75L297.89 138.75ZM303.39 137.29L303.39 136.56L308.89 136.56L308.89 137.29L303.39 137.29ZM303.39 138.75L303.39 138.02L308.89 138.02L308.89 138.75L303.39 138.75ZM308.89 137.29L308.89 136.56L314.39 136.56L314.39 137.29L308.89 137.29ZM308.89 138.75L308.89 138.02L314.39 138.02L314.39 138.75L308.89 138.75ZM314.39 137.29L314.39 136.56L319.89 136.56L319.89 137.29L314.39 137.29ZM314.39 138.75L314.39 138.02L319.89 138.02L319.89 138.75L314.39 138.75ZM323.73 138.75L319.89 138.75L319.89 138.02L323.00 138.02L323.00 131.80L323.73 131.80L323.73 138.75ZM322.27 131.80L322.27 137.29L319.89 137.29L319.89 136.56L321.54 136.56L321.54 131.80L322.27 131.80ZM330.88 138.75L327.04 138.75L327.04 131.80L327.77 131.80L327.77 138.02L330.88 138.02L330.88 138.75ZM330.88 137.29L328.50 137.29L328.50 131.80L329.23 131.80L329.23 136.56L330.88 136.56L330.88 137.29ZM330.88 137.29L330.88 136.56L336.38 136.56L336.38 137.29L330.88 137.29ZM330.88 138.75L330.88 138.02L336.38 138.02L336.38 138.75L330.88 138.75ZM340.23 138.75L336.38 138.75L336.38 138.02L339.50 138.02L339.50 131.80L340.23 131.80L340.23 138.75ZM338.76 131.80L338.76 137.29L336.38 137.29L336.38 136.56L338.03 136.56L338.03 131.80L338.76 131.80ZM358.37 138.75L354.53 138.75L354.53 131.80L355.26 131.80L355.26 138.02L358.37 138.02L358.37 138.75ZM358.37 137.29L355.99 137.29L355.99 131.80L356.72 131.80L356.72 136.56L358.37 136.56L358.37 137.29ZM358.37 137.29L358.37 136.56L363.87 136.56L363.87 137.29L358.37 137.29ZM358.37 138.75L358.37 138.02L363.87 138.02L363.87 138.75L358.37 138.75ZM367.72 138.75L363.87 138.75L363.87 138.02L366.99 138.02L366.99 131.80L367.72 131.80L367.72 138.75ZM366.25 131.80L366.25 137.29L363.87 137.29L363.87 136.56L365.52 136.56L365.52 131.80L366.25 131.80Z" class="ascii-path" />
</svg>